<svg viewBox="0 0 83 24" fill="none" xmlns="http://www.w3.org/2000/svg">
<g clip-path="url(#clip0_249_1771)">
<path d="M0.0738525 21.4279H10.0481C14.8303 21.4279 17.2897 18.9513 17.2897 15.7867C17.2897 13.8053 16.3879 12.622 15.4314 11.9616C14.8849 11.5763 14.2837 11.3011 13.6005 11.1085V10.9709C14.1471 10.8058 14.639 10.5581 15.1035 10.2279C15.8413 9.65006 16.6065 8.63188 16.6065 6.98076C16.6065 4.36651 14.393 2.16504 10.3213 2.16504H0.0738525V21.4279ZM5.12928 9.59501V6.29281H9.2283C10.6219 6.29281 11.2778 6.98076 11.2778 7.94389C11.2778 8.90706 10.6219 9.59501 9.2283 9.59501H5.12928ZM5.12928 17.3002V13.4476H9.50156C11.2778 13.4476 12.0976 14.2731 12.0976 15.3739C12.0976 16.4746 11.2778 17.3002 9.50156 17.3002H5.12928Z" fill="#2E2E2E"/>
<path d="M18.3949 11.7971C18.3949 17.5759 22.7672 21.9789 29.0523 21.9789C33.206 21.9789 35.7474 19.9976 37.2229 17.9887C38.0975 16.8329 38.7534 15.512 39.1632 13.9985H33.9713C33.7798 14.6314 33.4519 15.1818 33.042 15.6496C32.3042 16.5027 31.1291 17.3007 29.0523 17.3007C25.9097 17.3007 23.7236 15.0993 23.7236 11.7971C23.7236 8.49485 25.9097 6.29337 29.0523 6.29337C30.9105 6.29337 32.0856 7.00885 32.8234 7.75185C33.2606 8.16462 33.5885 8.65997 33.8344 9.1828H39.0267C38.6438 7.77938 38.0156 6.54103 37.1683 5.41278C35.7201 3.54152 33.1786 1.61523 29.0523 1.61523C22.7672 1.61523 18.3949 6.01819 18.3949 11.7971Z" fill="#2E2E2E"/>
<path d="M40.946 21.4279H46.0015V10.4206L45.5917 7.94389H45.865L49.5541 17.025H55.1559L58.845 7.94389H59.1183L58.7085 10.4206V21.4279H63.7639V2.16504H56.659L52.6966 12.0717H52.0134L48.051 2.16504H40.946V21.4279Z" fill="#2E2E2E"/>
<path d="M65.3977 15.2368C65.7529 16.5027 66.2996 17.631 67.0646 18.6216C68.3764 20.3002 70.6446 21.9789 74.5521 21.9789C79.99 21.9789 82.75 18.9519 82.75 15.6496C82.75 11.3017 78.2958 10.2835 75.0165 9.48551C72.9943 9.01769 71.4096 8.49485 71.4096 7.3941C71.4096 6.70614 72.0655 6.01819 74.0054 6.01819C75.3994 6.01819 76.1644 6.43096 76.6015 6.84373C76.8476 7.09139 77.0387 7.36657 77.1482 7.66928H82.3401C82.0941 6.54103 81.6297 5.52285 80.9465 4.64226C79.7989 3.12875 77.6945 1.61523 74.0054 1.61523C68.9776 1.61523 66.0809 4.47715 66.0809 7.66928C66.0809 11.1641 68.8954 12.485 71.7649 13.2831C74.6067 14.0261 77.4215 14.4664 77.4215 15.9248C77.4215 16.7779 76.6016 17.5759 74.5521 17.5759C72.9124 17.5759 71.9013 16.998 71.3277 16.4201C70.9998 16.0899 70.7538 15.7047 70.5896 15.2368H65.3977Z" fill="#2E2E2E"/>
</g>
<defs>
<clipPath id="clip0_249_1771">
<rect width="82.9091" height="24" fill="white"/>
</clipPath>
</defs>
</svg>
