<svg width="116" height="22" viewBox="0 0 116 22" fill="none" xmlns="http://www.w3.org/2000/svg">
<path d="M0.0867089 0.344332C0.189389 -0.187323 0.705076 0.0408549 1.07473 0.0956177C2.56446 0.436146 4.07653 0.67024 5.5995 0.796125C6.02602 0.828427 6.4417 0.946056 6.8219 1.14204C7.20211 1.33801 7.53908 1.60835 7.81283 1.93702C8.46999 2.71282 8.68447 3.7305 8.97197 4.67516C9.61316 6.88392 10.2019 9.18853 9.85046 11.5045C9.54175 13.2042 9.11943 14.8813 8.58635 16.5245C8.23039 17.6653 7.41123 18.788 6.17679 19.0344C4.73242 19.2877 3.25839 19.3493 1.82543 19.6756C1.22532 19.776 0.611518 20.0589 0 19.8148C0.399312 19.1303 1.12264 18.7424 1.60866 18.1286C5.55158 13.8502 5.67708 6.68084 1.96918 2.21996C1.44665 1.49891 0.695945 0.990077 0.0867089 0.344332Z" fill="#2D472B"/>
<path d="M24.3283 0.0979014C24.6615 0.07052 25.241 -0.19873 25.3072 0.32608C24.9125 0.807536 24.3945 1.15893 23.9655 1.61985C20.0979 5.65404 19.6712 12.4378 22.8771 16.9877C23.4772 17.9551 24.3534 18.6967 25.1749 19.468C25.3734 19.614 25.1566 20.1685 24.8622 19.9494C23.5753 19.703 22.293 19.4018 20.9832 19.2854C19.9952 19.1554 18.9091 19.1691 18.0922 18.5142C17.1361 17.7772 16.7939 16.5633 16.495 15.452C15.9542 13.6266 15.4887 11.7373 15.4316 9.8183C15.5663 7.64604 16.1732 5.54452 16.8007 3.47494C17.1681 2.27929 18.0329 1.08135 19.3517 0.894244C21.0106 0.636402 22.6923 0.501777 24.3283 0.0979014Z" fill="#2D472B"/>
<circle cx="12.5" cy="10" r="5" fill="#20331F" stroke="#E8E6E1" stroke-width="2"/>
<path d="M42.5066 18V17.6C42.96 17.5733 43.3 17.52 43.5266 17.44C43.7666 17.36 43.9266 17.2 44.0066 16.96C44.0866 16.72 44.1266 16.36 44.1266 15.88V5.96C44.1266 5.46667 44.0866 5.10667 44.0066 4.88C43.9266 4.64 43.7666 4.48 43.5266 4.4C43.3 4.30667 42.96 4.25333 42.5066 4.24V3.84C42.8133 3.85333 43.2 3.86667 43.6666 3.88C44.1333 3.89333 44.5933 3.9 45.0466 3.9C45.5666 3.9 46.0533 3.89333 46.5066 3.88C46.96 3.86667 47.3266 3.85333 47.6066 3.84V4.24C47.1533 4.25333 46.8066 4.30667 46.5666 4.4C46.34 4.48 46.1866 4.64 46.1066 4.88C46.0266 5.10667 45.9866 5.46667 45.9866 5.96V15.88C45.9866 16.36 46.0266 16.72 46.1066 16.96C46.1866 17.2 46.34 17.36 46.5666 17.44C46.8066 17.52 47.1533 17.5733 47.6066 17.6V18C47.3266 17.9733 46.96 17.96 46.5066 17.96C46.0533 17.9467 45.5666 17.94 45.0466 17.94C44.5933 17.94 44.1333 17.9467 43.6666 17.96C43.2 17.96 42.8133 17.9733 42.5066 18ZM34.1466 18V17.6C34.6 17.5733 34.94 17.52 35.1666 17.44C35.4066 17.36 35.5666 17.2 35.6466 16.96C35.7266 16.72 35.7666 16.36 35.7666 15.88V5.96C35.7666 5.46667 35.7266 5.10667 35.6466 4.88C35.5666 4.64 35.4066 4.48 35.1666 4.4C34.94 4.30667 34.6 4.25333 34.1466 4.24V3.84C34.4266 3.85333 34.7933 3.86667 35.2466 3.88C35.7 3.89333 36.1866 3.9 36.7066 3.9C37.1733 3.9 37.6333 3.89333 38.0866 3.88C38.5533 3.86667 38.94 3.85333 39.2466 3.84V4.24C38.7933 4.25333 38.4466 4.30667 38.2066 4.4C37.98 4.48 37.8266 4.64 37.7466 4.88C37.6666 5.10667 37.6266 5.46667 37.6266 5.96V15.88C37.6266 16.36 37.6666 16.72 37.7466 16.96C37.8266 17.2 37.98 17.36 38.2066 17.44C38.4466 17.52 38.7933 17.5733 39.2466 17.6V18C38.94 17.9733 38.5533 17.96 38.0866 17.96C37.6333 17.9467 37.1733 17.94 36.7066 17.94C36.1866 17.94 35.7 17.9467 35.2466 17.96C34.7933 17.96 34.4266 17.9733 34.1466 18ZM36.9266 11.08V10.68H44.8266V11.08H36.9266ZM53.1618 7.42C54.0151 7.42 54.7818 7.60667 55.4618 7.98C56.1418 8.35333 56.6818 8.94 57.0818 9.74C57.4951 10.54 57.7018 11.58 57.7018 12.86C57.7018 14.14 57.4951 15.18 57.0818 15.98C56.6818 16.7667 56.1418 17.3467 55.4618 17.72C54.7818 18.0933 54.0151 18.28 53.1618 18.28C52.3218 18.28 51.5551 18.0933 50.8618 17.72C50.1818 17.3467 49.6351 16.7667 49.2218 15.98C48.8218 15.18 48.6218 14.14 48.6218 12.86C48.6218 11.58 48.8218 10.54 49.2218 9.74C49.6351 8.94 50.1818 8.35333 50.8618 7.98C51.5551 7.60667 52.3218 7.42 53.1618 7.42ZM53.1618 7.82C52.4018 7.82 51.7751 8.21333 51.2818 9C50.8018 9.78667 50.5618 11.0733 50.5618 12.86C50.5618 14.6467 50.8018 15.9333 51.2818 16.72C51.7751 17.4933 52.4018 17.88 53.1618 17.88C53.9218 17.88 54.5418 17.4933 55.0218 16.72C55.5151 15.9333 55.7618 14.6467 55.7618 12.86C55.7618 11.0733 55.5151 9.78667 55.0218 9C54.5418 8.21333 53.9218 7.82 53.1618 7.82ZM62.3888 7.42C62.9222 7.42 63.3755 7.50667 63.7488 7.68C64.1222 7.85333 64.3955 8.01333 64.5688 8.16C65.0088 8.52 65.2755 8.28 65.3688 7.44H65.8288C65.8022 7.81333 65.7822 8.26 65.7688 8.78C65.7555 9.28667 65.7488 9.97333 65.7488 10.84H65.2888C65.2088 10.3467 65.0688 9.86667 64.8688 9.4C64.6822 8.93333 64.4022 8.55333 64.0288 8.26C63.6555 7.95333 63.1688 7.8 62.5688 7.8C62.1022 7.8 61.7088 7.93333 61.3888 8.2C61.0822 8.45333 60.9288 8.83333 60.9288 9.34C60.9288 9.74 61.0488 10.0867 61.2888 10.38C61.5288 10.66 61.8422 10.9267 62.2288 11.18C62.6155 11.42 63.0355 11.6867 63.4888 11.98C63.9955 12.3 64.4555 12.6267 64.8688 12.96C65.2822 13.2933 65.6088 13.66 65.8488 14.06C66.1022 14.46 66.2288 14.9333 66.2288 15.48C66.2288 16.0933 66.0688 16.6067 65.7488 17.02C65.4288 17.4333 65.0088 17.7467 64.4888 17.96C63.9822 18.1733 63.4222 18.28 62.8088 18.28C62.5155 18.28 62.2355 18.2533 61.9688 18.2C61.7155 18.16 61.4688 18.0933 61.2288 18C61.0955 17.9333 60.9555 17.8533 60.8088 17.76C60.6755 17.6667 60.5422 17.5667 60.4088 17.46C60.2755 17.3533 60.1555 17.36 60.0488 17.48C59.9422 17.5867 59.8622 17.8067 59.8088 18.14H59.3488C59.3755 17.7133 59.3955 17.1933 59.4088 16.58C59.4222 15.9667 59.4288 15.1533 59.4288 14.14H59.8888C59.9822 14.8867 60.1155 15.54 60.2888 16.1C60.4622 16.66 60.7355 17.1 61.1088 17.42C61.4822 17.7267 62.0022 17.88 62.6688 17.88C62.9355 17.88 63.2022 17.82 63.4688 17.7C63.7488 17.58 63.9822 17.38 64.1688 17.1C64.3555 16.82 64.4488 16.4467 64.4488 15.98C64.4488 15.3933 64.2355 14.9133 63.8088 14.54C63.3822 14.1667 62.8422 13.7733 62.1888 13.36C61.7088 13.0533 61.2555 12.7467 60.8288 12.44C60.4155 12.1333 60.0755 11.7867 59.8088 11.4C59.5555 11.0133 59.4288 10.5467 59.4288 10C59.4288 9.4 59.5622 8.91333 59.8288 8.54C60.1088 8.15333 60.4755 7.87333 60.9288 7.7C61.3822 7.51333 61.8688 7.42 62.3888 7.42ZM70.5241 7.48V19.76C70.5241 20.3333 70.6908 20.7133 71.0241 20.9C71.3708 21.1 71.8441 21.2 72.4441 21.2V21.62C72.1508 21.6067 71.7441 21.5867 71.2241 21.56C70.7041 21.5467 70.1508 21.54 69.5641 21.54C69.1508 21.54 68.7375 21.5467 68.3241 21.56C67.9241 21.5867 67.6175 21.6067 67.4041 21.62V21.2C67.8841 21.2 68.2241 21.1133 68.4241 20.94C68.6241 20.7667 68.7241 20.44 68.7241 19.96V9.88C68.7241 9.28 68.6175 8.84 68.4041 8.56C68.1908 8.26667 67.7908 8.12 67.2041 8.12V7.7C67.6308 7.74 68.0441 7.76 68.4441 7.76C68.8308 7.76 69.1975 7.74 69.5441 7.7C69.9041 7.64667 70.2308 7.57333 70.5241 7.48ZM73.7241 7.42C74.4308 7.42 75.0641 7.61333 75.6241 8C76.1841 8.37333 76.6241 8.92667 76.9441 9.66C77.2775 10.3933 77.4441 11.3 77.4441 12.38C77.4441 13.1 77.3575 13.8133 77.1841 14.52C77.0108 15.2133 76.7375 15.8467 76.3641 16.42C76.0041 16.98 75.5308 17.4333 74.9441 17.78C74.3708 18.1133 73.6775 18.28 72.8641 18.28C72.2375 18.28 71.6908 18.1333 71.2241 17.84C70.7708 17.5467 70.4641 17.1933 70.3041 16.78L70.5041 16.5C70.6908 16.8733 70.9575 17.1867 71.3041 17.44C71.6641 17.6933 72.1108 17.82 72.6441 17.82C73.3908 17.82 73.9708 17.5867 74.3841 17.12C74.7975 16.6533 75.0841 16.0333 75.2441 15.26C75.4175 14.4733 75.5041 13.6067 75.5041 12.66C75.5041 11.5933 75.4175 10.72 75.2441 10.04C75.0708 9.36 74.8108 8.85333 74.4641 8.52C74.1175 8.18667 73.6908 8.02 73.1841 8.02C72.5308 8.02 71.9375 8.29333 71.4041 8.84C70.8708 9.37333 70.5308 10.1867 70.3841 11.28L70.1441 11C70.2908 9.86667 70.6908 8.98667 71.3441 8.36C72.0108 7.73333 72.8041 7.42 73.7241 7.42ZM80.8352 2.7C81.1819 2.7 81.4819 2.82667 81.7352 3.08C81.9886 3.33333 82.1152 3.63333 82.1152 3.98C82.1152 4.32667 81.9886 4.62667 81.7352 4.88C81.4819 5.13333 81.1819 5.26 80.8352 5.26C80.4886 5.26 80.1886 5.13333 79.9352 4.88C79.6819 4.62667 79.5552 4.32667 79.5552 3.98C79.5552 3.63333 79.6819 3.33333 79.9352 3.08C80.1886 2.82667 80.4886 2.7 80.8352 2.7ZM81.8752 7.48V16.14C81.8752 16.7 81.9886 17.08 82.2152 17.28C82.4552 17.48 82.8486 17.58 83.3952 17.58V18C83.1686 17.9867 82.8219 17.9733 82.3552 17.96C81.9019 17.9333 81.4419 17.92 80.9752 17.92C80.5219 17.92 80.0619 17.9333 79.5952 17.96C79.1286 17.9733 78.7819 17.9867 78.5552 18V17.58C79.1019 17.58 79.4886 17.48 79.7152 17.28C79.9552 17.08 80.0752 16.7 80.0752 16.14V9.88C80.0752 9.28 79.9686 8.84 79.7552 8.56C79.5419 8.26667 79.1419 8.12 78.5552 8.12V7.7C78.9819 7.74 79.3952 7.76 79.7952 7.76C80.1819 7.76 80.5486 7.74 80.8952 7.7C81.2552 7.64667 81.5819 7.57333 81.8752 7.48ZM87.2246 4.38V7.72H90.1846V8.12H87.2246V15.86C87.2246 16.4867 87.3379 16.9267 87.5646 17.18C87.7913 17.4333 88.1046 17.56 88.5046 17.56C88.9046 17.56 89.2513 17.4 89.5446 17.08C89.8379 16.7467 90.0913 16.1933 90.3046 15.42L90.7046 15.52C90.5713 16.2933 90.3046 16.9467 89.9046 17.48C89.5179 18.0133 88.9179 18.28 88.1046 18.28C87.6513 18.28 87.2779 18.22 86.9846 18.1C86.6913 17.9933 86.4313 17.8333 86.2046 17.62C85.9113 17.3133 85.7046 16.9467 85.5846 16.52C85.4779 16.0933 85.4246 15.5267 85.4246 14.82V8.12H83.5046V7.72H85.4246V4.66C85.7579 4.64667 86.0779 4.62 86.3846 4.58C86.6913 4.54 86.9713 4.47333 87.2246 4.38ZM93.5049 18.14C92.9583 18.14 92.4849 18.04 92.0849 17.84C91.6849 17.6267 91.3783 17.3333 91.1649 16.96C90.9649 16.5867 90.8649 16.1533 90.8649 15.66C90.8649 15.0733 90.9983 14.5933 91.2649 14.22C91.5449 13.8467 91.8983 13.5467 92.3249 13.32C92.7516 13.0933 93.1983 12.9067 93.6649 12.76C94.1449 12.6 94.5983 12.4533 95.0249 12.32C95.4516 12.1733 95.7983 12.0067 96.0649 11.82C96.3449 11.6333 96.4849 11.3867 96.4849 11.08V9.84C96.4849 9.28 96.3983 8.85333 96.2249 8.56C96.0649 8.26667 95.8449 8.07333 95.5649 7.98C95.2849 7.87333 94.9716 7.82 94.6249 7.82C94.2916 7.82 93.9316 7.86667 93.5449 7.96C93.1716 8.05333 92.8716 8.24667 92.6449 8.54C92.8983 8.59333 93.1183 8.72667 93.3049 8.94C93.4916 9.15333 93.5849 9.42667 93.5849 9.76C93.5849 10.0933 93.4783 10.36 93.2649 10.56C93.0516 10.7467 92.7783 10.84 92.4449 10.84C92.0583 10.84 91.7716 10.72 91.5849 10.48C91.4116 10.2267 91.3249 9.94667 91.3249 9.64C91.3249 9.29333 91.4116 9.01333 91.5849 8.8C91.7583 8.58667 91.9783 8.38667 92.2449 8.2C92.5516 7.98667 92.9449 7.80667 93.4249 7.66C93.9183 7.5 94.4716 7.42 95.0849 7.42C95.6316 7.42 96.0983 7.48667 96.4849 7.62C96.8716 7.74 97.1916 7.92 97.4449 8.16C97.7916 8.48 98.0183 8.87333 98.1249 9.34C98.2316 9.79333 98.2849 10.34 98.2849 10.98V16.54C98.2849 16.8733 98.3316 17.1133 98.4249 17.26C98.5316 17.4067 98.6916 17.48 98.9049 17.48C99.0516 17.48 99.1916 17.4467 99.3249 17.38C99.4583 17.3133 99.6183 17.2067 99.8049 17.06L100.025 17.4C99.7449 17.6133 99.4783 17.7933 99.2249 17.94C98.9716 18.0733 98.6316 18.14 98.2049 18.14C97.8183 18.14 97.4983 18.0733 97.2449 17.94C96.9916 17.8067 96.7983 17.6133 96.6649 17.36C96.5449 17.0933 96.4849 16.76 96.4849 16.36C96.1249 16.96 95.6916 17.4067 95.1849 17.7C94.6916 17.9933 94.1316 18.14 93.5049 18.14ZM94.2249 17.34C94.6649 17.34 95.0716 17.2133 95.4449 16.96C95.8316 16.7067 96.1783 16.3267 96.4849 15.82V11.9C96.3249 12.1267 96.0916 12.32 95.7849 12.48C95.4783 12.6267 95.1449 12.78 94.7849 12.94C94.4249 13.0867 94.0783 13.2667 93.7449 13.48C93.4249 13.68 93.1583 13.9467 92.9449 14.28C92.7316 14.6133 92.6249 15.0467 92.6249 15.58C92.6249 16.1133 92.7649 16.54 93.0449 16.86C93.3383 17.18 93.7316 17.34 94.2249 17.34ZM103.396 2.32V16.14C103.396 16.7 103.509 17.08 103.736 17.28C103.976 17.48 104.369 17.58 104.916 17.58V18C104.689 17.9867 104.343 17.9733 103.876 17.96C103.423 17.9333 102.963 17.92 102.496 17.92C102.043 17.92 101.583 17.9333 101.116 17.96C100.649 17.9733 100.303 17.9867 100.076 18V17.58C100.623 17.58 101.009 17.48 101.236 17.28C101.476 17.08 101.596 16.7 101.596 16.14V4.72C101.596 4.12 101.489 3.68 101.276 3.4C101.063 3.10667 100.663 2.96 100.076 2.96V2.54C100.503 2.58 100.916 2.6 101.316 2.6C101.703 2.6 102.069 2.58 102.416 2.54C102.776 2.48667 103.103 2.41333 103.396 2.32ZM110.193 7.42C111.367 7.42 112.28 7.78 112.933 8.5C113.6 9.20667 113.933 10.3133 113.933 11.82H106.873L106.853 11.44H112.013C112.04 10.7867 111.987 10.1867 111.853 9.64C111.72 9.08 111.507 8.63333 111.213 8.3C110.933 7.96667 110.567 7.8 110.113 7.8C109.5 7.8 108.953 8.10667 108.473 8.72C108.007 9.33333 107.727 10.3067 107.633 11.64L107.693 11.72C107.667 11.92 107.647 12.14 107.633 12.38C107.62 12.62 107.613 12.86 107.613 13.1C107.613 14.0067 107.76 14.7867 108.053 15.44C108.347 16.0933 108.727 16.5933 109.193 16.94C109.673 17.2733 110.167 17.44 110.673 17.44C111.073 17.44 111.453 17.38 111.813 17.26C112.173 17.1267 112.507 16.9133 112.813 16.62C113.12 16.3267 113.387 15.9333 113.613 15.44L114.013 15.6C113.867 16.04 113.627 16.4667 113.293 16.88C112.96 17.2933 112.54 17.6333 112.033 17.9C111.527 18.1533 110.94 18.28 110.273 18.28C109.313 18.28 108.487 18.06 107.793 17.62C107.113 17.18 106.587 16.5733 106.213 15.8C105.853 15.0133 105.673 14.1133 105.673 13.1C105.673 11.9267 105.86 10.92 106.233 10.08C106.607 9.22667 107.133 8.57333 107.813 8.12C108.493 7.65333 109.287 7.42 110.193 7.42Z" fill="#191824"/>
</svg>
