<svg viewBox="0 0 83 24" fill="none" xmlns="http://www.w3.org/2000/svg">
<g clip-path="url(#clip0_842_2739)">
<path d="M0.0742188 21.4279H10.0485C14.8306 21.4279 17.29 18.9513 17.29 15.7867C17.29 13.8053 16.3882 12.622 15.4318 11.9616C14.8853 11.5763 14.2841 11.3011 13.6009 11.1085V10.9709C14.1475 10.8058 14.6393 10.5581 15.1039 10.2279C15.8417 9.65006 16.6068 8.63188 16.6068 6.98076C16.6068 4.36651 14.3934 2.16504 10.3217 2.16504H0.0742188V21.4279ZM5.12965 9.59501V6.29281H9.22866C10.6223 6.29281 11.2781 6.98076 11.2781 7.94389C11.2781 8.90706 10.6223 9.59501 9.22866 9.59501H5.12965ZM5.12965 17.3002V13.4476H9.50193C11.2781 13.4476 12.098 14.2731 12.098 15.3739C12.098 16.4746 11.2781 17.3002 9.50193 17.3002H5.12965Z" fill="#171717"/>
<path d="M18.3945 11.7969C18.3945 17.5758 22.7668 21.9787 29.0519 21.9787C33.2056 21.9787 35.747 19.9974 37.2225 17.9886C38.0971 16.8328 38.753 15.5119 39.1628 13.9984H33.9709C33.7795 14.6313 33.4515 15.1817 33.0416 15.6495C32.3038 16.5026 31.1288 17.3006 29.0519 17.3006C25.9094 17.3006 23.7232 15.0991 23.7232 11.7969C23.7232 8.49473 25.9094 6.29325 29.0519 6.29325C30.9102 6.29325 32.0852 7.00873 32.823 7.75173C33.2602 8.1645 33.5882 8.65984 33.8341 9.18268H39.0263C38.6435 7.77925 38.0152 6.54091 37.1679 5.41266C35.7197 3.5414 33.1783 1.61511 29.0519 1.61511C22.7668 1.61511 18.3945 6.01807 18.3945 11.7969Z" fill="#171717"/>
<path d="M40.9463 21.4279H46.0017V10.4206L45.5919 7.94389H45.8652L49.5543 17.025H55.1561L58.8452 7.94389H59.1185L58.7087 10.4206V21.4279H63.7642V2.16504H56.6593L52.6968 12.0717H52.0136L48.0512 2.16504H40.9463V21.4279Z" fill="#171717"/>
<path d="M65.3975 15.2367C65.7527 16.5026 66.2993 17.6308 67.0644 18.6215C68.3761 20.3001 70.6443 21.9787 74.5518 21.9787C79.9898 21.9787 82.7497 18.9517 82.7497 15.6495C82.7497 11.3016 78.2956 10.2834 75.0163 9.48539C72.9941 9.01757 71.4094 8.49473 71.4094 7.39397C71.4094 6.70602 72.0652 6.01807 74.0052 6.01807C75.3991 6.01807 76.1642 6.43084 76.6013 6.84361C76.8473 7.09127 77.0384 7.36645 77.148 7.66915H82.3399C82.0939 6.54091 81.6294 5.52272 80.9463 4.64214C79.7987 3.12863 77.6943 1.61511 74.0052 1.61511C68.9774 1.61511 66.0806 4.47703 66.0806 7.66915C66.0806 11.164 68.8951 12.4849 71.7646 13.2829C74.6064 14.0259 77.4213 14.4662 77.4213 15.9247C77.4213 16.7778 76.6013 17.5758 74.5518 17.5758C72.9122 17.5758 71.9011 16.9979 71.3275 16.42C70.9996 16.0898 70.7535 15.7045 70.5894 15.2367H65.3975Z" fill="#171717"/>
</g>
<defs>
<clipPath id="clip0_842_2739">
<rect width="82.9091" height="24" fill="white"/>
</clipPath>
</defs>
</svg>
