<svg viewBox="0 0 14 14" fill="none" xmlns="http://www.w3.org/2000/svg">
<path d="M1.75 5.83333C1.75 6.36956 1.85562 6.90054 2.06083 7.39596C2.26603 7.89137 2.56681 8.34151 2.94598 8.72069C3.32515 9.09986 3.7753 9.40063 4.27071 9.60584C4.76612 9.81105 5.2971 9.91667 5.83333 9.91667C6.36956 9.91667 6.90054 9.81105 7.39596 9.60584C7.89137 9.40063 8.34151 9.09986 8.72069 8.72069C9.09986 8.34151 9.40063 7.89137 9.60584 7.39596C9.81105 6.90054 9.91667 6.36956 9.91667 5.83333C9.91667 5.2971 9.81105 4.76612 9.60584 4.27071C9.40063 3.7753 9.09986 3.32515 8.72069 2.94598C8.34151 2.56681 7.89137 2.26603 7.39596 2.06083C6.90054 1.85562 6.36956 1.75 5.83333 1.75C5.2971 1.75 4.76612 1.85562 4.27071 2.06083C3.7753 2.26603 3.32515 2.56681 2.94598 2.94598C2.56681 3.32515 2.26603 3.7753 2.06083 4.27071C1.85562 4.76612 1.75 5.2971 1.75 5.83333Z" stroke="#191824" stroke-width="1.5" stroke-linecap="round" stroke-linejoin="round"/>
<path d="M12.25 12.25L8.75 8.75" stroke="#191824" stroke-width="1.5" stroke-linecap="round" stroke-linejoin="round"/>
</svg>
