<svg width="138" height="20" viewBox="0 0 138 20" fill="none" xmlns="http://www.w3.org/2000/svg">
<path d="M15.6619 7.43466H12.4744C12.3835 6.91193 12.2159 6.44886 11.9716 6.04545C11.7273 5.63636 11.4233 5.28977 11.0597 5.00568C10.696 4.72159 10.2813 4.50852 9.81534 4.36648C9.35511 4.21875 8.85795 4.14489 8.32386 4.14489C7.375 4.14489 6.53409 4.38352 5.80114 4.86079C5.06818 5.33239 4.49432 6.02557 4.07955 6.94034C3.66477 7.84943 3.45739 8.96023 3.45739 10.2727C3.45739 11.608 3.66477 12.733 4.07955 13.6477C4.5 14.5568 5.07386 15.2443 5.80114 15.7102C6.53409 16.1705 7.37216 16.4006 8.31534 16.4006C8.83807 16.4006 9.3267 16.3324 9.78125 16.196C10.2415 16.054 10.6534 15.8466 11.017 15.5739C11.3864 15.3011 11.696 14.9659 11.946 14.5682C12.2017 14.1705 12.3778 13.7159 12.4744 13.2045L15.6619 13.2216C15.5426 14.0511 15.2841 14.8295 14.8864 15.5568C14.4943 16.2841 13.9801 16.9261 13.3438 17.483C12.7074 18.0341 11.9631 18.4659 11.1108 18.7784C10.2585 19.0852 9.3125 19.2386 8.27273 19.2386C6.73864 19.2386 5.36932 18.8835 4.16477 18.1733C2.96023 17.4631 2.01136 16.4375 1.31818 15.0966C0.625 13.7557 0.278409 12.1477 0.278409 10.2727C0.278409 8.39205 0.627841 6.78409 1.3267 5.44886C2.02557 4.10795 2.97727 3.08239 4.18182 2.37216C5.38636 1.66193 6.75 1.30682 8.27273 1.30682C9.24432 1.30682 10.1477 1.44318 10.983 1.71591C11.8182 1.98864 12.5625 2.3892 13.2159 2.91761C13.8693 3.44034 14.4063 4.08239 14.8267 4.84375C15.2528 5.59943 15.5313 6.46307 15.6619 7.43466ZM33.7441 10.2727C33.7441 12.1534 33.3918 13.7642 32.6873 15.1051C31.9884 16.4403 31.0339 17.4631 29.8237 18.1733C28.6191 18.8835 27.2526 19.2386 25.7242 19.2386C24.1958 19.2386 22.8265 18.8835 21.6163 18.1733C20.4117 17.4574 19.4572 16.4318 18.7526 15.0966C18.0538 13.7557 17.7043 12.1477 17.7043 10.2727C17.7043 8.39205 18.0538 6.78409 18.7526 5.44886C19.4572 4.10795 20.4117 3.08239 21.6163 2.37216C22.8265 1.66193 24.1958 1.30682 25.7242 1.30682C27.2526 1.30682 28.6191 1.66193 29.8237 2.37216C31.0339 3.08239 31.9884 4.10795 32.6873 5.44886C33.3918 6.78409 33.7441 8.39205 33.7441 10.2727ZM30.5651 10.2727C30.5651 8.94886 30.3578 7.83239 29.943 6.92329C29.5339 6.00852 28.9657 5.31818 28.2384 4.85227C27.5112 4.38068 26.6731 4.14489 25.7242 4.14489C24.7754 4.14489 23.9373 4.38068 23.21 4.85227C22.4828 5.31818 21.9117 6.00852 21.497 6.92329C21.0879 7.83239 20.8833 8.94886 20.8833 10.2727C20.8833 11.5966 21.0879 12.7159 21.497 13.6307C21.9117 14.5398 22.4828 15.2301 23.21 15.7017C23.9373 16.1676 24.7754 16.4006 25.7242 16.4006C26.6731 16.4006 27.5112 16.1676 28.2384 15.7017C28.9657 15.2301 29.5339 14.5398 29.943 13.6307C30.3578 12.7159 30.5651 11.5966 30.5651 10.2727ZM50.6672 1.54545V19H47.8547L39.6303 7.1108H39.4854V19H36.3235V1.54545H39.153L47.3689 13.4432H47.5223V1.54545H50.6672ZM60.1968 5.90909V8.29545H52.4582V5.90909H60.1968ZM54.3929 19V4.67329C54.3929 3.79261 54.5747 3.05966 54.9383 2.47443C55.3076 1.8892 55.802 1.4517 56.4213 1.16193C57.0406 0.872158 57.7281 0.727272 58.4838 0.727272C59.0179 0.727272 59.4923 0.769886 59.9071 0.855114C60.3218 0.940341 60.6287 1.01705 60.8275 1.08523L60.2139 3.47159C60.0832 3.43182 59.9184 3.39204 59.7196 3.35227C59.5207 3.30682 59.2991 3.28409 59.0548 3.28409C58.4809 3.28409 58.0747 3.4233 57.8361 3.7017C57.6031 3.97443 57.4866 4.36648 57.4866 4.87784V19H54.3929ZM67.5063 19.2557C66.1938 19.2557 65.0603 18.983 64.1057 18.4375C63.1569 17.8864 62.4268 17.108 61.9154 16.1023C61.404 15.0909 61.1484 13.9006 61.1484 12.5312C61.1484 11.1847 61.404 10.0028 61.9154 8.9858C62.4324 7.96307 63.154 7.16761 64.0802 6.59943C65.0063 6.02557 66.0944 5.73864 67.3444 5.73864C68.1512 5.73864 68.9126 5.86932 69.6285 6.13068C70.3501 6.38636 70.9864 6.78409 71.5376 7.32386C72.0944 7.86364 72.5319 8.55114 72.8501 9.38636C73.1682 10.2159 73.3273 11.2045 73.3273 12.3523V13.2983H62.5972V11.2188H70.3699C70.3643 10.6278 70.2364 10.1023 69.9864 9.64205C69.7364 9.17614 69.387 8.80966 68.9381 8.54261C68.4949 8.27557 67.9779 8.14205 67.387 8.14205C66.7563 8.14205 66.2023 8.29545 65.7251 8.60227C65.2478 8.90341 64.8756 9.30114 64.6086 9.79545C64.3472 10.2841 64.2137 10.821 64.208 11.4062V13.2216C64.208 13.983 64.3472 14.6364 64.6256 15.1818C64.904 15.7216 65.2932 16.1364 65.7932 16.4261C66.2932 16.7102 66.8785 16.8523 67.5489 16.8523C67.9978 16.8523 68.404 16.7898 68.7677 16.6648C69.1313 16.5341 69.4466 16.3438 69.7137 16.0938C69.9807 15.8438 70.1824 15.5341 70.3188 15.1648L73.1995 15.4886C73.0177 16.25 72.6711 16.9148 72.1597 17.483C71.654 18.0455 71.0063 18.483 70.2165 18.7955C69.4268 19.1023 68.5234 19.2557 67.5063 19.2557ZM75.5274 19V5.90909H78.5189V8.09091H78.6553C78.8939 7.33523 79.303 6.75284 79.8825 6.34375C80.4678 5.92898 81.1354 5.72159 81.8854 5.72159C82.0558 5.72159 82.2462 5.73011 82.4564 5.74716C82.6723 5.75852 82.8513 5.77841 82.9933 5.80682V8.64489C82.8626 8.59943 82.6553 8.55966 82.3712 8.52557C82.0928 8.4858 81.8229 8.46591 81.5615 8.46591C80.999 8.46591 80.4933 8.58807 80.0445 8.83239C79.6013 9.07102 79.2518 9.40341 78.9962 9.82955C78.7405 10.2557 78.6126 10.7472 78.6126 11.304V19H75.5274ZM89.8894 19.2557C88.5769 19.2557 87.4434 18.983 86.4889 18.4375C85.54 17.8864 84.8099 17.108 84.2985 16.1023C83.7872 15.0909 83.5315 13.9006 83.5315 12.5312C83.5315 11.1847 83.7872 10.0028 84.2985 8.9858C84.8156 7.96307 85.5372 7.16761 86.4633 6.59943C87.3894 6.02557 88.4775 5.73864 89.7275 5.73864C90.5343 5.73864 91.2957 5.86932 92.0116 6.13068C92.7332 6.38636 93.3695 6.78409 93.9207 7.32386C94.4775 7.86364 94.915 8.55114 95.2332 9.38636C95.5514 10.2159 95.7105 11.2045 95.7105 12.3523V13.2983H84.9803V11.2188H92.7531C92.7474 10.6278 92.6195 10.1023 92.3695 9.64205C92.1195 9.17614 91.7701 8.80966 91.3213 8.54261C90.8781 8.27557 90.361 8.14205 89.7701 8.14205C89.1394 8.14205 88.5855 8.29545 88.1082 8.60227C87.6309 8.90341 87.2588 9.30114 86.9917 9.79545C86.7303 10.2841 86.5968 10.821 86.5911 11.4062V13.2216C86.5911 13.983 86.7303 14.6364 87.0088 15.1818C87.2872 15.7216 87.6764 16.1364 88.1764 16.4261C88.6764 16.7102 89.2616 16.8523 89.932 16.8523C90.3809 16.8523 90.7872 16.7898 91.1508 16.6648C91.5144 16.5341 91.8298 16.3438 92.0968 16.0938C92.3639 15.8438 92.5656 15.5341 92.7019 15.1648L95.5826 15.4886C95.4008 16.25 95.0542 16.9148 94.5428 17.483C94.0372 18.0455 93.3894 18.483 92.5997 18.7955C91.8099 19.1023 90.9065 19.2557 89.8894 19.2557ZM100.996 11.3295V19H97.9105V5.90909H100.859V8.13352H101.013C101.314 7.40057 101.794 6.81818 102.453 6.38636C103.118 5.95455 103.939 5.73864 104.916 5.73864C105.82 5.73864 106.607 5.93182 107.277 6.31818C107.953 6.70455 108.476 7.2642 108.845 7.99716C109.22 8.73011 109.405 9.61932 109.399 10.6648V19H106.314V11.142C106.314 10.267 106.087 9.58239 105.632 9.08807C105.183 8.59375 104.561 8.34659 103.766 8.34659C103.226 8.34659 102.746 8.46591 102.325 8.70455C101.911 8.9375 101.584 9.27557 101.345 9.71875C101.112 10.1619 100.996 10.6989 100.996 11.3295ZM117.836 19.2557C116.529 19.2557 115.407 18.9688 114.469 18.3949C113.537 17.821 112.819 17.0284 112.313 16.017C111.813 15 111.563 13.8295 111.563 12.5057C111.563 11.1761 111.819 10.0028 112.33 8.9858C112.841 7.96307 113.563 7.16761 114.495 6.59943C115.432 6.02557 116.54 5.73864 117.819 5.73864C118.881 5.73864 119.822 5.93466 120.64 6.3267C121.464 6.71307 122.12 7.26136 122.608 7.97159C123.097 8.67614 123.376 9.5 123.444 10.4432H120.495C120.376 9.8125 120.091 9.28693 119.643 8.86648C119.199 8.44034 118.606 8.22727 117.861 8.22727C117.231 8.22727 116.677 8.39773 116.199 8.73864C115.722 9.07386 115.35 9.55682 115.083 10.1875C114.822 10.8182 114.691 11.5739 114.691 12.4545C114.691 13.3466 114.822 14.1136 115.083 14.7557C115.344 15.392 115.711 15.8835 116.182 16.2301C116.66 16.571 117.219 16.7415 117.861 16.7415C118.316 16.7415 118.722 16.6562 119.08 16.4858C119.444 16.3097 119.748 16.0568 119.992 15.7273C120.236 15.3977 120.404 14.9972 120.495 14.5256H123.444C123.37 15.4517 123.097 16.2727 122.626 16.9886C122.154 17.6989 121.512 18.2557 120.699 18.6591C119.887 19.0568 118.932 19.2557 117.836 19.2557ZM131.363 19.2557C130.05 19.2557 128.917 18.983 127.962 18.4375C127.013 17.8864 126.283 17.108 125.772 16.1023C125.26 15.0909 125.005 13.9006 125.005 12.5312C125.005 11.1847 125.26 10.0028 125.772 8.9858C126.289 7.96307 127.01 7.16761 127.936 6.59943C128.863 6.02557 129.951 5.73864 131.201 5.73864C132.007 5.73864 132.769 5.86932 133.485 6.13068C134.206 6.38636 134.843 6.78409 135.394 7.32386C135.951 7.86364 136.388 8.55114 136.706 9.38636C137.024 10.2159 137.184 11.2045 137.184 12.3523V13.2983H126.453V11.2188H134.226C134.221 10.6278 134.093 10.1023 133.843 9.64205C133.593 9.17614 133.243 8.80966 132.794 8.54261C132.351 8.27557 131.834 8.14205 131.243 8.14205C130.613 8.14205 130.059 8.29545 129.581 8.60227C129.104 8.90341 128.732 9.30114 128.465 9.79545C128.203 10.2841 128.07 10.821 128.064 11.4062V13.2216C128.064 13.983 128.203 14.6364 128.482 15.1818C128.76 15.7216 129.149 16.1364 129.649 16.4261C130.149 16.7102 130.735 16.8523 131.405 16.8523C131.854 16.8523 132.26 16.7898 132.624 16.6648C132.988 16.5341 133.303 16.3438 133.57 16.0938C133.837 15.8438 134.039 15.5341 134.175 15.1648L137.056 15.4886C136.874 16.25 136.527 16.9148 136.016 17.483C135.51 18.0455 134.863 18.483 134.073 18.7955C133.283 19.1023 132.38 19.2557 131.363 19.2557Z" fill="black"/>
</svg>
