<svg viewBox="0 0 378 107" fill="none" xmlns="http://www.w3.org/2000/svg">
<path d="M23.6172 0.710938H43.6562L73.3281 88.0391L102.789 0.710938H122.617V104H109.328V43.0391C109.328 40.9297 109.375 37.4375 109.469 32.5625C109.562 27.6875 109.609 22.4609 109.609 16.8828L80.1484 104H66.2969L36.625 16.8828V20.0469C36.625 22.5781 36.6719 26.4453 36.7656 31.6484C36.9062 36.8047 36.9766 40.6016 36.9766 43.0391V104H23.6172V0.710938Z" fill="white"/>
<rect y="1" width="24" height="103" fill="white"/>
<path d="M176.164 95.8438C184.555 95.8438 190.297 92.6797 193.391 86.3516C196.531 79.9766 198.102 72.8984 198.102 65.1172C198.102 58.0859 196.977 52.3672 194.727 47.9609C191.164 41.0234 185.023 37.5547 176.305 37.5547C168.57 37.5547 162.945 40.5078 159.43 46.4141C155.914 52.3203 154.156 59.4453 154.156 67.7891C154.156 75.8047 155.914 82.4844 159.43 87.8281C162.945 93.1719 168.523 95.8438 176.164 95.8438ZM176.656 26.5156C186.359 26.5156 194.562 29.75 201.266 36.2188C207.969 42.6875 211.32 52.2031 211.32 64.7656C211.32 76.9062 208.367 86.9375 202.461 94.8594C196.555 102.781 187.391 106.742 174.969 106.742C164.609 106.742 156.383 103.25 150.289 96.2656C144.195 89.2344 141.148 79.8125 141.148 68C141.148 55.3438 144.359 45.2656 150.781 37.7656C157.203 30.2656 165.828 26.5156 176.656 26.5156ZM234.453 67.2266C234.453 75.2891 236.164 82.0391 239.586 87.4766C243.008 92.9141 248.492 95.6328 256.039 95.6328C261.898 95.6328 266.703 93.125 270.453 88.1094C274.25 83.0469 276.148 75.8047 276.148 66.3828C276.148 56.8672 274.203 49.8359 270.312 45.2891C266.422 40.6953 261.617 38.3984 255.898 38.3984C249.523 38.3984 244.344 40.8359 240.359 45.7109C236.422 50.5859 234.453 57.7578 234.453 67.2266ZM253.508 27.3594C259.273 27.3594 264.102 28.5781 267.992 31.0156C270.242 32.4219 272.797 34.8828 275.656 38.3984V0.359375H287.82V104H276.43V93.5234C273.477 98.1641 269.984 101.516 265.953 103.578C261.922 105.641 257.305 106.672 252.102 106.672C243.711 106.672 236.445 103.156 230.305 96.125C224.164 89.0469 221.094 79.6484 221.094 67.9297C221.094 56.9609 223.883 47.4688 229.461 39.4531C235.086 31.3906 243.102 27.3594 253.508 27.3594ZM316.297 83.9609C316.297 87.6172 317.633 90.5 320.305 92.6094C322.977 94.7188 326.141 95.7734 329.797 95.7734C334.25 95.7734 338.562 94.7422 342.734 92.6797C349.766 89.2578 353.281 83.6562 353.281 75.875V65.6797C351.734 66.6641 349.742 67.4844 347.305 68.1406C344.867 68.7969 342.477 69.2656 340.133 69.5469L332.469 70.5312C327.875 71.1406 324.43 72.1016 322.133 73.4141C318.242 75.6172 316.297 79.1328 316.297 83.9609ZM346.953 58.3672C349.859 57.9922 351.805 56.7734 352.789 54.7109C353.352 53.5859 353.633 51.9688 353.633 49.8594C353.633 45.5469 352.086 42.4297 348.992 40.5078C345.945 38.5391 341.562 37.5547 335.844 37.5547C329.234 37.5547 324.547 39.3359 321.781 42.8984C320.234 44.8672 319.227 47.7969 318.758 51.6875H306.945C307.18 42.4062 310.18 35.9609 315.945 32.3516C321.758 28.6953 328.484 26.8672 336.125 26.8672C344.984 26.8672 352.18 28.5547 357.711 31.9297C363.195 35.3047 365.938 40.5547 365.938 47.6797V91.0625C365.938 92.375 366.195 93.4297 366.711 94.2266C367.273 95.0234 368.422 95.4219 370.156 95.4219C370.719 95.4219 371.352 95.3984 372.055 95.3516C372.758 95.2578 373.508 95.1406 374.305 95V104.352C372.336 104.914 370.836 105.266 369.805 105.406C368.773 105.547 367.367 105.617 365.586 105.617C361.227 105.617 358.062 104.07 356.094 100.977C355.062 99.3359 354.336 97.0156 353.914 94.0156C351.336 97.3906 347.633 100.32 342.805 102.805C337.977 105.289 332.656 106.531 326.844 106.531C319.859 106.531 314.141 104.422 309.688 100.203C305.281 95.9375 303.078 90.6172 303.078 84.2422C303.078 77.2578 305.258 71.8438 309.617 68C313.977 64.1562 319.695 61.7891 326.773 60.8984L346.953 58.3672Z" fill="white"/>
</svg>
