<svg width="18" height="18" viewBox="0 0 18 18" fill="none" xmlns="http://www.w3.org/2000/svg">
<path d="M1.5001 17.0622C1.3501 17.0622 1.20758 17.0022 1.10258 16.8972C0.960082 16.7547 0.900118 16.5447 0.952618 16.3497L1.89763 12.8172C1.26763 11.6472 0.937604 10.3272 0.937604 8.99219C0.937604 4.54469 4.5526 0.929688 9.0001 0.929688C13.4476 0.929688 17.0626 4.54469 17.0626 8.99219C17.0626 13.4397 13.4476 17.0547 9.0001 17.0547C7.6426 17.0547 6.31512 16.7172 5.13012 16.0722L1.65011 17.0397C1.59761 17.0547 1.5526 17.0622 1.5001 17.0622ZM5.20511 14.9097C5.30261 14.9097 5.40011 14.9397 5.49011 14.9847C6.54761 15.6072 7.7626 15.9372 9.0001 15.9372C12.8251 15.9372 15.9376 12.8247 15.9376 8.99969C15.9376 5.1747 12.8251 2.06219 9.0001 2.06219C5.1751 2.06219 2.0626 5.1747 2.0626 8.99969C2.0626 10.2222 2.3851 11.4147 2.9926 12.4647C3.0676 12.5922 3.09011 12.7497 3.05261 12.8922L2.30261 15.6972L5.0626 14.9322C5.1076 14.9172 5.16011 14.9097 5.20511 14.9097Z" fill="#686473"/>
<path d="M11.0552 13.3202C10.5902 13.3202 10.1102 13.2152 9.60768 12.9977C9.13518 12.7952 8.66268 12.5252 8.20518 12.1877C7.75518 11.8577 7.3127 11.4827 6.9077 11.0777C6.5027 10.6652 6.12767 10.2302 5.79767 9.78022C5.46017 9.30772 5.19016 8.84271 4.99516 8.38521C4.78516 7.89021 4.68018 7.40271 4.68018 6.93771C4.68018 6.60771 4.74016 6.29271 4.85266 6.00021C4.97266 5.69271 5.16767 5.41521 5.42267 5.17521C5.90267 4.70271 6.5927 4.53023 7.1402 4.79273C7.3277 4.87523 7.48519 5.01022 7.60519 5.19022L8.47517 6.41271C8.56517 6.53271 8.6327 6.66021 8.6852 6.78771C8.7452 6.93771 8.7827 7.08773 8.7827 7.23023C8.7827 7.42523 8.73018 7.62023 8.62518 7.79273C8.55768 7.90523 8.46017 8.04023 8.33267 8.16773L8.23517 8.27271C8.28017 8.33271 8.33266 8.4077 8.41516 8.4977C8.57266 8.6777 8.74516 8.8727 8.93266 9.0602C9.12016 9.2402 9.30766 9.42021 9.49516 9.57771C9.58516 9.65271 9.6602 9.71271 9.7202 9.75021L9.82516 9.6452C9.96017 9.5102 10.0952 9.40522 10.2302 9.33772C10.4777 9.18022 10.8602 9.14272 11.1977 9.28522C11.3177 9.33022 11.4377 9.39771 11.5652 9.48771L12.8177 10.3727C12.9902 10.4927 13.1252 10.6577 13.2152 10.8452C13.2902 11.0327 13.3202 11.1977 13.3202 11.3702C13.3202 11.5952 13.2677 11.8127 13.1702 12.0227C13.0727 12.2177 12.9602 12.3902 12.8252 12.5477C12.5852 12.8102 12.3077 13.0052 12.0077 13.1327C11.7077 13.2602 11.3852 13.3202 11.0552 13.3202ZM6.59267 5.80521C6.54767 5.80521 6.39771 5.80521 6.21021 5.99271C6.06771 6.12771 5.97018 6.27022 5.90268 6.42772C5.83518 6.58522 5.80518 6.76522 5.80518 6.94522C5.80518 7.26022 5.88017 7.5977 6.03017 7.9577C6.18767 8.3327 6.42018 8.73022 6.70518 9.12772C6.99768 9.52522 7.32769 9.92272 7.69519 10.2902C8.06269 10.6502 8.45268 10.9877 8.85768 11.2877C9.24768 11.5727 9.64519 11.7977 10.0427 11.9702C10.6127 12.2177 11.1377 12.2777 11.5652 12.0977C11.7152 12.0377 11.8502 11.9327 11.9852 11.7977C12.0527 11.7227 12.1052 11.6477 12.1502 11.5502C12.1727 11.4977 12.1877 11.4377 12.1877 11.3852C12.1877 11.3702 12.1877 11.3477 12.1652 11.3027L10.9127 10.4327C10.8602 10.3952 10.8077 10.3652 10.7627 10.3502C10.7327 10.3652 10.6877 10.3877 10.6052 10.4702L10.3202 10.7552C10.1027 10.9727 9.75769 11.0327 9.48019 10.9352L9.3452 10.8752C9.1727 10.7852 8.97768 10.6502 8.76018 10.4627C8.55018 10.2827 8.3477 10.0952 8.1302 9.88521C7.9202 9.66771 7.73269 9.46521 7.55269 9.25521C7.35769 9.02271 7.22269 8.83522 7.13269 8.67772L7.0502 8.48271C7.0277 8.40771 7.02017 8.32521 7.02017 8.25021C7.02017 8.04021 7.0952 7.85271 7.2377 7.70271L7.52271 7.41022C7.60521 7.32772 7.63519 7.28272 7.65019 7.25272C7.62769 7.20022 7.5977 7.15522 7.5602 7.10272L6.68266 5.86522L6.59267 5.80521Z" fill="#686473"/>
</svg>
