<svg width="16" height="16" viewBox="0 0 16 16" fill="none" xmlns="http://www.w3.org/2000/svg">
<path d="M5.89437 14C4.27687 14 2.76909 13.5295 1.5 12.7178C2.5775 12.7875 4.47903 12.6206 5.66179 11.4924C3.88254 11.4108 3.08013 10.0461 2.97547 9.46298C3.12665 9.5213 3.84765 9.59128 4.25467 9.42799C2.20795 8.91481 1.89396 7.11866 1.96374 6.57049C2.3475 6.83874 2.99873 6.93205 3.25457 6.90872C1.3474 5.54412 2.03351 3.49138 2.37076 3.04817C3.73941 4.94433 5.7906 6.00929 8.32819 6.06852C8.28034 5.85868 8.25508 5.64021 8.25508 5.41582C8.25508 3.80546 9.55671 2.5 11.1623 2.5C12.0013 2.5 12.7572 2.85638 13.2878 3.42642C13.8485 3.29505 14.6922 2.98753 15.1046 2.7216C14.8967 3.46805 14.2495 4.09075 13.858 4.32154C13.8548 4.31365 13.8612 4.32939 13.858 4.32154C14.2019 4.26952 15.1324 4.09068 15.5 3.84128C15.3182 4.26063 14.632 4.95786 14.0689 5.34821C14.1736 9.96903 10.6382 14 5.89437 14Z" fill="#47ACDF"/>
</svg>
