<svg viewBox="0 0 17 16" fill="none" xmlns="http://www.w3.org/2000/svg">
<path d="M2.93262 12.6654C2.93262 13.019 3.07309 13.3581 3.32314 13.6082C3.57319 13.8582 3.91233 13.9987 4.26595 13.9987C4.61957 13.9987 4.95871 13.8582 5.20876 13.6082C5.45881 13.3581 5.59928 13.019 5.59928 12.6654C5.59928 12.3117 5.45881 11.9726 5.20876 11.7226C4.95871 11.4725 4.61957 11.332 4.26595 11.332C3.91233 11.332 3.57319 11.4725 3.32314 11.7226C3.07309 11.9726 2.93262 12.3117 2.93262 12.6654Z" stroke="#121212" stroke-linecap="round" stroke-linejoin="round"/>
<path d="M10.2656 12.6654C10.2656 13.019 10.4061 13.3581 10.6561 13.6082C10.9062 13.8582 11.2453 13.9987 11.599 13.9987C11.9526 13.9987 12.2917 13.8582 12.5418 13.6082C12.7918 13.3581 12.9323 13.019 12.9323 12.6654C12.9323 12.3117 12.7918 11.9726 12.5418 11.7226C12.2917 11.4725 11.9526 11.332 11.599 11.332C11.2453 11.332 10.9062 11.4725 10.6561 11.7226C10.4061 11.9726 10.2656 12.3117 10.2656 12.6654Z" stroke="#121212" stroke-linecap="round" stroke-linejoin="round"/>
<path d="M11.5993 11.3333H4.26595V2H2.93262" stroke="#121212" stroke-linecap="round" stroke-linejoin="round"/>
<path d="M4.26562 3.33203L13.599 3.9987L12.9323 8.66536H4.26562" stroke="#121212" stroke-linecap="round" stroke-linejoin="round"/>
</svg>
