<svg viewBox="0 0 93 24" fill="none" xmlns="http://www.w3.org/2000/svg">
<path d="M18.4844 23.5156H14V0.484375H21L25.1875 18.5938L29.3438 0.484375H36.2656V23.5156H31.7812V7.9375C31.7812 7.48958 31.7865 6.86458 31.7969 6.0625C31.8073 5.25 31.8125 4.625 31.8125 4.1875L27.4531 23.5156H22.7812L18.4531 4.1875C18.4531 4.625 18.4583 5.25 18.4688 6.0625C18.4792 6.86458 18.4844 7.48958 18.4844 7.9375V23.5156Z" fill="#121212"></path>
<rect y="0.515625" width="14" height="23" fill="#121212"></rect>
<path d="M46.9688 21.6719C48.8333 21.6719 50.1094 20.9688 50.7969 19.5625C51.4948 18.1458 51.8438 16.5729 51.8438 14.8438C51.8438 13.2812 51.5938 12.0104 51.0938 11.0312C50.3021 9.48958 48.9375 8.71875 47 8.71875C45.2812 8.71875 44.0312 9.375 43.25 10.6875C42.4688 12 42.0781 13.5833 42.0781 15.4375C42.0781 17.2188 42.4688 18.7031 43.25 19.8906C44.0312 21.0781 45.2708 21.6719 46.9688 21.6719ZM47.0781 6.26562C49.2344 6.26562 51.0573 6.98438 52.5469 8.42188C54.0365 9.85938 54.7812 11.974 54.7812 14.7656C54.7812 17.4635 54.125 19.6927 52.8125 21.4531C51.5 23.2135 49.4635 24.0938 46.7031 24.0938C44.401 24.0938 42.5729 23.3177 41.2188 21.7656C39.8646 20.2031 39.1875 18.1094 39.1875 15.4844C39.1875 12.6719 39.901 10.4323 41.3281 8.76562C42.7552 7.09896 44.6719 6.26562 47.0781 6.26562ZM59.9219 15.3125C59.9219 17.1042 60.3021 18.6042 61.0625 19.8125C61.8229 21.0208 63.0417 21.625 64.7188 21.625C66.0208 21.625 67.0885 21.0677 67.9219 19.9531C68.7656 18.8281 69.1875 17.2188 69.1875 15.125C69.1875 13.0104 68.7552 11.4479 67.8906 10.4375C67.026 9.41667 65.9583 8.90625 64.6875 8.90625C63.2708 8.90625 62.1198 9.44792 61.2344 10.5312C60.3594 11.6146 59.9219 13.2083 59.9219 15.3125ZM64.1562 6.45312C65.4375 6.45312 66.5104 6.72396 67.375 7.26562C67.875 7.57812 68.4427 8.125 69.0781 8.90625V0.453125H71.7812V23.4844H69.25V21.1562C68.5938 22.1875 67.8177 22.9323 66.9219 23.3906C66.026 23.849 65 24.0781 63.8438 24.0781C61.9792 24.0781 60.3646 23.2969 59 21.7344C57.6354 20.1615 56.9531 18.0729 56.9531 15.4688C56.9531 13.0312 57.5729 10.9219 58.8125 9.14062C60.0625 7.34896 61.8438 6.45312 64.1562 6.45312ZM78.1094 19.0312C78.1094 19.8438 78.4062 20.4844 79 20.9531C79.5938 21.4219 80.2969 21.6562 81.1094 21.6562C82.099 21.6562 83.0573 21.4271 83.9844 20.9688C85.5469 20.2083 86.3281 18.9635 86.3281 17.2344V14.9688C85.9844 15.1875 85.5417 15.3698 85 15.5156C84.4583 15.6615 83.9271 15.7656 83.4062 15.8281L81.7031 16.0469C80.6823 16.1823 79.9167 16.3958 79.4062 16.6875C78.5417 17.1771 78.1094 17.9583 78.1094 19.0312ZM84.9219 13.3438C85.5677 13.2604 86 12.9896 86.2188 12.5312C86.3438 12.2812 86.4062 11.9219 86.4062 11.4531C86.4062 10.4948 86.0625 9.80208 85.375 9.375C84.6979 8.9375 83.724 8.71875 82.4531 8.71875C80.9844 8.71875 79.9427 9.11458 79.3281 9.90625C78.9844 10.3438 78.7604 10.9948 78.6562 11.8594H76.0312C76.0833 9.79688 76.75 8.36458 78.0312 7.5625C79.3229 6.75 80.8177 6.34375 82.5156 6.34375C84.4844 6.34375 86.0833 6.71875 87.3125 7.46875C88.5312 8.21875 89.1406 9.38542 89.1406 10.9688V20.6094C89.1406 20.901 89.1979 21.1354 89.3125 21.3125C89.4375 21.4896 89.6927 21.5781 90.0781 21.5781C90.2031 21.5781 90.3438 21.5729 90.5 21.5625C90.6562 21.5417 90.8229 21.5156 91 21.4844V23.5625C90.5625 23.6875 90.2292 23.7656 90 23.7969C89.7708 23.8281 89.4583 23.8438 89.0625 23.8438C88.0938 23.8438 87.3906 23.5 86.9531 22.8125C86.724 22.4479 86.5625 21.9323 86.4688 21.2656C85.8958 22.0156 85.0729 22.6667 84 23.2188C82.9271 23.7708 81.7448 24.0469 80.4531 24.0469C78.901 24.0469 77.6302 23.5781 76.6406 22.6406C75.6615 21.6927 75.1719 20.5104 75.1719 19.0938C75.1719 17.5417 75.6562 16.3385 76.625 15.4844C77.5938 14.6302 78.8646 14.1042 80.4375 13.9062L84.9219 13.3438Z" fill="#121212"></path>
</svg>