<?xml version="1.0" standalone="no"?>
<!DOCTYPE svg PUBLIC "-//W3C//DTD SVG 20010904//EN"
 "http://www.w3.org/TR/2001/REC-SVG-20010904/DTD/svg10.dtd">
<svg version="1.0" xmlns="http://www.w3.org/2000/svg"
 width="512.000000pt" height="512.000000pt" viewBox="0 0 512.000000 512.000000"
 preserveAspectRatio="xMidYMid meet">
<metadata>
Created by potrace 1.14, written by Peter Selinger 2001-2017
</metadata>
<g transform="translate(0.000000,512.000000) scale(0.100000,-0.100000)"
fill="#000000" stroke="none">
<path d="M992 4152 l-992 -2 0 -1593 0 -1592 1278 0 1277 0 0 1313 c0 721 2
1312 5 1312 3 0 25 -87 48 -192 54 -246 52 -237 62 -278 11 -48 41 -181 45
-203 2 -10 32 -140 65 -290 34 -150 64 -281 66 -292 6 -31 103 -465 114 -510
14 -59 101 -447 106 -470 2 -11 20 -92 40 -180 19 -88 37 -168 40 -179 2 -10
6 -21 9 -25 4 -3 148 -6 322 -6 270 0 316 2 323 15 4 8 19 69 33 135 15 66 42
190 62 275 73 319 137 606 140 625 2 11 13 61 25 110 12 50 23 97 25 105 2 8
20 89 40 180 20 91 38 172 40 180 2 8 15 67 30 130 14 63 28 124 31 135 9 46
15 72 74 330 33 149 63 280 66 292 33 160 36 156 34 -47 -1 -74 -2 -659 -3
-1300 l0 -1165 309 0 309 0 2 1593 3 1592 -23 0 c-12 0 -227 2 -478 3 l-457 2
-11 -45 c-16 -67 -130 -563 -151 -660 -10 -47 -34 -150 -53 -230 -19 -80 -46
-199 -61 -265 -15 -66 -34 -149 -43 -184 -8 -36 -17 -74 -19 -85 -5 -26 -32
-142 -55 -236 -10 -41 -20 -86 -23 -100 -9 -52 -157 -685 -161 -688 -2 -3 -18
60 -40 158 -7 32 -147 639 -165 715 -41 176 -60 256 -64 277 -8 38 -13 58 -40
173 -15 61 -28 120 -31 133 -2 13 -6 31 -9 40 -3 9 -7 28 -10 42 -5 29 -159
694 -182 788 -9 35 -17 68 -18 75 -16 79 -20 87 -35 88 -76 3 -1089 4 -1899 1z"/>
</g>
</svg>
