<svg xmlns="http://www.w3.org/2000/svg" fill="#000000" viewBox="0 0 16 16">
    <mask id="a" width="16" height="16" x="0" y="0" maskUnits="userSpaceOnUse" mask-type="alpha">
        <path fill="#D9D9D9" d="M0 0h16v16H0z"/>
    </mask>
    <g mask="url(#a)">
        <path fill="#73717A" d="M8 8c.366 0 .68-.13.941-.392.261-.26.392-.575.392-.941 0-.367-.13-.681-.392-.942A1.286 1.286 0 0 0 8 5.333c-.366 0-.68.13-.941.392a1.284 1.284 0 0 0-.392.942c0 .366.13.68.392.941.26.261.575.392.941.392Zm0 4.9c1.355-1.244 2.36-2.375 3.016-3.392.656-1.016.983-1.92.983-2.708 0-1.211-.386-2.203-1.158-2.975-.772-.772-1.72-1.158-2.842-1.158s-2.07.386-2.842 1.158C4.385 4.597 4 5.589 4 6.8c0 .789.328 1.692.984 2.708.655 1.017 1.66 2.148 3.016 3.392Zm0 1.767c-1.79-1.522-3.126-2.937-4.009-4.242C3.108 9.119 2.666 7.91 2.666 6.8c0-1.667.536-2.994 1.609-3.983 1.072-.99 2.313-1.484 3.724-1.484s2.653.495 3.725 1.484 1.609 2.316 1.609 3.983c0 1.111-.442 2.32-1.325 3.625-.883 1.305-2.22 2.72-4.009 4.242Z"/>
    </g>
</svg>
