<svg
          viewBox="0 0 825 166"
          fill="none"
          xmlns="http://www.w3.org/2000/svg"
        >
          <mask
            id="path-1-outside-1_564_355"
            maskUnits="userSpaceOnUse"
            x="0"
            y="0.399994"
            width="825"
            height="166"
            fill="black"
          >
            <rect fill="white" y="0.399994" width="825" height="166" />
            <path
              d="M1 159V157C3.53333 156.733 6.06667 155.533 8.6 153.4C11.2667 151.133 13.7333 148.333 16 145C18.2667 141.667 20 138.4 21.2 135.2L74 5.99999H75.8L127.8 135.2C133.667 149.733 140.2 157 147.4 157H148V159H84V157H84.8C90.8 157 94.8 155.2 96.8 151.6C98.9333 147.867 98.6667 142.733 96 136.2L84 106.4H35.8L24.6 134.2C22.2 139.933 22.4667 145.133 25.4 149.8C28.4667 154.333 33.3333 156.733 40 157V159H1ZM36.8 103.8H83L60.2 46.2L36.8 103.8Z"
            />
            <path
              d="M151.719 161.8V27C151.719 22.2 150.185 18.3333 147.119 15.4C144.185 12.4667 140.319 11 135.519 11V8.99999H155.919C163.785 8.99999 169.185 8.26666 172.119 6.8C175.052 5.33333 177.185 3.53333 178.519 1.39999H180.519V74.2C183.585 68.2 187.852 63.4 193.319 59.8C198.919 56.2 205.052 54.4 211.719 54.4C219.585 54.4 226.585 56.7333 232.719 61.4C238.852 66.0667 243.652 72.4 247.119 80.4C250.719 88.4 252.519 97.5333 252.519 107.8C252.519 118.467 250.519 127.867 246.519 136C242.652 144.133 237.185 150.467 230.119 155C223.052 159.533 214.785 161.8 205.319 161.8C189.452 161.8 178.785 155.2 173.319 142L153.719 161.8H151.719ZM199.519 158.4C206.585 158.4 211.919 154 215.519 145.2C219.119 136.4 220.919 123.467 220.919 106.4C220.919 91.4667 219.519 80.4 216.719 73.2C213.919 66 209.519 62.4 203.519 62.4C198.185 62.4 193.452 64.3333 189.319 68.2C185.319 72.0667 182.385 76.4 180.519 81.2V131.4C181.052 139.667 182.985 146.267 186.319 151.2C189.652 156 194.052 158.4 199.519 158.4Z"
            />
            <path
              d="M317.591 161.8C306.657 161.8 297.057 159.6 288.791 155.2C280.657 150.8 274.324 144.6 269.791 136.6C265.257 128.6 262.991 119.133 262.991 108.2C262.991 97.2667 265.257 87.8 269.791 79.8C274.324 71.8 280.657 65.6 288.791 61.2C297.057 56.8 306.657 54.6 317.591 54.6C328.524 54.6 338.057 56.8 346.191 61.2C354.324 65.6 360.657 71.8 365.191 79.8C369.724 87.8 371.991 97.2667 371.991 108.2C371.991 119.133 369.724 128.6 365.191 136.6C360.657 144.6 354.324 150.8 346.191 155.2C338.057 159.6 328.524 161.8 317.591 161.8ZM317.391 159.2C322.057 159.2 326.057 156.867 329.391 152.2C332.724 147.533 335.324 141.333 337.191 133.6C339.057 125.733 339.991 117.2 339.991 108C339.991 98 338.991 89.2 336.991 81.6C335.124 73.8667 332.457 67.8667 328.991 63.6C325.657 59.2 321.857 57 317.591 57C313.057 57 309.057 59.3333 305.591 64C302.257 68.6667 299.657 74.8667 297.791 82.6C295.924 90.3333 294.991 98.8 294.991 108C294.991 118.133 295.991 127.067 297.991 134.8C299.991 142.533 302.657 148.533 305.991 152.8C309.457 157.067 313.257 159.2 317.391 159.2Z"
            />
            <path
              d="M455.173 164.6L454.973 138.8C451.507 145.6 446.24 151.133 439.173 155.4C432.107 159.667 424.64 161.8 416.773 161.8C407.84 161.8 400.64 158.867 395.173 153C389.84 147.133 387.173 139.4 387.173 129.8V75.4C387.173 70.3333 386.173 66.4 384.173 63.6C382.173 60.8 377.773 59.4 370.973 59.4V57.4H391.173C397.973 57.4 403.173 56.6667 406.773 55.2C410.107 53.7333 412.44 51.9333 413.773 49.8H415.773V131.8C415.773 138.467 417.107 143.8 419.773 147.8C422.44 151.8 425.907 153.8 430.173 153.8C434.307 153.8 438.573 152.067 442.973 148.6C447.373 145 451.24 140.2 454.573 134.2V75.4C454.573 70.6 453.373 66.7333 450.973 63.8C448.573 60.8667 444.44 59.4 438.573 59.4V57.4H458.773C465.573 57.4 470.773 56.6667 474.373 55.2C477.84 53.7333 480.24 51.9333 481.573 49.8H483.573L483.373 141C483.373 145.8 484.84 149.733 487.773 152.8C490.707 155.733 494.573 157.2 499.373 157.2V159H479.573C476.107 159 473.04 159.067 470.373 159.2C467.707 159.467 465.507 159.733 463.773 160C460.173 160.8 457.64 162.333 456.173 164.6H455.173Z"
            />
            <path
              d="M536.834 161.8C533.368 161.8 530.768 161.667 529.034 161.4C527.301 161.133 525.634 160.8 524.034 160.4C522.568 160 520.568 159.667 518.034 159.4C515.501 159.133 511.634 159 506.434 159L501.634 121.4H504.234C506.368 133.933 510.368 143.4 516.234 149.8C522.101 156.067 528.501 159.2 535.434 159.2C542.234 159.2 547.368 157.8 550.834 155C554.434 152.2 556.234 148.4 556.234 143.6C556.234 140.533 555.434 137.867 553.834 135.6C552.368 133.2 549.768 130.8 546.034 128.4C542.301 125.867 537.234 122.867 530.834 119.4L525.034 116.2C517.701 112.067 512.234 107.267 508.634 101.8C505.168 96.2 503.434 90.2 503.434 83.8C503.434 74.7333 506.701 67.6 513.234 62.4C519.901 57.2 528.768 54.6 539.834 54.6C542.634 54.6 544.901 54.7333 546.634 55C548.368 55.2667 550.034 55.6 551.634 56C553.234 56.4 555.234 56.7333 557.634 57C560.034 57.2667 563.234 57.4 567.234 57.4L570.034 89.6H567.634C566.834 83.3333 565.034 77.8 562.234 73C559.568 68.0667 556.368 64.2667 552.634 61.6C548.901 58.8 545.101 57.4 541.234 57.4C536.168 57.4 532.101 58.7333 529.034 61.4C526.101 64.0667 524.634 67.8 524.634 72.6C524.634 76.2 525.768 79.5333 528.034 82.6C530.434 85.5333 534.968 88.7333 541.634 92.2L547.634 95.2C556.968 100 563.768 105 568.034 110.2C572.301 115.4 574.434 122.067 574.434 130.2C574.434 151 561.901 161.533 536.834 161.8Z"
            />
            <path
              d="M703.806 164.6L703.606 138.8C700.14 145.6 694.873 151.133 687.806 155.4C680.74 159.667 673.273 161.8 665.406 161.8C656.473 161.8 649.273 158.867 643.806 153C638.473 147.133 635.806 139.4 635.806 129.8V75.4C635.806 70.3333 634.806 66.4 632.806 63.6C630.806 60.8 626.406 59.4 619.606 59.4V57.4H639.806C646.606 57.4 651.806 56.6667 655.406 55.2C658.74 53.7333 661.073 51.9333 662.406 49.8H664.406V131.8C664.406 138.467 665.74 143.8 668.406 147.8C671.073 151.8 674.54 153.8 678.806 153.8C682.94 153.8 687.206 152.067 691.606 148.6C696.006 145 699.873 140.2 703.206 134.2V75.4C703.206 70.6 702.006 66.7333 699.606 63.8C697.206 60.8667 693.073 59.4 687.206 59.4V57.4H707.406C714.206 57.4 719.406 56.6667 723.006 55.2C726.473 53.7333 728.873 51.9333 730.206 49.8H732.206L732.006 141C732.006 145.8 733.473 149.733 736.406 152.8C739.34 155.733 743.206 157.2 748.006 157.2V159H728.206C724.74 159 721.673 159.067 719.006 159.2C716.34 159.467 714.14 159.733 712.406 160C708.806 160.8 706.273 162.333 704.806 164.6H703.806Z"
            />
            <path
              d="M785.467 161.8C782 161.8 779.401 161.667 777.667 161.4C775.934 161.133 774.267 160.8 772.667 160.4C771.201 160 769.201 159.667 766.667 159.4C764.134 159.133 760.267 159 755.067 159L750.267 121.4H752.867C755.001 133.933 759.001 143.4 764.867 149.8C770.734 156.067 777.134 159.2 784.067 159.2C790.867 159.2 796 157.8 799.467 155C803.067 152.2 804.867 148.4 804.867 143.6C804.867 140.533 804.067 137.867 802.467 135.6C801 133.2 798.401 130.8 794.667 128.4C790.934 125.867 785.867 122.867 779.467 119.4L773.667 116.2C766.334 112.067 760.867 107.267 757.267 101.8C753.8 96.2 752.067 90.2 752.067 83.8C752.067 74.7333 755.334 67.6 761.867 62.4C768.534 57.2 777.401 54.6 788.467 54.6C791.267 54.6 793.534 54.7333 795.267 55C797 55.2667 798.667 55.6 800.267 56C801.867 56.4 803.867 56.7333 806.267 57C808.667 57.2667 811.867 57.4 815.867 57.4L818.667 89.6H816.267C815.467 83.3333 813.667 77.8 810.867 73C808.201 68.0667 805 64.2667 801.267 61.6C797.534 58.8 793.734 57.4 789.867 57.4C784.801 57.4 780.734 58.7333 777.667 61.4C774.734 64.0667 773.267 67.8 773.267 72.6C773.267 76.2 774.401 79.5333 776.667 82.6C779.067 85.5333 783.6 88.7333 790.267 92.2L796.267 95.2C805.6 100 812.401 105 816.667 110.2C820.934 115.4 823.067 122.067 823.067 130.2C823.067 151 810.534 161.533 785.467 161.8Z"
            />
          </mask>
          <path
            d="M1 159V157C3.53333 156.733 6.06667 155.533 8.6 153.4C11.2667 151.133 13.7333 148.333 16 145C18.2667 141.667 20 138.4 21.2 135.2L74 5.99999H75.8L127.8 135.2C133.667 149.733 140.2 157 147.4 157H148V159H84V157H84.8C90.8 157 94.8 155.2 96.8 151.6C98.9333 147.867 98.6667 142.733 96 136.2L84 106.4H35.8L24.6 134.2C22.2 139.933 22.4667 145.133 25.4 149.8C28.4667 154.333 33.3333 156.733 40 157V159H1ZM36.8 103.8H83L60.2 46.2L36.8 103.8Z"
            fill="#F4F2E8"
          />
          <path
            d="M151.719 161.8V27C151.719 22.2 150.185 18.3333 147.119 15.4C144.185 12.4667 140.319 11 135.519 11V8.99999H155.919C163.785 8.99999 169.185 8.26666 172.119 6.8C175.052 5.33333 177.185 3.53333 178.519 1.39999H180.519V74.2C183.585 68.2 187.852 63.4 193.319 59.8C198.919 56.2 205.052 54.4 211.719 54.4C219.585 54.4 226.585 56.7333 232.719 61.4C238.852 66.0667 243.652 72.4 247.119 80.4C250.719 88.4 252.519 97.5333 252.519 107.8C252.519 118.467 250.519 127.867 246.519 136C242.652 144.133 237.185 150.467 230.119 155C223.052 159.533 214.785 161.8 205.319 161.8C189.452 161.8 178.785 155.2 173.319 142L153.719 161.8H151.719ZM199.519 158.4C206.585 158.4 211.919 154 215.519 145.2C219.119 136.4 220.919 123.467 220.919 106.4C220.919 91.4667 219.519 80.4 216.719 73.2C213.919 66 209.519 62.4 203.519 62.4C198.185 62.4 193.452 64.3333 189.319 68.2C185.319 72.0667 182.385 76.4 180.519 81.2V131.4C181.052 139.667 182.985 146.267 186.319 151.2C189.652 156 194.052 158.4 199.519 158.4Z"
            fill="#F4F2E8"
          />
          <path
            d="M317.591 161.8C306.657 161.8 297.057 159.6 288.791 155.2C280.657 150.8 274.324 144.6 269.791 136.6C265.257 128.6 262.991 119.133 262.991 108.2C262.991 97.2667 265.257 87.8 269.791 79.8C274.324 71.8 280.657 65.6 288.791 61.2C297.057 56.8 306.657 54.6 317.591 54.6C328.524 54.6 338.057 56.8 346.191 61.2C354.324 65.6 360.657 71.8 365.191 79.8C369.724 87.8 371.991 97.2667 371.991 108.2C371.991 119.133 369.724 128.6 365.191 136.6C360.657 144.6 354.324 150.8 346.191 155.2C338.057 159.6 328.524 161.8 317.591 161.8ZM317.391 159.2C322.057 159.2 326.057 156.867 329.391 152.2C332.724 147.533 335.324 141.333 337.191 133.6C339.057 125.733 339.991 117.2 339.991 108C339.991 98 338.991 89.2 336.991 81.6C335.124 73.8667 332.457 67.8667 328.991 63.6C325.657 59.2 321.857 57 317.591 57C313.057 57 309.057 59.3333 305.591 64C302.257 68.6667 299.657 74.8667 297.791 82.6C295.924 90.3333 294.991 98.8 294.991 108C294.991 118.133 295.991 127.067 297.991 134.8C299.991 142.533 302.657 148.533 305.991 152.8C309.457 157.067 313.257 159.2 317.391 159.2Z"
            fill="#F4F2E8"
          />
          <path
            d="M455.173 164.6L454.973 138.8C451.507 145.6 446.24 151.133 439.173 155.4C432.107 159.667 424.64 161.8 416.773 161.8C407.84 161.8 400.64 158.867 395.173 153C389.84 147.133 387.173 139.4 387.173 129.8V75.4C387.173 70.3333 386.173 66.4 384.173 63.6C382.173 60.8 377.773 59.4 370.973 59.4V57.4H391.173C397.973 57.4 403.173 56.6667 406.773 55.2C410.107 53.7333 412.44 51.9333 413.773 49.8H415.773V131.8C415.773 138.467 417.107 143.8 419.773 147.8C422.44 151.8 425.907 153.8 430.173 153.8C434.307 153.8 438.573 152.067 442.973 148.6C447.373 145 451.24 140.2 454.573 134.2V75.4C454.573 70.6 453.373 66.7333 450.973 63.8C448.573 60.8667 444.44 59.4 438.573 59.4V57.4H458.773C465.573 57.4 470.773 56.6667 474.373 55.2C477.84 53.7333 480.24 51.9333 481.573 49.8H483.573L483.373 141C483.373 145.8 484.84 149.733 487.773 152.8C490.707 155.733 494.573 157.2 499.373 157.2V159H479.573C476.107 159 473.04 159.067 470.373 159.2C467.707 159.467 465.507 159.733 463.773 160C460.173 160.8 457.64 162.333 456.173 164.6H455.173Z"
            fill="#F4F2E8"
          />
          <path
            d="M536.834 161.8C533.368 161.8 530.768 161.667 529.034 161.4C527.301 161.133 525.634 160.8 524.034 160.4C522.568 160 520.568 159.667 518.034 159.4C515.501 159.133 511.634 159 506.434 159L501.634 121.4H504.234C506.368 133.933 510.368 143.4 516.234 149.8C522.101 156.067 528.501 159.2 535.434 159.2C542.234 159.2 547.368 157.8 550.834 155C554.434 152.2 556.234 148.4 556.234 143.6C556.234 140.533 555.434 137.867 553.834 135.6C552.368 133.2 549.768 130.8 546.034 128.4C542.301 125.867 537.234 122.867 530.834 119.4L525.034 116.2C517.701 112.067 512.234 107.267 508.634 101.8C505.168 96.2 503.434 90.2 503.434 83.8C503.434 74.7333 506.701 67.6 513.234 62.4C519.901 57.2 528.768 54.6 539.834 54.6C542.634 54.6 544.901 54.7333 546.634 55C548.368 55.2667 550.034 55.6 551.634 56C553.234 56.4 555.234 56.7333 557.634 57C560.034 57.2667 563.234 57.4 567.234 57.4L570.034 89.6H567.634C566.834 83.3333 565.034 77.8 562.234 73C559.568 68.0667 556.368 64.2667 552.634 61.6C548.901 58.8 545.101 57.4 541.234 57.4C536.168 57.4 532.101 58.7333 529.034 61.4C526.101 64.0667 524.634 67.8 524.634 72.6C524.634 76.2 525.768 79.5333 528.034 82.6C530.434 85.5333 534.968 88.7333 541.634 92.2L547.634 95.2C556.968 100 563.768 105 568.034 110.2C572.301 115.4 574.434 122.067 574.434 130.2C574.434 151 561.901 161.533 536.834 161.8Z"
            fill="#F4F2E8"
          />
          <path
            d="M703.806 164.6L703.606 138.8C700.14 145.6 694.873 151.133 687.806 155.4C680.74 159.667 673.273 161.8 665.406 161.8C656.473 161.8 649.273 158.867 643.806 153C638.473 147.133 635.806 139.4 635.806 129.8V75.4C635.806 70.3333 634.806 66.4 632.806 63.6C630.806 60.8 626.406 59.4 619.606 59.4V57.4H639.806C646.606 57.4 651.806 56.6667 655.406 55.2C658.74 53.7333 661.073 51.9333 662.406 49.8H664.406V131.8C664.406 138.467 665.74 143.8 668.406 147.8C671.073 151.8 674.54 153.8 678.806 153.8C682.94 153.8 687.206 152.067 691.606 148.6C696.006 145 699.873 140.2 703.206 134.2V75.4C703.206 70.6 702.006 66.7333 699.606 63.8C697.206 60.8667 693.073 59.4 687.206 59.4V57.4H707.406C714.206 57.4 719.406 56.6667 723.006 55.2C726.473 53.7333 728.873 51.9333 730.206 49.8H732.206L732.006 141C732.006 145.8 733.473 149.733 736.406 152.8C739.34 155.733 743.206 157.2 748.006 157.2V159H728.206C724.74 159 721.673 159.067 719.006 159.2C716.34 159.467 714.14 159.733 712.406 160C708.806 160.8 706.273 162.333 704.806 164.6H703.806Z"
            fill="#F4F2E8"
          />
          <path
            d="M785.467 161.8C782 161.8 779.401 161.667 777.667 161.4C775.934 161.133 774.267 160.8 772.667 160.4C771.201 160 769.201 159.667 766.667 159.4C764.134 159.133 760.267 159 755.067 159L750.267 121.4H752.867C755.001 133.933 759.001 143.4 764.867 149.8C770.734 156.067 777.134 159.2 784.067 159.2C790.867 159.2 796 157.8 799.467 155C803.067 152.2 804.867 148.4 804.867 143.6C804.867 140.533 804.067 137.867 802.467 135.6C801 133.2 798.401 130.8 794.667 128.4C790.934 125.867 785.867 122.867 779.467 119.4L773.667 116.2C766.334 112.067 760.867 107.267 757.267 101.8C753.8 96.2 752.067 90.2 752.067 83.8C752.067 74.7333 755.334 67.6 761.867 62.4C768.534 57.2 777.401 54.6 788.467 54.6C791.267 54.6 793.534 54.7333 795.267 55C797 55.2667 798.667 55.6 800.267 56C801.867 56.4 803.867 56.7333 806.267 57C808.667 57.2667 811.867 57.4 815.867 57.4L818.667 89.6H816.267C815.467 83.3333 813.667 77.8 810.867 73C808.201 68.0667 805 64.2667 801.267 61.6C797.534 58.8 793.734 57.4 789.867 57.4C784.801 57.4 780.734 58.7333 777.667 61.4C774.734 64.0667 773.267 67.8 773.267 72.6C773.267 76.2 774.401 79.5333 776.667 82.6C779.067 85.5333 783.6 88.7333 790.267 92.2L796.267 95.2C805.6 100 812.401 105 816.667 110.2C820.934 115.4 823.067 122.067 823.067 130.2C823.067 151 810.534 161.533 785.467 161.8Z"
            fill="#F4F2E8"
          />
          <path
            d="M1 159V157C3.53333 156.733 6.06667 155.533 8.6 153.4C11.2667 151.133 13.7333 148.333 16 145C18.2667 141.667 20 138.4 21.2 135.2L74 5.99999H75.8L127.8 135.2C133.667 149.733 140.2 157 147.4 157H148V159H84V157H84.8C90.8 157 94.8 155.2 96.8 151.6C98.9333 147.867 98.6667 142.733 96 136.2L84 106.4H35.8L24.6 134.2C22.2 139.933 22.4667 145.133 25.4 149.8C28.4667 154.333 33.3333 156.733 40 157V159H1ZM36.8 103.8H83L60.2 46.2L36.8 103.8Z"
            stroke="#D6D4CC"
            stroke-width="2"
            mask="url(#path-1-outside-1_564_355)"
          />
          <path
            d="M151.719 161.8V27C151.719 22.2 150.185 18.3333 147.119 15.4C144.185 12.4667 140.319 11 135.519 11V8.99999H155.919C163.785 8.99999 169.185 8.26666 172.119 6.8C175.052 5.33333 177.185 3.53333 178.519 1.39999H180.519V74.2C183.585 68.2 187.852 63.4 193.319 59.8C198.919 56.2 205.052 54.4 211.719 54.4C219.585 54.4 226.585 56.7333 232.719 61.4C238.852 66.0667 243.652 72.4 247.119 80.4C250.719 88.4 252.519 97.5333 252.519 107.8C252.519 118.467 250.519 127.867 246.519 136C242.652 144.133 237.185 150.467 230.119 155C223.052 159.533 214.785 161.8 205.319 161.8C189.452 161.8 178.785 155.2 173.319 142L153.719 161.8H151.719ZM199.519 158.4C206.585 158.4 211.919 154 215.519 145.2C219.119 136.4 220.919 123.467 220.919 106.4C220.919 91.4667 219.519 80.4 216.719 73.2C213.919 66 209.519 62.4 203.519 62.4C198.185 62.4 193.452 64.3333 189.319 68.2C185.319 72.0667 182.385 76.4 180.519 81.2V131.4C181.052 139.667 182.985 146.267 186.319 151.2C189.652 156 194.052 158.4 199.519 158.4Z"
            stroke="#D6D4CC"
            stroke-width="2"
            mask="url(#path-1-outside-1_564_355)"
          />
          <path
            d="M317.591 161.8C306.657 161.8 297.057 159.6 288.791 155.2C280.657 150.8 274.324 144.6 269.791 136.6C265.257 128.6 262.991 119.133 262.991 108.2C262.991 97.2667 265.257 87.8 269.791 79.8C274.324 71.8 280.657 65.6 288.791 61.2C297.057 56.8 306.657 54.6 317.591 54.6C328.524 54.6 338.057 56.8 346.191 61.2C354.324 65.6 360.657 71.8 365.191 79.8C369.724 87.8 371.991 97.2667 371.991 108.2C371.991 119.133 369.724 128.6 365.191 136.6C360.657 144.6 354.324 150.8 346.191 155.2C338.057 159.6 328.524 161.8 317.591 161.8ZM317.391 159.2C322.057 159.2 326.057 156.867 329.391 152.2C332.724 147.533 335.324 141.333 337.191 133.6C339.057 125.733 339.991 117.2 339.991 108C339.991 98 338.991 89.2 336.991 81.6C335.124 73.8667 332.457 67.8667 328.991 63.6C325.657 59.2 321.857 57 317.591 57C313.057 57 309.057 59.3333 305.591 64C302.257 68.6667 299.657 74.8667 297.791 82.6C295.924 90.3333 294.991 98.8 294.991 108C294.991 118.133 295.991 127.067 297.991 134.8C299.991 142.533 302.657 148.533 305.991 152.8C309.457 157.067 313.257 159.2 317.391 159.2Z"
            stroke="#D6D4CC"
            stroke-width="2"
            mask="url(#path-1-outside-1_564_355)"
          />
          <path
            d="M455.173 164.6L454.973 138.8C451.507 145.6 446.24 151.133 439.173 155.4C432.107 159.667 424.64 161.8 416.773 161.8C407.84 161.8 400.64 158.867 395.173 153C389.84 147.133 387.173 139.4 387.173 129.8V75.4C387.173 70.3333 386.173 66.4 384.173 63.6C382.173 60.8 377.773 59.4 370.973 59.4V57.4H391.173C397.973 57.4 403.173 56.6667 406.773 55.2C410.107 53.7333 412.44 51.9333 413.773 49.8H415.773V131.8C415.773 138.467 417.107 143.8 419.773 147.8C422.44 151.8 425.907 153.8 430.173 153.8C434.307 153.8 438.573 152.067 442.973 148.6C447.373 145 451.24 140.2 454.573 134.2V75.4C454.573 70.6 453.373 66.7333 450.973 63.8C448.573 60.8667 444.44 59.4 438.573 59.4V57.4H458.773C465.573 57.4 470.773 56.6667 474.373 55.2C477.84 53.7333 480.24 51.9333 481.573 49.8H483.573L483.373 141C483.373 145.8 484.84 149.733 487.773 152.8C490.707 155.733 494.573 157.2 499.373 157.2V159H479.573C476.107 159 473.04 159.067 470.373 159.2C467.707 159.467 465.507 159.733 463.773 160C460.173 160.8 457.64 162.333 456.173 164.6H455.173Z"
            stroke="#D6D4CC"
            stroke-width="2"
            mask="url(#path-1-outside-1_564_355)"
          />
          <path
            d="M536.834 161.8C533.368 161.8 530.768 161.667 529.034 161.4C527.301 161.133 525.634 160.8 524.034 160.4C522.568 160 520.568 159.667 518.034 159.4C515.501 159.133 511.634 159 506.434 159L501.634 121.4H504.234C506.368 133.933 510.368 143.4 516.234 149.8C522.101 156.067 528.501 159.2 535.434 159.2C542.234 159.2 547.368 157.8 550.834 155C554.434 152.2 556.234 148.4 556.234 143.6C556.234 140.533 555.434 137.867 553.834 135.6C552.368 133.2 549.768 130.8 546.034 128.4C542.301 125.867 537.234 122.867 530.834 119.4L525.034 116.2C517.701 112.067 512.234 107.267 508.634 101.8C505.168 96.2 503.434 90.2 503.434 83.8C503.434 74.7333 506.701 67.6 513.234 62.4C519.901 57.2 528.768 54.6 539.834 54.6C542.634 54.6 544.901 54.7333 546.634 55C548.368 55.2667 550.034 55.6 551.634 56C553.234 56.4 555.234 56.7333 557.634 57C560.034 57.2667 563.234 57.4 567.234 57.4L570.034 89.6H567.634C566.834 83.3333 565.034 77.8 562.234 73C559.568 68.0667 556.368 64.2667 552.634 61.6C548.901 58.8 545.101 57.4 541.234 57.4C536.168 57.4 532.101 58.7333 529.034 61.4C526.101 64.0667 524.634 67.8 524.634 72.6C524.634 76.2 525.768 79.5333 528.034 82.6C530.434 85.5333 534.968 88.7333 541.634 92.2L547.634 95.2C556.968 100 563.768 105 568.034 110.2C572.301 115.4 574.434 122.067 574.434 130.2C574.434 151 561.901 161.533 536.834 161.8Z"
            stroke="#D6D4CC"
            stroke-width="2"
            mask="url(#path-1-outside-1_564_355)"
          />
          <path
            d="M703.806 164.6L703.606 138.8C700.14 145.6 694.873 151.133 687.806 155.4C680.74 159.667 673.273 161.8 665.406 161.8C656.473 161.8 649.273 158.867 643.806 153C638.473 147.133 635.806 139.4 635.806 129.8V75.4C635.806 70.3333 634.806 66.4 632.806 63.6C630.806 60.8 626.406 59.4 619.606 59.4V57.4H639.806C646.606 57.4 651.806 56.6667 655.406 55.2C658.74 53.7333 661.073 51.9333 662.406 49.8H664.406V131.8C664.406 138.467 665.74 143.8 668.406 147.8C671.073 151.8 674.54 153.8 678.806 153.8C682.94 153.8 687.206 152.067 691.606 148.6C696.006 145 699.873 140.2 703.206 134.2V75.4C703.206 70.6 702.006 66.7333 699.606 63.8C697.206 60.8667 693.073 59.4 687.206 59.4V57.4H707.406C714.206 57.4 719.406 56.6667 723.006 55.2C726.473 53.7333 728.873 51.9333 730.206 49.8H732.206L732.006 141C732.006 145.8 733.473 149.733 736.406 152.8C739.34 155.733 743.206 157.2 748.006 157.2V159H728.206C724.74 159 721.673 159.067 719.006 159.2C716.34 159.467 714.14 159.733 712.406 160C708.806 160.8 706.273 162.333 704.806 164.6H703.806Z"
            stroke="#D6D4CC"
            stroke-width="2"
            mask="url(#path-1-outside-1_564_355)"
          />
          <path
            d="M785.467 161.8C782 161.8 779.401 161.667 777.667 161.4C775.934 161.133 774.267 160.8 772.667 160.4C771.201 160 769.201 159.667 766.667 159.4C764.134 159.133 760.267 159 755.067 159L750.267 121.4H752.867C755.001 133.933 759.001 143.4 764.867 149.8C770.734 156.067 777.134 159.2 784.067 159.2C790.867 159.2 796 157.8 799.467 155C803.067 152.2 804.867 148.4 804.867 143.6C804.867 140.533 804.067 137.867 802.467 135.6C801 133.2 798.401 130.8 794.667 128.4C790.934 125.867 785.867 122.867 779.467 119.4L773.667 116.2C766.334 112.067 760.867 107.267 757.267 101.8C753.8 96.2 752.067 90.2 752.067 83.8C752.067 74.7333 755.334 67.6 761.867 62.4C768.534 57.2 777.401 54.6 788.467 54.6C791.267 54.6 793.534 54.7333 795.267 55C797 55.2667 798.667 55.6 800.267 56C801.867 56.4 803.867 56.7333 806.267 57C808.667 57.2667 811.867 57.4 815.867 57.4L818.667 89.6H816.267C815.467 83.3333 813.667 77.8 810.867 73C808.201 68.0667 805 64.2667 801.267 61.6C797.534 58.8 793.734 57.4 789.867 57.4C784.801 57.4 780.734 58.7333 777.667 61.4C774.734 64.0667 773.267 67.8 773.267 72.6C773.267 76.2 774.401 79.5333 776.667 82.6C779.067 85.5333 783.6 88.7333 790.267 92.2L796.267 95.2C805.6 100 812.401 105 816.667 110.2C820.934 115.4 823.067 122.067 823.067 130.2C823.067 151 810.534 161.533 785.467 161.8Z"
            stroke="#D6D4CC"
            stroke-width="2"
            mask="url(#path-1-outside-1_564_355)"
          />
        </svg>