<svg viewBox="0 0 16 16" fill="none" xmlns="http://www.w3.org/2000/svg">
<g id="mail">
<mask id="mask0_1_3199" style="mask-type:alpha" maskUnits="userSpaceOnUse" x="0" y="0" width="16" height="16">
<rect id="Bounding box" width="16" height="16" fill="#D9D9D9"/>
</mask>
<g mask="url(#mask0_1_3199)">
<path id="mail_2" d="M2.66683 13.3334C2.30016 13.3334 1.98627 13.2029 1.72516 12.9417C1.46405 12.6806 1.3335 12.3667 1.3335 12.0001V4.00008C1.3335 3.63341 1.46405 3.31953 1.72516 3.05841C1.98627 2.7973 2.30016 2.66675 2.66683 2.66675H13.3335C13.7002 2.66675 14.0141 2.7973 14.2752 3.05841C14.5363 3.31953 14.6668 3.63341 14.6668 4.00008V12.0001C14.6668 12.3667 14.5363 12.6806 14.2752 12.9417C14.0141 13.2029 13.7002 13.3334 13.3335 13.3334H2.66683ZM8.00016 8.66675L13.3335 5.33341V4.00008L8.00016 7.33342L2.66683 4.00008V5.33341L8.00016 8.66675Z" fill="white"/>
</g>
</g>
</svg>
