<svg viewBox="0 0 165 27" fill="none" xmlns="http://www.w3.org/2000/svg">
  <path d="M24 0V24H0V0H24ZM18.9341 3.9673H15.0495V20.0327H18.9341V3.9673Z" fill="#13151E"></path>
  <path d="M29.8523 13.125V21H27.8409V7.90909H29.7841V9.95455H29.9545C30.2614 9.28977 30.7273 8.75568 31.3523 8.35227C31.9773 7.94318 32.7841 7.73864 33.7727 7.73864C34.6591 7.73864 35.4347 7.92045 36.0994 8.28409C36.7642 8.64205 37.2813 9.1875 37.6506 9.92045C38.0199 10.6477 38.2045 11.5682 38.2045 12.6818V21H36.1932V12.8182C36.1932 11.7898 35.9261 10.9886 35.392 10.4148C34.858 9.83523 34.125 9.54545 33.1932 9.54545C32.5511 9.54545 31.9773 9.68466 31.4716 9.96307C30.9716 10.2415 30.5767 10.6477 30.2869 11.1818C29.9972 11.7159 29.8523 12.3636 29.8523 13.125ZM50.7427 10.8409L48.9359 11.3523C48.8222 11.0511 48.6546 10.7585 48.433 10.4744C48.2171 10.1847 47.9217 9.94602 47.5467 9.75852C47.1717 9.57102 46.6916 9.47727 46.1063 9.47727C45.3052 9.47727 44.6376 9.66193 44.1035 10.0312C43.5751 10.3949 43.3109 10.858 43.3109 11.4205C43.3109 11.9205 43.4927 12.3153 43.8563 12.6051C44.22 12.8949 44.7882 13.1364 45.5609 13.3295L47.5041 13.8068C48.6745 14.0909 49.5467 14.5256 50.1205 15.1108C50.6944 15.6903 50.9813 16.4375 50.9813 17.3523C50.9813 18.1023 50.7654 18.7727 50.3336 19.3636C49.9075 19.9545 49.3109 20.4205 48.5438 20.7614C47.7768 21.1023 46.8847 21.2727 45.8677 21.2727C44.5325 21.2727 43.4274 20.983 42.5524 20.4034C41.6774 19.8239 41.1234 18.9773 40.8904 17.8636L42.7995 17.3864C42.9813 18.0909 43.3251 18.6193 43.8308 18.9716C44.3421 19.3239 45.0097 19.5 45.8336 19.5C46.7711 19.5 47.5154 19.3011 48.0666 18.9034C48.6234 18.5 48.9018 18.017 48.9018 17.4545C48.9018 17 48.7427 16.6193 48.4245 16.3125C48.1063 16 47.6177 15.767 46.9586 15.6136L44.7768 15.1023C43.5779 14.8182 42.6972 14.3778 42.1347 13.7812C41.5779 13.179 41.2995 12.4261 41.2995 11.5227C41.2995 10.7841 41.5069 10.1307 41.9217 9.5625C42.3421 8.99432 42.9132 8.5483 43.6347 8.22443C44.362 7.90057 45.1859 7.73864 46.1063 7.73864C47.4018 7.73864 48.4188 8.02273 49.1575 8.59091C49.9018 9.15909 50.4302 9.90909 50.7427 10.8409ZM53.599 21V7.90909H55.6104V21H53.599ZM54.6218 5.72727C54.2297 5.72727 53.8916 5.59375 53.6076 5.3267C53.3291 5.05966 53.1899 4.73864 53.1899 4.36364C53.1899 3.98864 53.3291 3.66761 53.6076 3.40057C53.8916 3.13352 54.2297 3 54.6218 3C55.0138 3 55.349 3.13352 55.6274 3.40057C55.9115 3.66761 56.0536 3.98864 56.0536 4.36364C56.0536 4.73864 55.9115 5.05966 55.6274 5.3267C55.349 5.59375 55.0138 5.72727 54.6218 5.72727ZM64.1684 26.1818C63.1968 26.1818 62.3616 26.0568 61.6628 25.8068C60.9639 25.5625 60.3815 25.2386 59.9156 24.8352C59.4554 24.4375 59.0889 24.0114 58.8162 23.5568L60.4184 22.4318C60.6003 22.6705 60.8304 22.9432 61.1088 23.25C61.3872 23.5625 61.7679 23.8324 62.2508 24.0597C62.7395 24.2926 63.3787 24.4091 64.1684 24.4091C65.2253 24.4091 66.0974 24.1534 66.7849 23.642C67.4724 23.1307 67.8162 22.3295 67.8162 21.2386V18.5795H67.6457C67.498 18.8182 67.2878 19.1136 67.015 19.4659C66.748 19.8125 66.3616 20.1222 65.8559 20.3949C65.3559 20.6619 64.6798 20.7955 63.8275 20.7955C62.7707 20.7955 61.8218 20.5455 60.9809 20.0455C60.1457 19.5455 59.4838 18.8182 58.9951 17.8636C58.5122 16.9091 58.2707 15.75 58.2707 14.3864C58.2707 13.0455 58.5065 11.8778 58.9781 10.8835C59.4497 9.88352 60.1059 9.1108 60.9468 8.56534C61.7878 8.0142 62.7593 7.73864 63.8616 7.73864C64.7139 7.73864 65.39 7.88068 65.89 8.16477C66.3957 8.44318 66.7821 8.76136 67.0491 9.11932C67.3218 9.47159 67.5321 9.76136 67.6798 9.98864H67.8843V7.90909H69.8275V21.375C69.8275 22.5 69.5718 23.4148 69.0605 24.1193C68.5548 24.8295 67.873 25.3494 67.015 25.679C66.1628 26.0142 65.2139 26.1818 64.1684 26.1818ZM64.1003 18.9886C64.9071 18.9886 65.5889 18.804 66.1457 18.4347C66.7025 18.0653 67.1258 17.5341 67.4156 16.8409C67.7054 16.1477 67.8503 15.3182 67.8503 14.3523C67.8503 13.4091 67.7082 12.5767 67.4241 11.8551C67.14 11.1335 66.7196 10.5682 66.1628 10.1591C65.6059 9.75 64.9184 9.54545 64.1003 9.54545C63.248 9.54545 62.5378 9.76136 61.9696 10.1932C61.4071 10.625 60.9838 11.2045 60.6997 11.9318C60.4213 12.6591 60.2821 13.4659 60.2821 14.3523C60.2821 15.2614 60.4241 16.0653 60.7082 16.7642C60.998 17.4574 61.4241 18.0028 61.9866 18.4006C62.5548 18.7926 63.2593 18.9886 64.1003 18.9886ZM75.1107 13.125V21H73.0993V3.54545H75.1107V9.95455H75.2812C75.588 9.27841 76.0482 8.74148 76.6618 8.34375C77.2812 7.94034 78.105 7.73864 79.1334 7.73864C80.0255 7.73864 80.8067 7.91761 81.4772 8.27557C82.1476 8.62784 82.6675 9.17045 83.0368 9.90341C83.4118 10.6307 83.5993 11.5568 83.5993 12.6818V21H81.588V12.8182C81.588 11.7784 81.3181 10.9744 80.7783 10.4062C80.2442 9.83239 79.5028 9.54545 78.5539 9.54545C77.8948 9.54545 77.3039 9.68466 76.7812 9.96307C76.2641 10.2415 75.855 10.6477 75.5539 11.1818C75.2584 11.7159 75.1107 12.3636 75.1107 13.125ZM92.5622 7.90909V9.61364H85.7781V7.90909H92.5622ZM87.7554 4.77273H89.7668V17.25C89.7668 17.8182 89.8491 18.2443 90.0139 18.5284C90.1844 18.8068 90.4003 18.9943 90.6616 19.0909C90.9287 19.1818 91.2099 19.2273 91.5054 19.2273C91.727 19.2273 91.9088 19.2159 92.0509 19.1932C92.1929 19.1648 92.3065 19.142 92.3918 19.125L92.8009 20.9318C92.6645 20.983 92.4741 21.0341 92.2298 21.0852C91.9855 21.142 91.6759 21.1705 91.3009 21.1705C90.7327 21.1705 90.1759 21.0483 89.6304 20.804C89.0906 20.5597 88.6418 20.1875 88.2838 19.6875C87.9315 19.1875 87.7554 18.5568 87.7554 17.7955V4.77273ZM101.007 7.90909V9.61364H93.9505V7.90909H101.007ZM96.0641 21V6.10227C96.0641 5.35227 96.2403 4.72727 96.5926 4.22727C96.9448 3.72727 97.4022 3.35227 97.9647 3.10227C98.5272 2.85227 99.121 2.72727 99.746 2.72727C100.24 2.72727 100.644 2.76704 100.956 2.84659C101.269 2.92614 101.502 3 101.655 3.06818L101.076 4.80682C100.973 4.77273 100.831 4.73011 100.649 4.67898C100.473 4.62784 100.24 4.60227 99.9505 4.60227C99.2857 4.60227 98.8056 4.76989 98.5102 5.10511C98.2204 5.44034 98.0755 5.93182 98.0755 6.57954V21H96.0641ZM111.666 15.6477V7.90909H113.678V21H111.666V18.7841H111.53C111.223 19.4489 110.746 20.0142 110.098 20.4801C109.45 20.9403 108.632 21.1705 107.643 21.1705C106.825 21.1705 106.098 20.9915 105.462 20.6335C104.825 20.2699 104.325 19.7244 103.962 18.9972C103.598 18.2642 103.416 17.3409 103.416 16.2273V7.90909H105.428V16.0909C105.428 17.0455 105.695 17.8068 106.229 18.375C106.768 18.9432 107.456 19.2273 108.291 19.2273C108.791 19.2273 109.3 19.0994 109.817 18.8438C110.34 18.5881 110.777 18.196 111.129 17.6676C111.487 17.1392 111.666 16.4659 111.666 15.6477ZM118.963 3.54545V21H116.952V3.54545H118.963ZM124.248 3.54545V21H122.237V3.54545H124.248ZM136.249 3.54545V21H134.135V3.54545H136.249ZM141.815 13.125V21H139.804V7.90909H141.747V9.95455H141.917C142.224 9.28977 142.69 8.75568 143.315 8.35227C143.94 7.94318 144.747 7.73864 145.736 7.73864C146.622 7.73864 147.397 7.92045 148.062 8.28409C148.727 8.64205 149.244 9.1875 149.613 9.92045C149.983 10.6477 150.167 11.5682 150.167 12.6818V21H148.156V12.8182C148.156 11.7898 147.889 10.9886 147.355 10.4148C146.821 9.83523 146.088 9.54545 145.156 9.54545C144.514 9.54545 143.94 9.68466 143.434 9.96307C142.934 10.2415 142.54 10.6477 142.25 11.1818C141.96 11.7159 141.815 12.3636 141.815 13.125ZM155.308 16.2273L155.274 13.7386H155.683L161.41 7.90909H163.899L157.796 14.0795H157.626L155.308 16.2273ZM153.433 21V3.54545H155.444V21H153.433ZM161.751 21L156.637 14.5227L158.069 13.125L164.308 21H161.751Z" fill="#181A2C"></path>
  </svg>