<svg viewBox="0 0 102 35" fill="none" xmlns="http://www.w3.org/2000/svg">
  <path d="M19.5555 10.6667H10.6666V32H26.6666V26.2778C26.6666 26.0016 26.4424 25.7786 26.1664 25.7689C22.8106 25.6503 19.8379 24.3701 19.5555 23.4667V10.6667Z" fill="#A48A63"></path>
  <path d="M30.2222 15.1111C30.2222 11.1034 28.6302 7.25983 25.7963 4.42594C22.9624 1.59206 19.1188 3.02574e-07 15.1111 0C11.1034 -3.02574e-07 7.25983 1.59206 4.42594 4.42594C1.59206 7.25982 6.05148e-07 11.1034 0 15.1111L7.55556 15.1111C7.55556 13.1073 8.35159 11.1855 9.76853 9.76853C11.1855 8.35159 13.1073 7.55556 15.1111 7.55556C17.115 7.55556 19.0368 8.35159 20.4537 9.76853C21.8706 11.1855 22.6667 13.1073 22.6667 15.1111H30.2222Z" fill="#A48A63"></path>
  <path d="M40.2062 29.336C39.2302 29.336 38.4462 29.072 37.8542 28.544C37.2622 28.016 36.9662 27.32 36.9662 26.456C36.9662 26.088 37.0302 25.744 37.1582 25.424C37.2862 25.088 37.5262 24.76 37.8782 24.44C38.2462 24.12 38.7502 23.792 39.3902 23.456C40.0302 23.104 40.8782 22.736 41.9342 22.352L44.1662 21.536V19.736C44.1662 18.824 44.0222 18.104 43.7342 17.576C43.4462 17.032 43.0462 16.76 42.5342 16.76C41.9262 16.776 41.4062 17.176 40.9742 17.96C40.5582 18.744 40.2782 19.832 40.1342 21.224L37.5422 19.736C37.8142 19.08 38.2302 18.504 38.7902 18.008C39.3502 17.512 39.9902 17.128 40.7102 16.856C41.4462 16.584 42.2142 16.448 43.0142 16.448C44.3742 16.448 45.4782 16.832 46.3262 17.6C47.1902 18.352 47.6222 19.384 47.6222 20.696V26.48C47.6222 27.408 47.9342 27.872 48.5582 27.872C48.9262 27.872 49.2862 27.672 49.6382 27.272L49.8302 27.44C49.4142 28 48.9102 28.456 48.3182 28.808C47.7262 29.16 47.1502 29.336 46.5902 29.336C45.9822 29.336 45.4542 29.128 45.0062 28.712C44.5742 28.296 44.3022 27.744 44.1902 27.056C43.4062 27.856 42.7182 28.44 42.1262 28.808C41.5502 29.16 40.9102 29.336 40.2062 29.336ZM42.0062 27.848C42.3582 27.848 42.6942 27.76 43.0142 27.584C43.3502 27.408 43.7262 27.12 44.1422 26.72L44.1662 21.848L43.2062 22.208C42.3902 22.512 41.7662 22.824 41.3342 23.144C40.9022 23.448 40.5982 23.792 40.4222 24.176C40.2622 24.56 40.1822 25 40.1822 25.496C40.1822 26.184 40.3502 26.752 40.6862 27.2C41.0382 27.632 41.4782 27.848 42.0062 27.848ZM54.3369 29.336C53.9209 29.336 53.6089 29.32 53.4009 29.288C53.1929 29.256 52.9929 29.216 52.8009 29.168C52.6249 29.12 52.3849 29.08 52.0809 29.048C51.7769 29.016 51.3129 29 50.6889 29L50.1129 24.488H50.4249C50.6809 25.992 51.1609 27.128 51.8649 27.896C52.5689 28.648 53.3369 29.024 54.1689 29.024C54.9849 29.024 55.6009 28.856 56.0169 28.52C56.4489 28.184 56.6649 27.728 56.6649 27.152C56.6649 26.784 56.5689 26.464 56.3769 26.192C56.2009 25.904 55.8889 25.616 55.4409 25.328C54.9929 25.024 54.3849 24.664 53.6169 24.248L52.9209 23.864C52.0409 23.368 51.3849 22.792 50.9529 22.136C50.5369 21.464 50.3289 20.744 50.3289 19.976C50.3289 18.888 50.7209 18.032 51.5049 17.408C52.3049 16.784 53.3689 16.472 54.6969 16.472C55.0329 16.472 55.3049 16.488 55.5129 16.52C55.7209 16.552 55.9209 16.592 56.1129 16.64C56.3049 16.688 56.5449 16.728 56.8329 16.76C57.1209 16.792 57.5049 16.808 57.9849 16.808L58.3209 20.672H58.0329C57.9369 19.92 57.7209 19.256 57.3849 18.68C57.0649 18.088 56.6809 17.632 56.2329 17.312C55.7849 16.976 55.3289 16.808 54.8649 16.808C54.2569 16.808 53.7689 16.968 53.4009 17.288C53.0489 17.608 52.8729 18.056 52.8729 18.632C52.8729 19.064 53.0089 19.464 53.2809 19.832C53.5689 20.184 54.1129 20.568 54.9129 20.984L55.6329 21.344C56.7529 21.92 57.5689 22.52 58.0809 23.144C58.5929 23.768 58.8489 24.568 58.8489 25.544C58.8489 28.04 57.3449 29.304 54.3369 29.336ZM63.7895 29.336C62.9575 29.336 62.2775 29.072 61.7495 28.544C61.2215 28.016 60.9575 27.328 60.9575 26.48V17.24H58.9175V16.928C60.0215 16.848 61.0055 16.496 61.8695 15.872C62.7495 15.248 63.4695 14.408 64.0295 13.352H64.4135V16.808H67.6055L67.3655 17.24H64.4135V25.952C64.4135 27.232 64.8455 27.872 65.7095 27.872C65.9975 27.872 66.3255 27.784 66.6935 27.608C67.0775 27.432 67.4375 27.2 67.7735 26.912V27.152C67.2455 27.824 66.6215 28.36 65.9015 28.76C65.1815 29.144 64.4775 29.336 63.7895 29.336ZM68.3852 34.376C67.7292 34.376 67.0972 34.248 66.4892 33.992L67.4252 31.184C67.8252 31.344 68.2572 31.48 68.7212 31.592C69.2012 31.704 69.6812 31.76 70.1612 31.76C70.7692 31.76 71.3372 31.632 71.8652 31.376C72.4092 31.136 72.8172 30.68 73.0892 30.008L73.3532 29.36L68.6012 18.344C68.4412 17.96 68.2332 17.656 67.9772 17.432C67.7052 17.192 67.3372 17.064 66.8732 17.048V16.808H73.8092V17.048C73.3772 17.096 73.0412 17.248 72.8012 17.504C72.5772 17.76 72.4652 18.088 72.4652 18.488C72.4652 18.84 72.5452 19.2 72.7052 19.568L75.1292 25.256L77.5532 19.568C77.7132 19.2 77.7932 18.84 77.7932 18.488C77.7932 18.088 77.6732 17.76 77.4332 17.504C77.2092 17.248 76.8732 17.096 76.4252 17.048V16.808H79.7372V17.048C79.3692 17.128 79.0572 17.368 78.8012 17.768C78.5452 18.152 78.2732 18.68 77.9852 19.352L73.0892 30.728C72.5772 31.912 71.9132 32.816 71.0972 33.44C70.2812 34.064 69.3772 34.376 68.3852 34.376ZM79.0961 34.376C78.4401 34.376 77.8081 34.248 77.2001 33.992L78.1361 31.184C78.5361 31.344 78.9681 31.48 79.4321 31.592C79.9121 31.704 80.3921 31.76 80.8721 31.76C81.4801 31.76 82.0481 31.632 82.5761 31.376C83.1201 31.136 83.5281 30.68 83.8001 30.008L84.0641 29.36L79.3121 18.344C79.1521 17.96 78.9441 17.656 78.6881 17.432C78.4161 17.192 78.0481 17.064 77.5841 17.048V16.808H84.5201V17.048C84.0881 17.096 83.7521 17.248 83.5121 17.504C83.2881 17.76 83.1761 18.088 83.1761 18.488C83.1761 18.84 83.2561 19.2 83.4161 19.568L85.8401 25.256L88.2641 19.568C88.4241 19.2 88.5041 18.84 88.5041 18.488C88.5041 18.088 88.3841 17.76 88.1441 17.504C87.9201 17.248 87.5841 17.096 87.1361 17.048V16.808H90.4481V17.048C90.0801 17.128 89.7681 17.368 89.5121 17.768C89.2561 18.152 88.9841 18.68 88.6961 19.352L83.8001 30.728C83.2881 31.912 82.6241 32.816 81.8081 33.44C80.9921 34.064 80.0881 34.376 79.0961 34.376ZM89.807 34.376C89.151 34.376 88.519 34.248 87.911 33.992L88.847 31.184C89.247 31.344 89.679 31.48 90.143 31.592C90.623 31.704 91.103 31.76 91.583 31.76C92.191 31.76 92.759 31.632 93.287 31.376C93.831 31.136 94.239 30.68 94.511 30.008L94.775 29.36L90.023 18.344C89.863 17.96 89.655 17.656 89.399 17.432C89.127 17.192 88.759 17.064 88.295 17.048V16.808H95.231V17.048C94.799 17.096 94.463 17.248 94.223 17.504C93.999 17.76 93.887 18.088 93.887 18.488C93.887 18.84 93.967 19.2 94.127 19.568L96.551 25.256L98.975 19.568C99.135 19.2 99.215 18.84 99.215 18.488C99.215 18.088 99.095 17.76 98.855 17.504C98.631 17.248 98.295 17.096 97.847 17.048V16.808H101.159V17.048C100.791 17.128 100.479 17.368 100.223 17.768C99.967 18.152 99.695 18.68 99.407 19.352L94.511 30.728C93.999 31.912 93.335 32.816 92.519 33.44C91.703 34.064 90.799 34.376 89.807 34.376Z" fill="#A48A63"></path>
  </svg>