<svg width="16" height="16" viewBox="0 0 16 16" fill="none" xmlns="http://www.w3.org/2000/svg">
<rect x="1" y="1" width="14" height="14" rx="7" fill="#1275B1"/>
<path d="M6.30928 4.84607C6.30928 5.31335 5.90426 5.69215 5.40464 5.69215C4.90502 5.69215 4.5 5.31335 4.5 4.84607C4.5 4.3788 4.90502 4 5.40464 4C5.90426 4 6.30928 4.3788 6.30928 4.84607Z" fill="white"/>
<path d="M4.62371 6.31405H6.1701V11H4.62371V6.31405Z" fill="white"/>
<path d="M8.65979 6.31405H7.1134V11H8.65979C8.65979 11 8.65979 9.52479 8.65979 8.60243C8.65979 8.04881 8.84883 7.49277 9.60309 7.49277C10.4555 7.49277 10.4504 8.21727 10.4464 8.77855C10.4412 9.51222 10.4536 10.2609 10.4536 11H12V8.52686C11.9869 6.94769 11.5754 6.22004 10.2216 6.22004C9.4177 6.22004 8.91936 6.58503 8.65979 6.91525V6.31405Z" fill="white"/>
</svg>
