<svg xmlns="http://www.w3.org/2000/svg" width="187" height="24" fill="none"><mask id="a" width="24" height="24" x="0" y="0" maskUnits="userSpaceOnUse" style="mask-type:alpha"><path fill="#D9D9D9" d="M0 0h24v24H0z"/></mask><g mask="url(#a)"><path fill="#0A2213" d="m4.375 21-1.4-1.4 10.25-10.25c-.3-.7-.342-1.492-.125-2.375.217-.883.692-1.675 1.425-2.375.883-.883 1.867-1.4 2.95-1.55 1.083-.15 1.967.117 2.65.8.683.683.95 1.567.8 2.65-.15 1.083-.667 2.067-1.55 2.95-.7.733-1.492 1.208-2.375 1.425-.883.217-1.675.175-2.375-.125L13.375 12l7.6 7.6-1.4 1.4-7.6-7.55-7.6 7.55Zm2.95-8.55-3-3c-.9-.9-1.35-1.975-1.35-3.225S3.425 3.9 4.325 3l6.2 6.25-3.2 3.2Z"/></g><path fill="#0A2213" d="M35.435 19V4.455h9.318v2.208H38.07v3.95h6.044v2.208H38.07V19h-2.635ZM49.61 4.455V19H47.04V4.455h2.57Zm5.783 14.765c-.691 0-1.314-.123-1.868-.37a3.05 3.05 0 0 1-1.307-1.107c-.317-.488-.476-1.09-.476-1.804 0-.616.114-1.125.341-1.527.227-.403.538-.725.93-.966a4.695 4.695 0 0 1 1.329-.547c.497-.128 1.01-.22 1.54-.277.64-.066 1.158-.125 1.556-.177.398-.057.687-.142.867-.256.184-.119.277-.3.277-.547v-.043c0-.535-.159-.949-.476-1.242-.317-.294-.774-.44-1.37-.44-.63 0-1.13.136-1.5.411-.364.275-.61.6-.738.973l-2.4-.34c.189-.664.501-1.218.937-1.663.435-.45.968-.786 1.598-1.008a6.113 6.113 0 0 1 2.088-.341c.526 0 1.049.061 1.57.185.52.123.996.326 1.427.61.431.28.777.66 1.037 1.144.265.483.398 1.086.398 1.81V19h-2.472v-1.499h-.085a3.137 3.137 0 0 1-.66.853c-.28.26-.633.47-1.059.632-.421.156-.916.234-1.484.234Zm.667-1.889c.517 0 .964-.102 1.343-.305.379-.209.67-.483.873-.824.209-.341.313-.713.313-1.115V13.8c-.08.066-.218.128-.412.185-.19.057-.403.106-.64.149a19.6 19.6 0 0 1-.702.114l-.604.085a4.488 4.488 0 0 0-1.03.255 1.711 1.711 0 0 0-.717.498c-.175.208-.263.478-.263.81 0 .473.173.83.518 1.072.346.241.786.362 1.321.362Zm17.032-9.24L69.208 19h-2.841L62.482 8.09h2.741l2.508 8.105h.113l2.514-8.104h2.735Zm6.166 11.122c-1.065 0-1.988-.234-2.77-.703a4.774 4.774 0 0 1-1.818-1.967c-.426-.843-.639-1.828-.639-2.955s.213-2.114.64-2.962a4.764 4.764 0 0 1 1.817-1.974c.782-.469 1.705-.703 2.77-.703 1.066 0 1.989.234 2.77.703a4.718 4.718 0 0 1 1.811 1.974c.431.848.647 1.835.647 2.962 0 1.127-.216 2.112-.647 2.955a4.727 4.727 0 0 1-1.81 1.967c-.782.469-1.705.703-2.77.703Zm.014-2.06c.578 0 1.061-.158 1.45-.475.388-.322.676-.753.866-1.293.194-.54.291-1.141.291-1.804 0-.668-.097-1.271-.291-1.811-.19-.545-.478-.978-.867-1.3-.388-.322-.87-.483-1.449-.483-.591 0-1.084.161-1.477.483-.388.322-.68.755-.873 1.3a5.444 5.444 0 0 0-.285 1.811c0 .663.095 1.264.285 1.804.194.54.485.97.873 1.293.393.317.886.475 1.477.475Zm14.349-2.741V8.09h2.57V19H93.7v-1.939h-.114a3.28 3.28 0 0 1-1.214 1.499c-.559.388-1.248.582-2.067.582-.715 0-1.347-.159-1.896-.476-.545-.322-.97-.788-1.279-1.399-.307-.616-.461-1.359-.461-2.23V8.09h2.57v6.548c0 .692.19 1.24.569 1.648.379.407.876.61 1.491.61.38 0 .746-.092 1.101-.276.355-.185.646-.46.874-.824.232-.37.348-.831.348-1.385ZM98.837 19V8.09h2.493v1.82h.113c.199-.63.54-1.116 1.023-1.457a2.815 2.815 0 0 1 1.669-.518c.142 0 .301.007.476.021.18.01.329.026.447.05v2.365a2.7 2.7 0 0 0-.518-.1 4.779 4.779 0 0 0-.675-.05 2.6 2.6 0 0 0-1.264.306 2.237 2.237 0 0 0-.874.831 2.341 2.341 0 0 0-.319 1.229V19h-2.571Zm13.004 0V4.455h9.318v2.208h-6.683v3.95h6.044v2.208h-6.044V19h-2.635Zm17.875-4.588V8.09h2.571V19h-2.493v-1.939h-.114a3.281 3.281 0 0 1-1.214 1.499c-.559.388-1.248.582-2.067.582-.715 0-1.347-.159-1.897-.476-.544-.322-.97-.788-1.278-1.399-.308-.616-.462-1.359-.462-2.23V8.09h2.571v6.548c0 .692.19 1.24.569 1.648.378.407.876.61 1.491.61.379 0 .746-.092 1.101-.276.355-.185.646-.46.874-.824.232-.37.348-.831.348-1.385Zm13.837-3.438-2.344.256a1.874 1.874 0 0 0-.348-.668 1.728 1.728 0 0 0-.654-.504c-.274-.128-.61-.192-1.008-.192-.535 0-.985.116-1.35.348-.359.232-.537.533-.532.902a.942.942 0 0 0 .348.775c.241.198.639.362 1.193.49l1.861.397c1.032.223 1.799.576 2.301 1.059.507.483.762 1.115.767 1.896a2.966 2.966 0 0 1-.604 1.818c-.393.521-.94.928-1.64 1.222-.701.293-1.506.44-2.415.44-1.335 0-2.41-.28-3.225-.838-.814-.563-1.299-1.347-1.456-2.35l2.508-.242c.113.492.355.864.724 1.115.369.25.85.376 1.442.376.611 0 1.101-.125 1.47-.376.374-.251.561-.561.561-.93a.97.97 0 0 0-.362-.775c-.237-.203-.606-.36-1.108-.469l-1.861-.39c-1.046-.218-1.821-.585-2.322-1.101-.502-.52-.751-1.179-.746-1.975-.005-.672.177-1.254.547-1.747.374-.497.892-.88 1.555-1.15.668-.275 1.437-.412 2.308-.412 1.279 0 2.285.272 3.019.817.738.544 1.195 1.28 1.371 2.208Zm4.925 1.634V19h-2.571V4.455h2.514v5.49h.128c.256-.616.651-1.101 1.186-1.456.54-.36 1.226-.54 2.06-.54.757 0 1.418.158 1.981.476.564.317.999.781 1.307 1.392.313.61.469 1.356.469 2.237V19h-2.571v-6.548c0-.734-.19-1.305-.568-1.712-.374-.412-.9-.618-1.577-.618-.455 0-.862.1-1.222.299a2.09 2.09 0 0 0-.838.845c-.199.369-.298.816-.298 1.342ZM158.173 19V8.09h2.571V19h-2.571Zm1.292-12.457a1.5 1.5 0 0 1-1.051-.405 1.307 1.307 0 0 1-.44-.987c0-.389.147-.718.44-.988a1.486 1.486 0 0 1 1.051-.412c.412 0 .763.138 1.051.412.294.27.441.6.441.988 0 .383-.147.712-.441.987-.288.27-.639.405-1.051.405Zm8.681 12.67c-1.065 0-1.989-.234-2.77-.703a4.776 4.776 0 0 1-1.818-1.967c-.426-.843-.639-1.828-.639-2.955s.213-2.114.639-2.962a4.767 4.767 0 0 1 1.818-1.974c.781-.469 1.705-.703 2.77-.703s1.989.234 2.77.703a4.719 4.719 0 0 1 1.811 1.974c.431.848.646 1.835.646 2.962 0 1.127-.215 2.112-.646 2.955a4.728 4.728 0 0 1-1.811 1.967c-.781.469-1.705.703-2.77.703Zm.014-2.06c.578 0 1.061-.158 1.449-.475.388-.322.677-.753.866-1.293a5.28 5.28 0 0 0 .292-1.804c0-.668-.097-1.271-.292-1.811-.189-.545-.478-.978-.866-1.3-.388-.322-.871-.483-1.449-.483-.592 0-1.084.161-1.477.483-.388.322-.68.755-.874 1.3a5.455 5.455 0 0 0-.284 1.811c0 .663.095 1.264.284 1.804.194.54.486.97.874 1.293.393.317.885.475 1.477.475Zm9.966-4.545V19h-2.571V8.09h2.458v1.855h.128a3.119 3.119 0 0 1 1.2-1.456c.554-.36 1.238-.54 2.052-.54.753 0 1.409.16 1.968.483.563.322.999.788 1.307 1.399.312.61.466 1.352.461 2.223V19h-2.571v-6.548c0-.73-.189-1.3-.568-1.712-.374-.412-.892-.618-1.555-.618-.45 0-.85.1-1.201.299a2.065 2.065 0 0 0-.816.845c-.195.369-.292.816-.292 1.342Z"/></svg>