<svg width="84" height="24" viewBox="0 0 84 24" fill="none" xmlns="http://www.w3.org/2000/svg">
<g id="logo" clip-path="url(#clip0_79_4064)">
<path id="Vector" d="M0.619141 21.4279H10.5934C15.3755 21.4279 17.8349 18.9513 17.8349 15.7867C17.8349 13.8053 16.9332 12.622 15.9767 11.9616C15.4302 11.5763 14.829 11.3011 14.1458 11.1085V10.9709C14.6924 10.8058 15.1842 10.5581 15.6488 10.2279C16.3866 9.65006 17.1518 8.63188 17.1518 6.98076C17.1518 4.36651 14.9383 2.16504 10.8666 2.16504H0.619141V21.4279ZM5.67457 9.59501V6.29281H9.77359C11.1672 6.29281 11.8231 6.98076 11.8231 7.94389C11.8231 8.90706 11.1672 9.59501 9.77359 9.59501H5.67457ZM5.67457 17.3002V13.4476H10.0468C11.8231 13.4476 12.6429 14.2731 12.6429 15.3739C12.6429 16.4746 11.8231 17.3002 10.0468 17.3002H5.67457Z" fill="#121212"/>
<path id="Vector_2" d="M18.9402 11.7971C18.9402 17.5759 23.3125 21.9789 29.5976 21.9789C33.7513 21.9789 36.2927 19.9976 37.7682 17.9887C38.6428 16.8329 39.2987 15.512 39.7085 13.9985H34.5165C34.3251 14.6314 33.9972 15.1818 33.5873 15.6496C32.8495 16.5027 31.6744 17.3007 29.5976 17.3007C26.455 17.3007 24.2689 15.0993 24.2689 11.7971C24.2689 8.49485 26.455 6.29337 29.5976 6.29337C31.4558 6.29337 32.6308 7.00885 33.3687 7.75185C33.8059 8.16462 34.1338 8.65997 34.3797 9.1828H39.572C39.1891 7.77938 38.5609 6.54103 37.7136 5.41278C36.2654 3.54152 33.7239 1.61523 29.5976 1.61523C23.3125 1.61523 18.9402 6.01819 18.9402 11.7971Z" fill="#121212"/>
<path id="Vector_3" d="M41.4912 21.4279H46.5466V10.4206L46.1368 7.94389H46.4102L50.0993 17.025H55.701L59.3901 7.94389H59.6635L59.2536 10.4206V21.4279H64.3091V2.16504H57.2042L53.2417 12.0717H52.5586L48.5961 2.16504H41.4912V21.4279Z" fill="#121212"/>
<path id="Vector_4" d="M65.9431 15.2368C66.2983 16.5027 66.845 17.631 67.6101 18.6216C68.9218 20.3002 71.19 21.9789 75.0975 21.9789C80.5354 21.9789 83.2954 18.9519 83.2954 15.6496C83.2954 11.3017 78.8412 10.2835 75.5619 9.48551C73.5397 9.01769 71.955 8.49485 71.955 7.3941C71.955 6.70614 72.6109 6.01819 74.5508 6.01819C75.9448 6.01819 76.7098 6.43096 77.147 6.84373C77.393 7.09139 77.5841 7.36657 77.6936 7.66928H82.8855C82.6395 6.54103 82.1751 5.52285 81.4919 4.64226C80.3444 3.12875 78.2399 1.61523 74.5508 1.61523C69.523 1.61523 66.6263 4.47715 66.6263 7.66928C66.6263 11.1641 69.4408 12.485 72.3103 13.2831C75.1521 14.0261 77.967 14.4664 77.967 15.9248C77.967 16.7779 77.147 17.5759 75.0975 17.5759C73.4578 17.5759 72.4468 16.998 71.8731 16.4201C71.5452 16.0899 71.2992 15.7047 71.135 15.2368H65.9431Z" fill="#121212"/>
</g>
<defs>
<clipPath id="clip0_79_4064">
<rect width="82.9091" height="24" fill="white" transform="translate(0.54541)"/>
</clipPath>
</defs>
</svg>
