<svg viewBox="0 0 47 16" fill="none" xmlns="http://www.w3.org/2000/svg">
<path d="M0.572266 0.654297H2.53516V6.58203H9.99609V0.654297H11.959V15H9.99609V8.29102H2.53516V15H0.572266V0.654297ZM18.6877 4.30664C19.4298 4.30664 20.1492 4.48242 20.8459 4.83398C21.5425 5.17904 22.0731 5.62826 22.4377 6.18164C22.7892 6.70898 23.0236 7.32422 23.1408 8.02734C23.2449 8.50911 23.297 9.27734 23.297 10.332H15.631C15.6636 11.3932 15.9142 12.2461 16.383 12.8906C16.8517 13.5286 17.5776 13.8477 18.5607 13.8477C19.4787 13.8477 20.2111 13.5449 20.758 12.9395C21.0705 12.5879 21.2918 12.181 21.422 11.7188H23.1505C23.105 12.1029 22.952 12.5326 22.6916 13.0078C22.4377 13.4766 22.1512 13.8607 21.8322 14.1602C21.2983 14.681 20.6375 15.0326 19.8498 15.2148C19.4266 15.319 18.9481 15.3711 18.4142 15.3711C17.1121 15.3711 16.0086 14.8991 15.1037 13.9551C14.1987 13.0046 13.7463 11.6764 13.7463 9.9707C13.7463 8.29102 14.202 6.92708 15.1134 5.87891C16.0249 4.83073 17.2163 4.30664 18.6877 4.30664ZM21.4904 8.93555C21.4188 8.17383 21.2528 7.5651 20.9923 7.10938C20.5106 6.26302 19.7065 5.83984 18.5802 5.83984C17.7729 5.83984 17.0959 6.13281 16.549 6.71875C16.0021 7.29818 15.7124 8.03711 15.6798 8.93555H21.4904ZM25.1038 0.654297H26.8616V15H25.1038V0.654297ZM29.147 0.654297H30.9048V15H29.147V0.654297ZM37.2916 13.8672C38.457 13.8672 39.2545 13.4277 39.6842 12.5488C40.1204 11.6634 40.3385 10.6803 40.3385 9.59961C40.3385 8.62305 40.1823 7.82878 39.8698 7.2168C39.375 6.25326 38.5221 5.77148 37.3112 5.77148C36.237 5.77148 35.4557 6.18164 34.9674 7.00195C34.4791 7.82227 34.235 8.81185 34.235 9.9707C34.235 11.084 34.4791 12.0117 34.9674 12.7539C35.4557 13.4961 36.2304 13.8672 37.2916 13.8672ZM37.36 4.23828C38.7077 4.23828 39.847 4.6875 40.778 5.58594C41.709 6.48438 42.1745 7.80599 42.1745 9.55078C42.1745 11.237 41.7643 12.6302 40.944 13.7305C40.1237 14.8307 38.8509 15.3809 37.1256 15.3809C35.6868 15.3809 34.5442 14.8958 33.6979 13.9258C32.8515 12.9492 32.4284 11.6406 32.4284 10C32.4284 8.24219 32.8743 6.84245 33.7663 5.80078C34.6582 4.75911 35.8561 4.23828 37.36 4.23828ZM44.284 12.8711H46.325V15H44.284V12.8711Z" fill="#171717"></path>
</svg>