<?xml version="1.0" standalone="no"?>
<!DOCTYPE svg PUBLIC "-//W3C//DTD SVG 20010904//EN"
 "http://www.w3.org/TR/2001/REC-SVG-20010904/DTD/svg10.dtd">
<svg version="1.0" xmlns="http://www.w3.org/2000/svg"
 width="529.000000pt" height="529.000000pt" viewBox="0 0 529.000000 529.000000"
 preserveAspectRatio="xMidYMid meet">
<metadata>
Created by potrace 1.14, written by Peter Selinger 2001-2017
</metadata>
<g transform="translate(0.000000,529.000000) scale(0.100000,-0.100000)"
fill="#000000" stroke="none">
<path d="M2399 5286 c-2 -2 -35 -6 -74 -10 -38 -3 -83 -8 -100 -11 -16 -3 -43
-7 -60 -10 -441 -74 -852 -263 -1190 -548 -374 -314 -629 -699 -788 -1192 -54
-167 -93 -393 -103 -600 l-6 -120 626 0 626 0 1 55 c0 30 2 64 3 75 13 93 20
132 42 210 28 98 82 221 141 318 110 184 306 360 512 462 169 84 328 120 531
120 198 0 303 -16 436 -66 32 -13 61 -24 64 -24 28 -4 210 -110 280 -164 96
-74 280 -278 280 -311 0 -5 4 -10 8 -10 24 0 150 -301 168 -400 3 -19 7 -42 9
-50 5 -27 18 -144 19 -180 l1 -35 624 -1 624 0 -6 126 c-23 488 -190 953 -490
1365 -29 39 -54 72 -57 75 -3 3 -32 36 -65 75 -118 138 -320 321 -430 391 -16
10 -32 21 -35 24 -5 6 -113 74 -171 108 -164 98 -475 223 -637 257 -9 2 -46
10 -82 19 -145 33 -289 49 -491 52 -114 1 -209 1 -210 0z"/>
<path d="M1842 1767 l0 -1762 1316 0 c725 -1 1319 2 1322 6 3 4 5 224 4 488
l0 482 -25 24 c-20 21 -37 26 -104 31 -44 3 -93 7 -110 9 -16 2 -55 6 -85 10
-145 16 -438 91 -550 141 -137 62 -221 115 -268 169 l-32 36 0 1064 0 1064
-734 0 -734 -1 0 -1761z"/>
</g>
</svg>
