<?xml version="1.0" standalone="no"?>
<!DOCTYPE svg PUBLIC "-//W3C//DTD SVG 20010904//EN"
 "http://www.w3.org/TR/2001/REC-SVG-20010904/DTD/svg10.dtd">
<svg version="1.0" xmlns="http://www.w3.org/2000/svg"
 width="512.000000pt" height="512.000000pt" viewBox="0 0 512.000000 512.000000"
 preserveAspectRatio="xMidYMid meet">
<metadata>
Created by potrace 1.14, written by Peter Selinger 2001-2017
</metadata>
<g transform="translate(0.000000,512.000000) scale(0.100000,-0.100000)"
fill="#000000" stroke="none">
<path d="M2517 5084 c-1 -1 -45 -4 -97 -8 -120 -8 -260 -30 -390 -61 -188 -45
-511 -180 -637 -266 -23 -16 -45 -29 -48 -29 -14 0 -169 -114 -262 -193 -390
-327 -663 -768 -777 -1250 -31 -131 -34 -144 -50 -262 -25 -181 -25 -394 0
-600 69 -569 367 -1124 804 -1495 36 -30 67 -57 70 -61 18 -19 192 -137 277
-188 289 -171 605 -275 953 -314 116 -13 386 -15 470 -4 25 4 68 9 95 12 28 3
57 8 65 10 8 2 35 7 59 10 68 10 256 61 351 96 47 17 99 36 115 42 74 26 292
143 393 210 155 104 249 182 382 316 194 195 329 386 449 633 97 199 183 467
206 643 4 28 8 52 10 55 8 13 19 218 19 340 0 166 -11 296 -35 420 -139 723
-575 1320 -1219 1667 -195 106 -485 207 -680 237 -19 3 -48 8 -65 11 -112 19
-201 27 -343 29 -62 1 -113 1 -115 0z"/>
</g>
</svg>
