<svg viewBox="0 0 14 14" fill="none" xmlns="http://www.w3.org/2000/svg">
  <mask id="mask0_498_422" style="mask-type:alpha" maskUnits="userSpaceOnUse" x="0" y="0" width="14" height="14">
  <rect width="14" height="14" fill="#D9D9D9"></rect>
  </mask>
  <g mask="url(#mask0_498_422)">
  <path d="M11.6375 12.25C10.3833 12.25 9.16076 11.9705 7.96979 11.4115C6.77882 10.8524 5.72396 10.1135 4.80521 9.19479C3.88646 8.27604 3.14757 7.22118 2.58854 6.03021C2.02951 4.83924 1.75 3.61667 1.75 2.3625C1.75 2.1875 1.80833 2.04167 1.925 1.925C2.04167 1.80833 2.1875 1.75 2.3625 1.75H4.725C4.86111 1.75 4.98264 1.79375 5.08958 1.88125C5.19653 1.96875 5.25972 2.08056 5.27917 2.21667L5.65833 4.25833C5.67778 4.39444 5.67535 4.5184 5.65104 4.63021C5.62674 4.74201 5.57083 4.84167 5.48333 4.92917L4.06875 6.35833C4.47708 7.05833 4.98993 7.71458 5.60729 8.32708C6.22465 8.93958 6.90278 9.46944 7.64167 9.91667L9.0125 8.54583C9.1 8.45833 9.21424 8.39271 9.35521 8.34896C9.49618 8.30521 9.63472 8.29306 9.77083 8.3125L11.7833 8.72083C11.9194 8.75 12.0312 8.81563 12.1187 8.91771C12.2062 9.01979 12.25 9.13889 12.25 9.275V11.6375C12.25 11.8125 12.1917 11.9583 12.075 12.075C11.9583 12.1917 11.8125 12.25 11.6375 12.25ZM3.51458 5.25L4.47708 4.2875L4.22917 2.91667H2.93125C2.97986 3.31528 3.04792 3.70903 3.13542 4.09792C3.22292 4.48681 3.34931 4.87083 3.51458 5.25ZM8.73542 10.4708C9.11458 10.6361 9.50104 10.7674 9.89479 10.8646C10.2885 10.9618 10.6847 11.025 11.0833 11.0542V9.77083L9.7125 9.49375L8.73542 10.4708Z" fill="#1C1B1F"></path>
  </g>
  </svg>