<svg viewBox="0 0 40 40" fill="none" xmlns="http://www.w3.org/2000/svg">
  <circle cx="20" cy="20" r="17.5" fill="#181A2C"></circle>
  <path d="M20 37.5C29.665 37.5 37.5 29.665 37.5 20C37.5 10.335 29.665 2.5 20 2.5C10.335 2.5 2.5 10.335 2.5 20C2.5 27.1001 6.72837 33.2127 12.8043 35.9569C12.8125 35.7676 12.8217 35.594 12.8295 35.4451C12.8403 35.2422 12.8486 35.0852 12.8486 34.997C12.8486 34.4711 13.2061 31.863 13.2061 31.863L15.3936 22.8816C15.0571 22.3347 14.8047 21.1779 14.8047 20.2945C14.8047 16.2139 17.0763 15.3305 18.4645 15.3305C20.2314 15.3305 20.631 17.2446 20.631 18.6538C20.631 19.3993 20.2443 20.566 19.8464 21.7667C19.4247 23.0393 18.9904 24.3499 18.9904 25.2374C18.9904 26.9621 20.6941 27.8245 21.872 27.8245C24.985 27.8245 27.8456 23.9122 27.8456 20C27.8456 16.0877 26.0156 11.3552 20.021 11.3552C14.0264 11.3552 11.3341 15.9195 11.3341 19.411C11.3341 21.7668 12.2175 23.4916 12.6593 23.786C12.7855 23.8982 13 24.2446 12.8486 24.7326C12.6971 25.2205 12.4209 26.3101 12.3017 26.7939C12.2877 26.906 12.1544 27.0967 11.7338 26.9621C11.2079 26.7939 7.86358 24.6905 7.86358 19.411C7.86358 14.1316 12.0072 7.98977 20.021 7.98977C28.0349 7.98977 32.1364 13.3744 32.1364 20C32.1364 26.6256 26.7728 30.8533 22.6923 30.8533C19.4279 30.8533 18.149 29.395 17.9177 28.6658L16.6767 33.3984C16.3837 34.1836 15.837 35.5947 15.163 36.8229C16.6992 37.2638 18.322 37.5 20 37.5Z" fill="white"></path>
  </svg>