<svg viewBox="0 0 40 40" fill="none" xmlns="http://www.w3.org/2000/svg">
  <path d="M14.7359 35C10.6922 35 6.92272 33.8239 3.75 31.7945C6.44374 31.9688 11.1976 31.5514 14.1545 28.731C9.70635 28.5269 7.70033 25.1154 7.43867 23.6575C7.81662 23.8032 9.61913 23.9782 10.6367 23.57C5.51987 22.287 4.73491 17.7967 4.90935 16.4262C5.86875 17.0969 7.49682 17.3301 8.13642 17.2718C3.36849 13.8603 5.08378 8.72845 5.92689 7.62044C9.34853 12.3608 14.4765 15.0232 20.8205 15.1713C20.7009 14.6467 20.6377 14.1005 20.6377 13.5396C20.6377 9.51365 23.8918 6.25 27.9059 6.25C30.0032 6.25 31.893 7.14094 33.2196 8.56605C34.6211 8.23763 36.7304 7.46883 37.7615 6.80401C37.2418 8.67013 35.6237 10.2269 34.6449 10.8038C34.6369 10.7841 34.653 10.8235 34.6449 10.8038C35.5047 10.6738 37.831 10.2267 38.75 9.60319C38.2955 10.6516 36.58 12.3947 35.1721 13.3705C35.4341 24.9226 26.5956 35 14.7359 35Z" fill="white"></path>
  </svg>