<?xml version="1.0" standalone="no"?>
<!DOCTYPE svg PUBLIC "-//W3C//DTD SVG 20010904//EN"
 "http://www.w3.org/TR/2001/REC-SVG-20010904/DTD/svg10.dtd">
<svg version="1.0" xmlns="http://www.w3.org/2000/svg"
 width="512.000000pt" height="512.000000pt" viewBox="0 0 512.000000 512.000000"
 preserveAspectRatio="xMidYMid meet">
<metadata>
Created by potrace 1.14, written by Peter Selinger 2001-2017
</metadata>
<g transform="translate(0.000000,512.000000) scale(0.100000,-0.100000)"
fill="#000000" stroke="none">
<path d="M176 4571 c-10 -11 -16 -28 -14 -39 2 -12 66 -79 143 -149 262 -241
444 -504 573 -829 121 -302 167 -563 166 -929 0 -211 -4 -270 -22 -379 -97
-562 -322 -989 -717 -1359 -139 -131 -175 -175 -154 -188 27 -17 159 -9 267
16 163 37 316 62 547 90 294 35 397 52 461 76 136 51 259 172 338 333 41 83
146 397 146 436 0 10 -33 44 -72 77 -211 172 -361 431 -409 703 -18 106 -16
315 5 424 52 267 209 527 421 696 l63 50 -20 73 c-48 171 -103 328 -146 412
-81 158 -230 283 -392 329 -30 8 -127 22 -215 31 -219 22 -453 57 -685 105
-222 46 -259 48 -284 21z"/>
<path d="M4895 4570 c-147 -35 -357 -70 -655 -110 -348 -47 -375 -53 -460 -95
-114 -57 -215 -165 -286 -306 -31 -62 -91 -243 -144 -432 l-22 -79 60 -53
c265 -240 410 -619 373 -973 -30 -284 -143 -523 -343 -725 l-87 -87 45 -158
c87 -310 140 -419 258 -538 134 -134 205 -159 569 -199 234 -27 404 -54 681
-111 159 -33 170 -34 187 -18 42 38 27 64 -108 190 -163 154 -252 255 -353
406 -195 291 -324 633 -382 1008 -21 135 -17 578 5 715 57 343 158 625 319
894 98 162 196 282 374 456 96 94 174 177 174 186 0 50 -69 60 -205 29z"/>
<path d="M2491 3410 c-300 -41 -551 -247 -644 -527 -126 -381 43 -783 401
-958 210 -103 469 -104 678 -5 80 39 207 134 255 192 132 159 192 323 191 523
-2 418 -317 750 -737 778 -44 3 -109 1 -144 -3z"/>
</g>
</svg>
