<svg width="1092" height="100" viewBox="0 0 1092 100" fill="none" xmlns="http://www.w3.org/2000/svg">
<path d="M0.0511361 128V5.81818H46.8239C55.6534 5.81818 62.9915 7.21022 68.8381 9.99431C74.7244 12.7386 79.1193 16.4972 82.0227 21.2699C84.9659 26.0426 86.4375 31.4517 86.4375 37.4972C86.4375 42.4687 85.483 46.7244 83.5739 50.2642C81.6648 53.7642 79.0994 56.608 75.8778 58.7955C72.6562 60.983 69.0568 62.554 65.0795 63.5085V64.7017C69.4148 64.9403 73.571 66.2727 77.5483 68.6989C81.5653 71.0852 84.8466 74.4659 87.392 78.8409C89.9375 83.2159 91.2102 88.5057 91.2102 94.7102C91.2102 101.034 89.679 106.722 86.6165 111.773C83.554 116.784 78.9403 120.741 72.7756 123.645C66.6108 126.548 58.8551 128 49.5085 128H0.0511361ZM22.1847 109.506H45.9886C54.0227 109.506 59.8097 107.974 63.3494 104.912C66.929 101.81 68.7188 97.8324 68.7188 92.9801C68.7188 89.3608 67.8239 86.0994 66.0341 83.196C64.2443 80.2528 61.6989 77.946 58.3977 76.2756C55.0966 74.5653 51.1591 73.7102 46.5852 73.7102H22.1847V109.506ZM22.1847 57.7812H44.0795C47.8977 57.7812 51.3381 57.0852 54.4006 55.6932C57.4631 54.2614 59.8693 52.2528 61.6193 49.6676C63.4091 47.0426 64.304 43.9403 64.304 40.3608C64.304 35.6278 62.6335 31.7301 59.2926 28.6676C55.9915 25.6051 51.0795 24.0739 44.5568 24.0739H22.1847V57.7812ZM106.151 128V36.3636H127.091V51.6364H128.046C129.716 46.3466 132.58 42.2699 136.636 39.4062C140.733 36.5028 145.406 35.0511 150.656 35.0511C151.85 35.0511 153.182 35.1108 154.653 35.2301C156.165 35.3097 157.418 35.4489 158.412 35.6477V55.5142C157.497 55.196 156.046 54.9176 154.057 54.679C152.108 54.4006 150.219 54.2614 148.389 54.2614C144.452 54.2614 140.912 55.1165 137.77 56.8267C134.668 58.4972 132.222 60.8239 130.432 63.8068C128.642 66.7898 127.747 70.2301 127.747 74.1278V128H106.151ZM194.129 129.849C188.322 129.849 183.092 128.815 178.438 126.747C173.825 124.639 170.166 121.537 167.461 117.44C164.796 113.344 163.464 108.293 163.464 102.287C163.464 97.1165 164.418 92.8409 166.328 89.4602C168.237 86.0795 170.842 83.375 174.143 81.3466C177.444 79.3182 181.163 77.7869 185.299 76.7528C189.475 75.679 193.791 74.9034 198.245 74.4261C203.615 73.8693 207.97 73.3722 211.311 72.9347C214.651 72.4574 217.078 71.7415 218.589 70.7869C220.14 69.7926 220.916 68.2614 220.916 66.1932V65.8352C220.916 61.3409 219.583 57.8608 216.918 55.3949C214.254 52.929 210.416 51.696 205.404 51.696C200.115 51.696 195.918 52.8494 192.816 55.1562C189.754 57.4631 187.686 60.1875 186.612 63.3295L166.447 60.4659C168.038 54.8977 170.663 50.2443 174.322 46.5057C177.981 42.7273 182.455 39.9034 187.745 38.0341C193.035 36.125 198.882 35.1705 205.285 35.1705C209.7 35.1705 214.095 35.6875 218.47 36.7216C222.845 37.7557 226.842 39.4659 230.461 41.8523C234.08 44.1989 236.984 47.4006 239.171 51.4574C241.399 55.5142 242.512 60.5852 242.512 66.6705V128H221.751V115.412H221.035C219.722 117.957 217.873 120.344 215.487 122.571C213.14 124.759 210.177 126.528 206.597 127.881C203.058 129.193 198.901 129.849 194.129 129.849ZM199.737 113.98C204.072 113.98 207.83 113.125 211.012 111.415C214.194 109.665 216.64 107.358 218.35 104.494C220.1 101.631 220.975 98.5085 220.975 95.1278V84.3295C220.299 84.8864 219.146 85.4034 217.515 85.8807C215.924 86.358 214.134 86.7756 212.146 87.1335C210.157 87.4915 208.188 87.8097 206.24 88.0881C204.291 88.3665 202.6 88.6051 201.168 88.804C197.947 89.2415 195.063 89.9574 192.518 90.9517C189.972 91.946 187.964 93.3381 186.492 95.1278C185.021 96.8778 184.285 99.1449 184.285 101.929C184.285 105.906 185.737 108.909 188.64 110.938C191.543 112.966 195.242 113.98 199.737 113.98ZM282.465 74.3068V128H260.868V36.3636H281.51V51.9347H282.584C284.692 46.804 288.053 42.7273 292.666 39.7045C297.32 36.6818 303.067 35.1705 309.908 35.1705C316.232 35.1705 321.74 36.5227 326.434 39.2273C331.166 41.9318 334.826 45.8494 337.411 50.9801C340.036 56.1108 341.328 62.3352 341.289 69.6534V128H319.692V72.9943C319.692 66.8693 318.101 62.0767 314.919 58.6165C311.777 55.1562 307.422 53.4261 301.854 53.4261C298.076 53.4261 294.715 54.2614 291.772 55.9318C288.868 57.5625 286.581 59.929 284.911 63.0312C283.28 66.1335 282.465 69.892 282.465 74.3068ZM393.889 129.611C386.69 129.611 380.247 127.761 374.559 124.062C368.872 120.364 364.377 114.994 361.076 107.955C357.775 100.915 356.125 92.3636 356.125 82.3011C356.125 72.1193 357.795 63.5284 361.136 56.5284C364.517 49.4886 369.071 44.179 374.798 40.5994C380.525 36.9801 386.909 35.1705 393.948 35.1705C399.318 35.1705 403.733 36.0852 407.193 37.9148C410.653 39.7045 413.397 41.8722 415.426 44.4176C417.454 46.9233 419.025 49.2898 420.139 51.517H421.034V5.81818H442.69V128H421.451V113.562H420.139C419.025 115.79 417.414 118.156 415.306 120.662C413.198 123.128 410.414 125.236 406.954 126.986C403.494 128.736 399.139 129.611 393.889 129.611ZM399.914 111.892C404.488 111.892 408.386 110.659 411.608 108.193C414.829 105.687 417.275 102.207 418.946 97.7528C420.616 93.2983 421.451 88.108 421.451 82.1818C421.451 76.2557 420.616 71.1051 418.946 66.7301C417.315 62.3551 414.889 58.9545 411.667 56.5284C408.485 54.1023 404.568 52.8892 399.914 52.8892C395.102 52.8892 391.085 54.142 387.863 56.6477C384.642 59.1534 382.216 62.6136 380.585 67.0284C378.954 71.4432 378.139 76.4943 378.139 82.1818C378.139 87.9091 378.954 93.0199 380.585 97.5142C382.255 101.969 384.701 105.489 387.923 108.074C391.184 110.619 395.181 111.892 399.914 111.892ZM567.88 47.0426H545.568C544.932 43.3835 543.758 40.142 542.048 37.3182C540.338 34.4545 538.21 32.0284 535.665 30.0398C533.119 28.0511 530.216 26.5597 526.954 25.5653C523.733 24.5313 520.253 24.0142 516.514 24.0142C509.872 24.0142 503.986 25.6847 498.855 29.0256C493.724 32.3267 489.707 37.179 486.804 43.5824C483.9 49.946 482.449 57.7216 482.449 66.9091C482.449 76.2557 483.9 84.1307 486.804 90.5341C489.747 96.8977 493.764 101.71 498.855 104.972C503.986 108.193 509.852 109.804 516.454 109.804C520.113 109.804 523.534 109.327 526.716 108.372C529.937 107.378 532.821 105.926 535.366 104.017C537.951 102.108 540.119 99.7614 541.869 96.9773C543.659 94.1932 544.892 91.0114 545.568 87.4318L567.88 87.5511C567.045 93.358 565.236 98.8068 562.451 103.898C559.707 108.989 556.108 113.483 551.653 117.381C547.199 121.239 541.988 124.261 536.022 126.449C530.057 128.597 523.434 129.67 516.156 129.67C505.417 129.67 495.832 127.185 487.4 122.213C478.968 117.241 472.326 110.062 467.474 100.676C462.622 91.2898 460.196 80.0341 460.196 66.9091C460.196 53.7443 462.642 42.4886 467.534 33.142C472.426 23.7557 479.088 16.5767 487.52 11.6051C495.951 6.63352 505.497 4.14772 516.156 4.14772C522.957 4.14772 529.281 5.10227 535.128 7.01136C540.974 8.92045 546.184 11.7244 550.758 15.4233C555.332 19.0824 559.091 23.5767 562.034 28.9062C565.017 34.196 566.966 40.2415 567.88 47.0426ZM583.835 128V36.3636H604.775V51.6364H605.73C607.4 46.3466 610.264 42.2699 614.321 39.4062C618.417 36.5028 623.091 35.0511 628.341 35.0511C629.534 35.0511 630.866 35.1108 632.338 35.2301C633.849 35.3097 635.102 35.4489 636.096 35.6477V55.5142C635.182 55.196 633.73 54.9176 631.741 54.679C629.792 54.4006 627.903 54.2614 626.074 54.2614C622.136 54.2614 618.596 55.1165 615.454 56.8267C612.352 58.4972 609.906 60.8239 608.116 63.8068C606.327 66.7898 605.432 70.2301 605.432 74.1278V128H583.835ZM671.813 129.849C666.006 129.849 660.776 128.815 656.123 126.747C651.509 124.639 647.85 121.537 645.145 117.44C642.481 113.344 641.148 108.293 641.148 102.287C641.148 97.1165 642.103 92.8409 644.012 89.4602C645.921 86.0795 648.526 83.375 651.827 81.3466C655.128 79.3182 658.847 77.7869 662.984 76.7528C667.16 75.679 671.475 74.9034 675.93 74.4261C681.299 73.8693 685.654 73.3722 688.995 72.9347C692.336 72.4574 694.762 71.7415 696.273 70.7869C697.824 69.7926 698.6 68.2614 698.6 66.1932V65.8352C698.6 61.3409 697.268 57.8608 694.603 55.3949C691.938 52.929 688.1 51.696 683.089 51.696C677.799 51.696 673.603 52.8494 670.501 55.1562C667.438 57.4631 665.37 60.1875 664.296 63.3295L644.131 60.4659C645.722 54.8977 648.347 50.2443 652.006 46.5057C655.665 42.7273 660.14 39.9034 665.43 38.0341C670.719 36.125 676.566 35.1705 682.969 35.1705C687.384 35.1705 691.779 35.6875 696.154 36.7216C700.529 37.7557 704.526 39.4659 708.145 41.8523C711.765 44.1989 714.668 47.4006 716.856 51.4574C719.083 55.5142 720.197 60.5852 720.197 66.6705V128H699.435V115.412H698.719C697.407 117.957 695.557 120.344 693.171 122.571C690.824 124.759 687.861 126.528 684.282 127.881C680.742 129.193 676.586 129.849 671.813 129.849ZM677.421 113.98C681.756 113.98 685.515 113.125 688.697 111.415C691.878 109.665 694.324 107.358 696.035 104.494C697.785 101.631 698.66 98.5085 698.66 95.1278V84.3295C697.984 84.8864 696.83 85.4034 695.199 85.8807C693.609 86.358 691.819 86.7756 689.83 87.1335C687.841 87.4915 685.873 87.8097 683.924 88.0881C681.975 88.3665 680.285 88.6051 678.853 88.804C675.631 89.2415 672.748 89.9574 670.202 90.9517C667.657 91.946 665.648 93.3381 664.177 95.1278C662.705 96.8778 661.969 99.1449 661.969 101.929C661.969 105.906 663.421 108.909 666.324 110.938C669.228 112.966 672.927 113.98 677.421 113.98ZM784.967 36.3636V53.0682H730.797V36.3636H784.967ZM744.339 128V27.7131C744.339 21.5483 745.612 16.4176 748.158 12.321C750.743 8.22443 754.203 5.16193 758.538 3.13352C762.874 1.10511 767.686 0.0909009 772.976 0.0909009C776.714 0.0909009 780.035 0.389199 782.939 0.985795C785.842 1.58238 787.99 2.11932 789.382 2.59659L785.087 19.3011C784.172 19.0227 783.018 18.7443 781.626 18.4659C780.234 18.1477 778.683 17.9886 776.973 17.9886C772.956 17.9886 770.112 18.9631 768.442 20.9119C766.811 22.821 765.996 25.5653 765.996 29.1449V128H744.339ZM844.279 36.3636V53.0682H791.6V36.3636H844.279ZM804.606 14.4091H826.202V100.438C826.202 103.341 826.64 105.568 827.515 107.119C828.43 108.631 829.623 109.665 831.095 110.222C832.566 110.778 834.197 111.057 835.987 111.057C837.339 111.057 838.572 110.957 839.685 110.759C840.839 110.56 841.714 110.381 842.31 110.222L845.95 127.105C844.796 127.503 843.146 127.94 840.998 128.418C838.89 128.895 836.305 129.173 833.242 129.253C827.833 129.412 822.961 128.597 818.626 126.807C814.291 124.977 810.85 122.153 808.305 118.335C805.799 114.517 804.566 109.744 804.606 104.017V14.4091ZM898.565 129.79C889.377 129.79 881.443 127.881 874.761 124.062C868.119 120.205 863.008 114.756 859.428 107.716C855.849 100.636 854.059 92.304 854.059 82.7188C854.059 73.2926 855.849 65.0199 859.428 57.9006C863.048 50.7415 868.099 45.1733 874.582 41.196C881.065 37.179 888.681 35.1705 897.431 35.1705C903.079 35.1705 908.409 36.0852 913.42 37.9148C918.471 39.7045 922.926 42.4886 926.784 46.267C930.681 50.0455 933.744 54.858 935.971 60.7045C938.198 66.5114 939.312 73.4318 939.312 81.4659V88.0881H864.201V73.5312H918.61C918.57 69.3949 917.676 65.7159 915.926 62.4943C914.176 59.233 911.73 56.6676 908.588 54.7983C905.485 52.929 901.866 51.9943 897.73 51.9943C893.315 51.9943 889.437 53.0682 886.096 55.2159C882.755 57.3239 880.15 60.108 878.281 63.5682C876.451 66.9886 875.517 70.7472 875.477 74.8438V87.5511C875.477 92.8807 876.451 97.4545 878.4 101.273C880.349 105.051 883.073 107.955 886.573 109.983C890.073 111.972 894.17 112.966 898.863 112.966C902.005 112.966 904.849 112.528 907.394 111.653C909.94 110.739 912.147 109.406 914.017 107.656C915.886 105.906 917.298 103.739 918.252 101.153L938.417 103.42C937.144 108.75 934.718 113.403 931.139 117.381C927.599 121.318 923.065 124.381 917.536 126.568C912.008 128.716 905.684 129.79 898.565 129.79ZM954.223 128V36.3636H975.163V51.6364H976.117C977.788 46.3466 980.651 42.2699 984.708 39.4062C988.805 36.5028 993.478 35.0511 998.728 35.0511C999.921 35.0511 1001.25 35.1108 1002.73 35.2301C1004.24 35.3097 1005.49 35.4489 1006.48 35.6477V55.5142C1005.57 55.196 1004.12 54.9176 1002.13 54.679C1000.18 54.4006 998.291 54.2614 996.461 54.2614C992.524 54.2614 988.984 55.1165 985.842 56.8267C982.74 58.4972 980.294 60.8239 978.504 63.8068C976.714 66.7898 975.819 70.2301 975.819 74.1278V128H954.223ZM1089.9 60.5852L1070.21 62.733C1069.65 60.7443 1068.68 58.875 1067.29 57.125C1065.93 55.375 1064.11 53.9631 1061.8 52.8892C1059.49 51.8153 1056.67 51.2784 1053.33 51.2784C1048.83 51.2784 1045.05 52.2528 1041.99 54.2017C1038.97 56.1506 1037.48 58.6761 1037.52 61.7784C1037.48 64.4432 1038.45 66.6108 1040.44 68.2812C1042.47 69.9517 1045.81 71.3239 1050.46 72.3977L1066.09 75.7386C1074.76 77.608 1081.21 80.571 1085.42 84.6278C1089.68 88.6847 1091.83 93.9943 1091.87 100.557C1091.83 106.324 1090.14 111.415 1086.8 115.83C1083.49 120.205 1078.9 123.625 1073.01 126.091C1067.13 128.557 1060.37 129.79 1052.73 129.79C1041.51 129.79 1032.49 127.443 1025.65 122.75C1018.8 118.017 1014.73 111.435 1013.42 103.003L1034.47 100.974C1035.43 105.111 1037.46 108.233 1040.56 110.341C1043.66 112.449 1047.7 113.503 1052.67 113.503C1057.8 113.503 1061.92 112.449 1065.02 110.341C1068.16 108.233 1069.73 105.628 1069.73 102.526C1069.73 99.9006 1068.72 97.733 1066.69 96.0227C1064.7 94.3125 1061.6 93 1057.38 92.0852L1041.75 88.804C1032.96 86.9744 1026.46 83.892 1022.24 79.5568C1018.03 75.1818 1015.94 69.6534 1015.98 62.9716C1015.94 57.3239 1017.47 52.4318 1020.57 48.2955C1023.72 44.1193 1028.07 40.8977 1033.64 38.6307C1039.25 36.3239 1045.71 35.1705 1053.03 35.1705C1063.77 35.1705 1072.22 37.4574 1078.38 42.0312C1084.59 46.6051 1088.43 52.7898 1089.9 60.5852Z" fill="#0F1223"/>
<script xmlns="" id="bw-fido2-page-script"/></svg>