<svg width="23" height="16" viewBox="0 0 23 16" fill="none" xmlns="http://www.w3.org/2000/svg">
<g clip-path="url(#clip0_482_398)">
<path fill-rule="evenodd" clip-rule="evenodd" d="M5.70616 2.35121L0 8C1.14134 9.12988 2.44514 10.0821 3.86665 10.8271C4.25957 11.8589 4.87545 12.8265 5.71429 13.6569C8.87023 16.781 13.987 16.781 17.1429 13.6569C17.9817 12.8265 18.5976 11.8589 18.9905 10.827C20.412 10.0821 21.7158 9.12988 22.8571 8L17.1556 2.3558C17.1514 2.35158 17.1471 2.34736 17.1429 2.34314C13.987 -0.781047 8.87023 -0.781047 5.71429 2.34314C5.71158 2.34583 5.70887 2.34852 5.70616 2.35121ZM16.5969 11.8462C14.934 12.4018 13.1884 12.6863 11.4286 12.6863C9.66874 12.6863 7.9232 12.4018 6.26034 11.8462C6.44052 12.0829 6.63943 12.3099 6.85714 12.5255C9.38189 15.0249 13.4753 15.0249 16 12.5255C16.2177 12.3099 16.4167 12.0829 16.5969 11.8462ZM6.97434 3.36137C7.40309 3.64178 7.85897 3.88172 8.336 4.07735C9.31646 4.47938 10.3673 4.68631 11.4286 4.68631C12.4898 4.68631 13.5407 4.47938 14.5211 4.07735C14.9982 3.88172 15.4541 3.64177 15.8829 3.36136C13.3896 1.01287 9.46754 1.01288 6.97434 3.36137Z" fill="#3B4158"/>
</g>
<defs>
<clipPath id="clip0_482_398">
<rect width="22.8571" height="16" fill="white"/>
</clipPath>
</defs>
</svg>
