<svg viewBox="0 0 40 40" fill="none" xmlns="http://www.w3.org/2000/svg">
  <path d="M26.983 3.33331H13.0163C6.94967 3.33331 3.33301 6.94998 3.33301 13.0166V26.9666C3.33301 33.05 6.94967 36.6666 13.0163 36.6666H26.9663C33.033 36.6666 36.6497 33.05 36.6497 26.9833V13.0166C36.6663 6.94998 33.0497 3.33331 26.983 3.33331ZM19.9997 26.4666C16.433 26.4666 13.533 23.5666 13.533 20C13.533 16.4333 16.433 13.5333 19.9997 13.5333C23.5663 13.5333 26.4663 16.4333 26.4663 20C26.4663 23.5666 23.5663 26.4666 19.9997 26.4666ZM29.8663 11.4666C29.783 11.6666 29.6663 11.85 29.5163 12.0166C29.3497 12.1666 29.1663 12.2833 28.9663 12.3666C28.7663 12.45 28.5497 12.5 28.333 12.5C27.883 12.5 27.4663 12.3333 27.1497 12.0166C26.9997 11.85 26.883 11.6666 26.7997 11.4666C26.7163 11.2666 26.6663 11.05 26.6663 10.8333C26.6663 10.6166 26.7163 10.4 26.7997 10.2C26.883 9.98331 26.9997 9.81665 27.1497 9.64998C27.533 9.26665 28.1163 9.08331 28.6497 9.19998C28.7663 9.21665 28.8663 9.24998 28.9663 9.29998C29.0663 9.33331 29.1663 9.38331 29.2663 9.44998C29.3497 9.49998 29.433 9.58331 29.5163 9.64998C29.6663 9.81665 29.783 9.98331 29.8663 10.2C29.9497 10.4 29.9997 10.6166 29.9997 10.8333C29.9997 11.05 29.9497 11.2666 29.8663 11.4666Z" fill="white"></path>
  </svg>