<svg width="14" height="14" viewBox="0 0 14 14" fill="none" xmlns="http://www.w3.org/2000/svg">
<mask id="mask0_498_427" style="mask-type:alpha" maskUnits="userSpaceOnUse" x="0" y="0" width="14" height="14">
<rect width="14" height="14" fill="#D9D9D9"/>
</mask>
<g mask="url(#mask0_498_427)">
<path d="M9.91732 13.4167C10.8895 13.4167 11.7159 13.0764 12.3965 12.3958C13.077 11.7153 13.4173 10.8889 13.4173 9.91666H12.5423C12.5423 10.6458 12.2871 11.2656 11.7767 11.776C11.2663 12.2865 10.6465 12.5417 9.91732 12.5417V13.4167ZM0.583984 4.08333H1.45898C1.45898 3.35416 1.71419 2.73437 2.22461 2.22395C2.73503 1.71354 3.35482 1.45833 4.08398 1.45833V0.583328C3.11176 0.583328 2.28537 0.923606 1.60482 1.60416C0.924262 2.28472 0.583984 3.11111 0.583984 4.08333ZM2.0569 11.9437C1.08468 10.9715 0.598568 9.80486 0.598568 8.44374C0.598568 7.08263 1.08468 5.91597 2.0569 4.94374L4.11315 2.87291C4.3951 2.59097 4.7378 2.44999 5.14128 2.44999C5.54475 2.44999 5.88746 2.59097 6.1694 2.87291C6.20829 2.9118 6.24475 2.95069 6.27878 2.98958C6.3128 3.02847 6.33954 3.06736 6.35898 3.10625L7.8319 1.63333C8.11385 1.35138 8.45655 1.21041 8.86003 1.21041C9.2635 1.21041 9.60621 1.35138 9.88815 1.63333C9.93676 1.68194 9.97565 1.72569 10.0048 1.76458L10.0923 1.88124C10.3743 1.6868 10.6902 1.60416 11.0402 1.63333C11.3902 1.66249 11.6916 1.80347 11.9444 2.05624C12.168 2.27986 12.3041 2.53506 12.3527 2.82187C12.4013 3.10868 12.3673 3.39305 12.2507 3.67499C12.309 3.70416 12.3649 3.73819 12.4184 3.77708C12.4718 3.81597 12.5229 3.85972 12.5715 3.90833C12.8534 4.19027 12.9944 4.53298 12.9944 4.93645C12.9944 5.33993 12.8534 5.68263 12.5715 5.96458L12.3382 6.19791C12.377 6.21736 12.4159 6.24409 12.4548 6.27812C12.4937 6.31215 12.5326 6.34861 12.5715 6.38749C12.8534 6.66944 12.9944 7.01215 12.9944 7.41562C12.9944 7.81909 12.8534 8.1618 12.5715 8.44374L9.0569 11.9437C8.08468 12.916 6.91801 13.4021 5.5569 13.4021C4.19579 13.4021 3.02912 12.916 2.0569 11.9437ZM2.87357 11.1271C3.24301 11.4965 3.66107 11.7736 4.12773 11.9583C4.5944 12.1431 5.07079 12.2354 5.5569 12.2354C6.04301 12.2354 6.5194 12.1431 6.98607 11.9583C7.45273 11.7736 7.87079 11.4965 8.24023 11.1271L11.7402 7.61249C11.7986 7.55416 11.8277 7.48611 11.8277 7.40833C11.8277 7.33055 11.7986 7.2625 11.7402 7.20416C11.6819 7.14583 11.6138 7.11666 11.5361 7.11666C11.4583 7.11666 11.3902 7.14583 11.3319 7.20416L9.27565 9.27499L8.4444 8.44374L11.7402 5.14791C11.7986 5.08958 11.8277 5.01909 11.8277 4.93645C11.8277 4.85381 11.7986 4.78333 11.7402 4.72499C11.6819 4.67638 11.6138 4.64965 11.5361 4.64479C11.4583 4.63993 11.3902 4.66666 11.3319 4.72499L8.4444 7.61249L7.61315 6.79583L11.1277 3.28124C11.1861 3.22291 11.2152 3.15486 11.2152 3.07708C11.2152 2.9993 11.1861 2.93124 11.1277 2.87291C11.0694 2.81458 11.0013 2.78541 10.9236 2.78541C10.8458 2.78541 10.7777 2.81458 10.7194 2.87291L7.20482 6.38749L6.38815 5.55624L9.0569 2.87291C9.11523 2.81458 9.1444 2.74652 9.1444 2.66874C9.1444 2.59097 9.11523 2.52291 9.0569 2.46458C9.00829 2.40624 8.94267 2.37708 8.86003 2.37708C8.77739 2.37708 8.7069 2.40624 8.64857 2.46458L4.97357 6.13958C5.17773 6.66458 5.22635 7.21145 5.1194 7.7802C5.01246 8.34895 4.7451 8.84722 4.31732 9.27499L3.50065 8.44374C3.84093 8.10347 4.01107 7.69027 4.01107 7.20416C4.01107 6.71805 3.84093 6.30486 3.50065 5.96458L5.35273 4.11249C5.41107 4.05416 5.44023 3.98611 5.44023 3.90833C5.44023 3.83055 5.41107 3.76249 5.35273 3.70416C5.2944 3.64583 5.22635 3.61909 5.14857 3.62395C5.07079 3.62881 5.00273 3.65555 4.9444 3.70416L2.87357 5.76041C2.50412 6.12986 2.22704 6.54791 2.04232 7.01458C1.8576 7.48125 1.76523 7.95763 1.76523 8.44374C1.76523 8.92986 1.8576 9.40624 2.04232 9.87291C2.22704 10.3396 2.50412 10.7576 2.87357 11.1271Z" fill="#FDFDFD"/>
</g>
</svg>
