<svg width="105" height="14" viewBox="0 0 105 14" fill="none" xmlns="http://www.w3.org/2000/svg">
<path d="M0.147727 13V1.36364H4.60227C5.44318 1.36364 6.14205 1.49621 6.69886 1.76136C7.25947 2.02273 7.67803 2.38068 7.95455 2.83523C8.23485 3.28977 8.375 3.80492 8.375 4.38068C8.375 4.85417 8.28409 5.25947 8.10227 5.59659C7.92045 5.92992 7.67614 6.20076 7.36932 6.40909C7.0625 6.61742 6.7197 6.76705 6.34091 6.85795V6.97159C6.75379 6.99432 7.14962 7.12121 7.52841 7.35227C7.91098 7.57955 8.22348 7.90151 8.46591 8.31818C8.70833 8.73485 8.82955 9.23864 8.82955 9.82955C8.82955 10.4318 8.68371 10.9735 8.39205 11.4545C8.10038 11.9318 7.66099 12.3087 7.07386 12.5852C6.48674 12.8617 5.74811 13 4.85795 13H0.147727ZM2.25568 11.2386H4.52273C5.28788 11.2386 5.83902 11.0928 6.17614 10.8011C6.51705 10.5057 6.6875 10.1269 6.6875 9.66477C6.6875 9.32008 6.60227 9.00947 6.43182 8.73295C6.26136 8.45265 6.01894 8.23295 5.70455 8.07386C5.39015 7.91098 5.01515 7.82955 4.57955 7.82955H2.25568V11.2386ZM2.25568 6.3125H4.34091C4.70455 6.3125 5.0322 6.24621 5.32386 6.11364C5.61553 5.97727 5.8447 5.78598 6.01136 5.53977C6.18182 5.28977 6.26705 4.99432 6.26705 4.65341C6.26705 4.20265 6.10795 3.83144 5.78977 3.53977C5.47538 3.24811 5.00758 3.10227 4.38636 3.10227H2.25568V6.3125ZM10.2524 13V4.27273H12.2468V5.72727H12.3377C12.4968 5.22348 12.7695 4.83523 13.1559 4.5625C13.546 4.28598 13.9911 4.14773 14.4911 4.14773C14.6047 4.14773 14.7316 4.15341 14.8718 4.16477C15.0157 4.17235 15.135 4.18561 15.2297 4.20455V6.09659C15.1426 6.06629 15.0043 6.03977 14.8149 6.01705C14.6293 5.99053 14.4494 5.97727 14.2752 5.97727C13.9002 5.97727 13.563 6.05871 13.2638 6.22159C12.9684 6.38068 12.7354 6.60227 12.5649 6.88636C12.3945 7.17045 12.3093 7.49811 12.3093 7.86932V13H10.2524ZM18.6313 13.1761C18.0783 13.1761 17.5802 13.0777 17.137 12.8807C16.6976 12.6799 16.3491 12.3845 16.0915 11.9943C15.8377 11.6042 15.7109 11.1231 15.7109 10.5511C15.7109 10.0587 15.8018 9.65152 15.9836 9.32955C16.1654 9.00758 16.4135 8.75 16.7279 8.55682C17.0423 8.36364 17.3965 8.2178 17.7904 8.11932C18.1881 8.01705 18.5991 7.94318 19.0234 7.89773C19.5347 7.8447 19.9495 7.79735 20.2677 7.75568C20.5859 7.71023 20.8169 7.64205 20.9609 7.55114C21.1086 7.45644 21.1824 7.31061 21.1824 7.11364V7.07955C21.1824 6.65152 21.0556 6.32008 20.8018 6.08523C20.548 5.85038 20.1824 5.73295 19.7052 5.73295C19.2014 5.73295 18.8018 5.8428 18.5063 6.0625C18.2146 6.2822 18.0177 6.54167 17.9154 6.84091L15.9949 6.56818C16.1465 6.03788 16.3965 5.5947 16.7449 5.23864C17.0934 4.87879 17.5196 4.60985 18.0234 4.43182C18.5271 4.25 19.084 4.15909 19.6938 4.15909C20.1143 4.15909 20.5328 4.20833 20.9495 4.30682C21.3662 4.4053 21.7468 4.56818 22.0915 4.79545C22.4362 5.01894 22.7127 5.32386 22.9211 5.71023C23.1332 6.09659 23.2393 6.57955 23.2393 7.15909V13H21.262V11.8011H21.1938C21.0688 12.0436 20.8927 12.2708 20.6654 12.483C20.4419 12.6913 20.1597 12.8598 19.8188 12.9886C19.4817 13.1136 19.0859 13.1761 18.6313 13.1761ZM19.1654 11.6648C19.5783 11.6648 19.9362 11.5833 20.2393 11.4205C20.5423 11.2538 20.7752 11.0341 20.9381 10.7614C21.1048 10.4886 21.1881 10.1913 21.1881 9.86932V8.84091C21.1237 8.89394 21.0139 8.94318 20.8586 8.98864C20.7071 9.03409 20.5366 9.07386 20.3472 9.10795C20.1578 9.14205 19.9703 9.17235 19.7847 9.19886C19.5991 9.22538 19.4381 9.24811 19.3018 9.26705C18.9949 9.30871 18.7203 9.37689 18.4779 9.47159C18.2355 9.56629 18.0442 9.69886 17.904 9.86932C17.7639 10.036 17.6938 10.2519 17.6938 10.517C17.6938 10.8958 17.8321 11.1818 18.1086 11.375C18.3851 11.5682 18.7374 11.6648 19.1654 11.6648ZM27.0443 7.88636V13H24.9874V4.27273H26.9534V5.75568H27.0556C27.2564 5.26705 27.5765 4.87879 28.0159 4.59091C28.459 4.30303 29.0064 4.15909 29.6579 4.15909C30.2602 4.15909 30.7848 4.28788 31.2318 4.54545C31.6825 4.80303 32.031 5.17614 32.2772 5.66477C32.5272 6.15341 32.6503 6.74621 32.6465 7.44318V13H30.5897V7.76136C30.5897 7.17803 30.4382 6.72159 30.1352 6.39205C29.8359 6.0625 29.4212 5.89773 28.8909 5.89773C28.531 5.89773 28.2109 5.97727 27.9306 6.13636C27.6541 6.29167 27.4363 6.51705 27.2772 6.8125C27.1219 7.10795 27.0443 7.46591 27.0443 7.88636ZM37.6561 13.1534C36.9705 13.1534 36.3568 12.9773 35.8152 12.625C35.2735 12.2727 34.8455 11.7614 34.5311 11.0909C34.2167 10.4205 34.0595 9.60606 34.0595 8.64773C34.0595 7.67803 34.2186 6.85985 34.5368 6.19318C34.8587 5.52273 35.2924 5.01705 35.8379 4.67614C36.3834 4.33144 36.9913 4.15909 37.6618 4.15909C38.1731 4.15909 38.5936 4.24621 38.9231 4.42045C39.2527 4.59091 39.514 4.79735 39.7072 5.03977C39.9004 5.27841 40.05 5.50379 40.1561 5.71591H40.2413V1.36364H42.3038V13H40.2811V11.625H40.1561C40.05 11.8371 39.8966 12.0625 39.6959 12.3011C39.4951 12.536 39.2299 12.7367 38.9004 12.9034C38.5709 13.0701 38.1561 13.1534 37.6561 13.1534ZM38.2299 11.4659C38.6656 11.4659 39.0368 11.3485 39.3436 11.1136C39.6504 10.875 39.8834 10.5436 40.0424 10.1193C40.2015 9.69508 40.2811 9.20076 40.2811 8.63636C40.2811 8.07197 40.2015 7.58144 40.0424 7.16477C39.8871 6.74811 39.6561 6.42424 39.3493 6.19318C39.0462 5.96212 38.6731 5.84659 38.2299 5.84659C37.7716 5.84659 37.389 5.96591 37.0822 6.20455C36.7754 6.44318 36.5443 6.77273 36.389 7.19318C36.2337 7.61364 36.1561 8.0947 36.1561 8.63636C36.1561 9.18182 36.2337 9.66856 36.389 10.0966C36.5481 10.5208 36.7811 10.8561 37.0879 11.1023C37.3985 11.3447 37.7792 11.4659 38.2299 11.4659ZM54.2267 5.28977H52.1017C52.0411 4.94129 51.9294 4.63258 51.7665 4.36364C51.6036 4.09091 51.4009 3.85985 51.1585 3.67045C50.9161 3.48106 50.6396 3.33901 50.329 3.24432C50.0222 3.14583 49.6907 3.09659 49.3347 3.09659C48.7021 3.09659 48.1415 3.25568 47.6528 3.57386C47.1642 3.88826 46.7816 4.35038 46.5051 4.96023C46.2286 5.56629 46.0903 6.30682 46.0903 7.18182C46.0903 8.07197 46.2286 8.82197 46.5051 9.43182C46.7854 10.0379 47.168 10.4962 47.6528 10.8068C48.1415 11.1136 48.7002 11.267 49.329 11.267C49.6775 11.267 50.0032 11.2216 50.3063 11.1307C50.6131 11.036 50.8877 10.8977 51.1301 10.7159C51.3763 10.5341 51.5828 10.3106 51.7494 10.0455C51.9199 9.7803 52.0373 9.47727 52.1017 9.13636L54.2267 9.14773C54.1472 9.70076 53.9748 10.2197 53.7097 10.7045C53.4483 11.1894 53.1055 11.6174 52.6813 11.9886C52.257 12.3561 51.7608 12.6439 51.1926 12.8523C50.6244 13.0568 49.9938 13.1591 49.3006 13.1591C48.2778 13.1591 47.365 12.9223 46.5619 12.4489C45.7589 11.9754 45.1263 11.2917 44.6642 10.3977C44.2021 9.50379 43.971 8.43182 43.971 7.18182C43.971 5.92803 44.204 4.85606 44.6699 3.96591C45.1358 3.07197 45.7703 2.38826 46.5733 1.91477C47.3763 1.44129 48.2854 1.20455 49.3006 1.20455C49.9483 1.20455 50.5506 1.29545 51.1074 1.47727C51.6642 1.65909 52.1604 1.92614 52.596 2.27841C53.0316 2.62689 53.3896 3.05492 53.6699 3.5625C53.954 4.06629 54.1396 4.64205 54.2267 5.28977ZM55.7462 13V4.27273H57.7405V5.72727H57.8314C57.9905 5.22348 58.2632 4.83523 58.6496 4.5625C59.0398 4.28598 59.4848 4.14773 59.9848 4.14773C60.0985 4.14773 60.2254 4.15341 60.3655 4.16477C60.5095 4.17235 60.6288 4.18561 60.7235 4.20455V6.09659C60.6363 6.06629 60.4981 6.03977 60.3087 6.01705C60.1231 5.99053 59.9432 5.97727 59.7689 5.97727C59.3939 5.97727 59.0568 6.05871 58.7576 6.22159C58.4621 6.38068 58.2291 6.60227 58.0587 6.88636C57.8882 7.17045 57.803 7.49811 57.803 7.86932V13H55.7462ZM64.1251 13.1761C63.572 13.1761 63.0739 13.0777 62.6307 12.8807C62.1913 12.6799 61.8429 12.3845 61.5853 11.9943C61.3315 11.6042 61.2046 11.1231 61.2046 10.5511C61.2046 10.0587 61.2955 9.65152 61.4773 9.32955C61.6591 9.00758 61.9073 8.75 62.2216 8.55682C62.536 8.36364 62.8902 8.2178 63.2841 8.11932C63.6819 8.01705 64.0929 7.94318 64.5171 7.89773C65.0285 7.8447 65.4432 7.79735 65.7614 7.75568C66.0796 7.71023 66.3107 7.64205 66.4546 7.55114C66.6023 7.45644 66.6762 7.31061 66.6762 7.11364V7.07955C66.6762 6.65152 66.5493 6.32008 66.2955 6.08523C66.0417 5.85038 65.6762 5.73295 65.1989 5.73295C64.6951 5.73295 64.2955 5.8428 64.0001 6.0625C63.7084 6.2822 63.5114 6.54167 63.4091 6.84091L61.4887 6.56818C61.6402 6.03788 61.8902 5.5947 62.2387 5.23864C62.5872 4.87879 63.0133 4.60985 63.5171 4.43182C64.0209 4.25 64.5777 4.15909 65.1876 4.15909C65.608 4.15909 66.0266 4.20833 66.4432 4.30682C66.8599 4.4053 67.2406 4.56818 67.5853 4.79545C67.93 5.01894 68.2065 5.32386 68.4148 5.71023C68.6269 6.09659 68.733 6.57955 68.733 7.15909V13H66.7557V11.8011H66.6876C66.5626 12.0436 66.3864 12.2708 66.1591 12.483C65.9357 12.6913 65.6535 12.8598 65.3126 12.9886C64.9754 13.1136 64.5796 13.1761 64.1251 13.1761ZM64.6591 11.6648C65.072 11.6648 65.43 11.5833 65.733 11.4205C66.036 11.2538 66.269 11.0341 66.4319 10.7614C66.5985 10.4886 66.6819 10.1913 66.6819 9.86932V8.84091C66.6175 8.89394 66.5076 8.94318 66.3523 8.98864C66.2008 9.03409 66.0304 9.07386 65.841 9.10795C65.6516 9.14205 65.4641 9.17235 65.2785 9.19886C65.0929 9.22538 64.9319 9.24811 64.7955 9.26705C64.4887 9.30871 64.2141 9.37689 63.9716 9.47159C63.7292 9.56629 63.5379 9.69886 63.3978 9.86932C63.2576 10.036 63.1876 10.2519 63.1876 10.517C63.1876 10.8958 63.3258 11.1818 63.6023 11.375C63.8788 11.5682 64.2311 11.6648 64.6591 11.6648ZM74.9017 4.27273V5.86364H69.7426V4.27273H74.9017ZM71.0323 13V3.44886C71.0323 2.86174 71.1535 2.37311 71.396 1.98295C71.6422 1.5928 71.9717 1.30114 72.3846 1.10795C72.7975 0.914772 73.2558 0.818181 73.7596 0.818181C74.1157 0.818181 74.432 0.84659 74.7085 0.903409C74.985 0.960227 75.1895 1.01136 75.3221 1.05682L74.913 2.64773C74.8259 2.62121 74.716 2.5947 74.5835 2.56818C74.4509 2.53788 74.3032 2.52273 74.1403 2.52273C73.7577 2.52273 73.4869 2.61553 73.3278 2.80114C73.1725 2.98295 73.0948 3.24432 73.0948 3.58523V13H71.0323ZM80.5504 4.27273V5.86364H75.5334V4.27273H80.5504ZM76.772 2.18182H78.8288V10.375C78.8288 10.6515 78.8705 10.8636 78.9538 11.0114C79.0409 11.1553 79.1546 11.2538 79.2947 11.3068C79.4349 11.3598 79.5902 11.3864 79.7606 11.3864C79.8894 11.3864 80.0068 11.3769 80.1129 11.358C80.2227 11.339 80.3061 11.322 80.3629 11.3068L80.7095 12.9148C80.5996 12.9527 80.4424 12.9943 80.2379 13.0398C80.0371 13.0852 79.7909 13.1117 79.4993 13.1193C78.9841 13.1345 78.5201 13.0568 78.1072 12.8864C77.6943 12.7121 77.3667 12.4432 77.1243 12.0795C76.8856 11.7159 76.7682 11.2614 76.772 10.7159V2.18182ZM85.7205 13.1705C84.8455 13.1705 84.0898 12.9886 83.4534 12.625C82.8208 12.2576 82.3341 11.7386 81.9932 11.0682C81.6523 10.3939 81.4818 9.60038 81.4818 8.6875C81.4818 7.78977 81.6523 7.00189 81.9932 6.32386C82.3379 5.64205 82.8189 5.11174 83.4364 4.73295C84.0538 4.35038 84.7792 4.15909 85.6125 4.15909C86.1504 4.15909 86.658 4.24621 87.1352 4.42045C87.6163 4.59091 88.0405 4.85606 88.408 5.21591C88.7792 5.57576 89.0708 6.03409 89.283 6.59091C89.4951 7.14394 89.6011 7.80303 89.6011 8.56818V9.19886H82.4477V7.8125H87.6295C87.6258 7.41856 87.5405 7.06818 87.3739 6.76136C87.2072 6.45076 86.9742 6.20644 86.675 6.02841C86.3795 5.85038 86.0349 5.76136 85.6409 5.76136C85.2205 5.76136 84.8511 5.86364 84.533 6.06818C84.2148 6.26894 83.9667 6.53409 83.7886 6.86364C83.6144 7.18939 83.5254 7.54735 83.5216 7.9375V9.14773C83.5216 9.6553 83.6144 10.0909 83.8 10.4545C83.9856 10.8144 84.2451 11.0909 84.5784 11.2841C84.9117 11.4735 85.3019 11.5682 85.7489 11.5682C86.0481 11.5682 86.3189 11.5265 86.5614 11.4432C86.8038 11.3561 87.014 11.2292 87.192 11.0625C87.3701 10.8958 87.5045 10.6894 87.5955 10.4432L89.5159 10.6591C89.3947 11.1667 89.1636 11.6098 88.8227 11.9886C88.4856 12.3636 88.0538 12.6553 87.5273 12.8636C87.0008 13.0682 86.3985 13.1705 85.7205 13.1705ZM91.0212 13V4.27273H93.0155V5.72727H93.1064C93.2655 5.22348 93.5382 4.83523 93.9246 4.5625C94.3148 4.28598 94.7598 4.14773 95.2598 4.14773C95.3735 4.14773 95.5004 4.15341 95.6405 4.16477C95.7845 4.17235 95.9038 4.18561 95.9985 4.20455V6.09659C95.9113 6.06629 95.7731 6.03977 95.5837 6.01705C95.3981 5.99053 95.2182 5.97727 95.0439 5.97727C94.6689 5.97727 94.3318 6.05871 94.0326 6.22159C93.7371 6.38068 93.5042 6.60227 93.3337 6.88636C93.1632 7.17045 93.078 7.49811 93.078 7.86932V13H91.0212ZM103.943 6.57955L102.068 6.78409C102.015 6.5947 101.922 6.41667 101.789 6.25C101.66 6.08333 101.486 5.94886 101.267 5.84659C101.047 5.74432 100.778 5.69318 100.46 5.69318C100.032 5.69318 99.6718 5.78598 99.3802 5.97159C99.0923 6.1572 98.9502 6.39773 98.954 6.69318C98.9502 6.94697 99.0431 7.15341 99.2324 7.3125C99.4256 7.47159 99.7438 7.60227 100.187 7.70455L101.676 8.02273C102.501 8.20076 103.115 8.48295 103.517 8.86932C103.922 9.25568 104.126 9.76136 104.13 10.3864C104.126 10.9356 103.965 11.4205 103.647 11.8409C103.333 12.2576 102.895 12.5833 102.335 12.8182C101.774 13.053 101.13 13.1705 100.403 13.1705C99.3347 13.1705 98.4749 12.947 97.8234 12.5C97.1718 12.0492 96.7836 11.4223 96.6586 10.6193L98.6643 10.4261C98.7552 10.8201 98.9484 11.1174 99.2438 11.3182C99.5393 11.5189 99.9237 11.6193 100.397 11.6193C100.886 11.6193 101.278 11.5189 101.573 11.3182C101.873 11.1174 102.022 10.8693 102.022 10.5739C102.022 10.3239 101.926 10.1174 101.732 9.95455C101.543 9.79167 101.248 9.66667 100.846 9.57955L99.3574 9.26705C98.5203 9.0928 97.901 8.79924 97.4995 8.38636C97.098 7.9697 96.8991 7.44318 96.9029 6.80682C96.8991 6.26894 97.0449 5.80303 97.3404 5.40909C97.6396 5.01136 98.0544 4.70455 98.5847 4.48864C99.1188 4.26894 99.7343 4.15909 100.431 4.15909C101.454 4.15909 102.259 4.37689 102.846 4.8125C103.437 5.24811 103.803 5.83712 103.943 6.57955Z" fill="#0F1223"/>
</svg>
