<svg viewBox="0 0 133 20" fill="none" xmlns="http://www.w3.org/2000/svg">
  <path d="M0.954545 4.19602V1.54545H14.8807V4.19602H9.4858V19H6.34943V4.19602H0.954545ZM19.7942 11.3295V19H16.709V1.54545H19.726V8.13352H19.8794C20.1862 7.39489 20.6607 6.8125 21.3027 6.38636C21.9505 5.95455 22.7743 5.73864 23.7743 5.73864C24.6834 5.73864 25.476 5.92898 26.1522 6.30966C26.8283 6.69034 27.351 7.24716 27.7203 7.98011C28.0953 8.71307 28.2828 9.60795 28.2828 10.6648V19H25.1976V11.142C25.1976 10.2614 24.9703 9.5767 24.5158 9.08807C24.0669 8.59375 23.4362 8.34659 22.6237 8.34659C22.0783 8.34659 21.5897 8.46591 21.1578 8.70455C20.7317 8.9375 20.3965 9.27557 20.1522 9.71875C19.9135 10.1619 19.7942 10.6989 19.7942 11.3295ZM36.5032 19.2557C35.1907 19.2557 34.0572 18.983 33.1026 18.4375C32.1537 17.8864 31.4236 17.108 30.9123 16.1023C30.4009 15.0909 30.1452 13.9006 30.1452 12.5312C30.1452 11.1847 30.4009 10.0028 30.9123 8.9858C31.4293 7.96307 32.1509 7.16761 33.077 6.59943C34.0032 6.02557 35.0912 5.73864 36.3412 5.73864C37.1481 5.73864 37.9094 5.86932 38.6253 6.13068C39.3469 6.38636 39.9833 6.78409 40.5344 7.32386C41.0912 7.86364 41.5287 8.55114 41.8469 9.38636C42.1651 10.2159 42.3242 11.2045 42.3242 12.3523V13.2983H31.5941V11.2188H39.3668C39.3611 10.6278 39.2333 10.1023 38.9833 9.64205C38.7333 9.17614 38.3839 8.80966 37.935 8.54261C37.4918 8.27557 36.9748 8.14205 36.3839 8.14205C35.7532 8.14205 35.1992 8.29545 34.7219 8.60227C34.2447 8.90341 33.8725 9.30114 33.6055 9.79545C33.3441 10.2841 33.2106 10.821 33.2049 11.4062V13.2216C33.2049 13.983 33.3441 14.6364 33.6225 15.1818C33.9009 15.7216 34.2901 16.1364 34.7901 16.4261C35.2901 16.7102 35.8753 16.8523 36.5458 16.8523C36.9947 16.8523 37.4009 16.7898 37.7645 16.6648C38.1282 16.5341 38.4435 16.3438 38.7106 16.0938C38.9776 15.8438 39.1793 15.5341 39.3157 15.1648L42.1964 15.4886C42.0145 16.25 41.668 16.9148 41.1566 17.483C40.6509 18.0455 40.0032 18.483 39.2134 18.7955C38.4236 19.1023 37.5202 19.2557 36.5032 19.2557ZM49.1832 19V1.54545H56.3934C57.7003 1.54545 58.8281 1.80114 59.777 2.3125C60.7315 2.81818 61.4673 3.52557 61.9843 4.43466C62.5014 5.33807 62.7599 6.3892 62.7599 7.58807C62.7599 8.79261 62.4957 9.84659 61.9673 10.75C61.4446 11.6477 60.6974 12.3437 59.7258 12.8381C58.7542 13.3324 57.6008 13.5795 56.2656 13.5795H51.8167V10.2557H55.4815C56.1179 10.2557 56.6491 10.1449 57.0753 9.9233C57.5071 9.7017 57.8338 9.39205 58.0554 8.99432C58.277 8.59091 58.3878 8.12216 58.3878 7.58807C58.3878 7.04829 58.277 6.58239 58.0554 6.19034C57.8338 5.79261 57.5071 5.4858 57.0753 5.26989C56.6434 5.05398 56.1122 4.94602 55.4815 4.94602H53.402V19H49.1832ZM69.9724 19.2472C68.5974 19.2472 67.4156 18.9659 66.427 18.4034C65.444 17.8352 64.6855 17.0455 64.1514 16.0341C63.623 15.017 63.3588 13.8381 63.3588 12.4972C63.3588 11.1506 63.623 9.97159 64.1514 8.96023C64.6855 7.94318 65.444 7.15341 66.427 6.59091C67.4156 6.02273 68.5974 5.73864 69.9724 5.73864C71.3474 5.73864 72.5264 6.02273 73.5094 6.59091C74.498 7.15341 75.2565 7.94318 75.7849 8.96023C76.319 9.97159 76.5861 11.1506 76.5861 12.4972C76.5861 13.8381 76.319 15.017 75.7849 16.0341C75.2565 17.0455 74.498 17.8352 73.5094 18.4034C72.5264 18.9659 71.3474 19.2472 69.9724 19.2472ZM69.998 16.1023C70.498 16.1023 70.9213 15.9489 71.2679 15.642C71.6145 15.3352 71.8787 14.9091 72.0605 14.3636C72.248 13.8182 72.3418 13.1875 72.3418 12.4716C72.3418 11.7443 72.248 11.108 72.0605 10.5625C71.8787 10.017 71.6145 9.59091 71.2679 9.28409C70.9213 8.97727 70.498 8.82386 69.998 8.82386C69.481 8.82386 69.0435 8.97727 68.6855 9.28409C68.3332 9.59091 68.0634 10.017 67.8759 10.5625C67.694 11.108 67.6031 11.7443 67.6031 12.4716C67.6031 13.1875 67.694 13.8182 67.8759 14.3636C68.0634 14.9091 68.3332 15.3352 68.6855 15.642C69.0435 15.9489 69.481 16.1023 69.998 16.1023ZM82.7823 19.1875C81.8164 19.1875 80.9385 18.9375 80.1488 18.4375C79.359 17.9375 78.7283 17.1875 78.2567 16.1875C77.7851 15.1875 77.5493 13.946 77.5493 12.4631C77.5493 10.9233 77.7936 9.65625 78.2823 8.66193C78.7709 7.66761 79.4101 6.93182 80.1999 6.45454C80.9953 5.97727 81.8505 5.73864 82.7652 5.73864C83.4527 5.73864 84.0408 5.85795 84.5294 6.09659C85.0181 6.32955 85.4215 6.63068 85.7397 7C86.0578 7.36932 86.2993 7.75284 86.4641 8.15057H86.5493V1.54545H90.7169V19H86.5919V16.8778H86.4641C86.288 17.2812 86.038 17.6591 85.7141 18.0114C85.3902 18.3636 84.984 18.6477 84.4953 18.8636C84.0124 19.0795 83.4414 19.1875 82.7823 19.1875ZM84.2311 15.9403C84.7368 15.9403 85.1686 15.7983 85.5266 15.5142C85.8845 15.2244 86.1601 14.8182 86.3533 14.2955C86.5465 13.7727 86.6431 13.1591 86.6431 12.4545C86.6431 11.7386 86.5465 11.1222 86.3533 10.6051C86.1658 10.0881 85.8902 9.69034 85.5266 9.41193C85.1686 9.13352 84.7368 8.99432 84.2311 8.99432C83.7141 8.99432 83.2766 9.13636 82.9186 9.42045C82.5607 9.70455 82.288 10.1051 82.1005 10.6222C81.9186 11.1392 81.8277 11.75 81.8277 12.4545C81.8277 13.1591 81.9215 13.7727 82.109 14.2955C82.2965 14.8182 82.5664 15.2244 82.9186 15.5142C83.2766 15.7983 83.7141 15.9403 84.2311 15.9403ZM92.6326 19V5.90909H96.8002V19H92.6326ZM94.7207 4.38352C94.1354 4.38352 93.6326 4.19034 93.2121 3.80398C92.7917 3.41193 92.5814 2.94034 92.5814 2.3892C92.5814 1.84375 92.7917 1.37784 93.2121 0.991477C93.6326 0.599431 94.1354 0.403408 94.7207 0.403408C95.3116 0.403408 95.8144 0.599431 96.2292 0.991477C96.6496 1.37784 96.8599 1.84375 96.8599 2.3892C96.8599 2.94034 96.6496 3.41193 96.2292 3.80398C95.8144 4.19034 95.3116 4.38352 94.7207 4.38352ZM107.179 13.3494V5.90909H111.338V19H107.366V16.5625H107.23C106.94 17.3636 106.446 18 105.747 18.4716C105.054 18.9375 104.216 19.1705 103.233 19.1705C102.341 19.1705 101.557 18.9659 100.881 18.5568C100.204 18.1477 99.6789 17.5767 99.3039 16.8438C98.9289 16.1051 98.7386 15.2415 98.7329 14.2528V5.90909H102.901V13.4347C102.906 14.1449 103.094 14.7045 103.463 15.1136C103.832 15.5227 104.335 15.7273 104.972 15.7273C105.386 15.7273 105.758 15.6364 106.088 15.4545C106.423 15.267 106.687 14.9972 106.881 14.6449C107.079 14.2869 107.179 13.8551 107.179 13.3494ZM113.271 19V5.90909H117.234V8.3125H117.379C117.651 7.51705 118.112 6.8892 118.759 6.42898C119.407 5.96875 120.18 5.73864 121.078 5.73864C121.987 5.73864 122.765 5.97159 123.413 6.4375C124.06 6.90341 124.472 7.52841 124.649 8.3125H124.785C125.029 7.53409 125.507 6.91193 126.217 6.44602C126.927 5.97443 127.765 5.73864 128.731 5.73864C129.97 5.73864 130.975 6.13636 131.748 6.93182C132.521 7.72159 132.907 8.80682 132.907 10.1875V19H128.739V11.142C128.739 10.4886 128.572 9.99148 128.237 9.65057C127.901 9.30398 127.467 9.13068 126.933 9.13068C126.359 9.13068 125.907 9.31818 125.578 9.69318C125.254 10.0625 125.092 10.5597 125.092 11.1847V19H121.086V11.0994C121.086 10.4915 120.921 10.0114 120.592 9.65909C120.262 9.30682 119.828 9.13068 119.288 9.13068C118.924 9.13068 118.603 9.21875 118.325 9.39489C118.046 9.56534 117.828 9.80966 117.668 10.1278C117.515 10.446 117.438 10.821 117.438 11.2528V19H113.271Z" fill="white"></path>
  </svg>