<svg viewBox="0 0 24 24" fill="none" xmlns="http://www.w3.org/2000/svg">
<mask id="mask0_1056_1836" style="mask-type:alpha" maskUnits="userSpaceOnUse" x="0" y="0" width="24" height="24">
<rect width="24" height="24" fill="#D9D9D9"/>
</mask>
<g mask="url(#mask0_1056_1836)">
<path d="M14 20.7251V18.6751C15.5 18.2418 16.7083 17.4084 17.625 16.1751C18.5417 14.9418 19 13.5418 19 11.9751C19 10.4084 18.5417 9.00843 17.625 7.7751C16.7083 6.54176 15.5 5.70843 14 5.2751V3.2251C16.0667 3.69176 17.75 4.7376 19.05 6.3626C20.35 7.9876 21 9.85843 21 11.9751C21 14.0918 20.35 15.9626 19.05 17.5876C17.75 19.2126 16.0667 20.2584 14 20.7251ZM3 15.0001V9.0001H7L12 4.0001V20.0001L7 15.0001H3ZM14 16.0001V7.9501C14.7833 8.31676 15.3958 8.86676 15.8375 9.6001C16.2792 10.3334 16.5 11.1334 16.5 12.0001C16.5 12.8501 16.2792 13.6376 15.8375 14.3626C15.3958 15.0876 14.7833 15.6334 14 16.0001ZM10 8.8501L7.85 11.0001H5V13.0001H7.85L10 15.1501V8.8501Z" fill="#C4C4C4"/>
</g>
</svg>
