<?xml version="1.0" standalone="no"?>
<!DOCTYPE svg PUBLIC "-//W3C//DTD SVG 20010904//EN"
 "http://www.w3.org/TR/2001/REC-SVG-20010904/DTD/svg10.dtd">
<svg version="1.0" xmlns="http://www.w3.org/2000/svg"
 width="512.000000pt" height="512.000000pt" viewBox="0 0 512.000000 512.000000"
 preserveAspectRatio="xMidYMid meet">
<metadata>
Created by potrace 1.14, written by Peter Selinger 2001-2017
</metadata>
<g transform="translate(0.000000,512.000000) scale(0.100000,-0.100000)"
fill="#000000" stroke="none">
<path d="M3705 4464 c-144 -25 -254 -67 -380 -144 -38 -23 -72 -45 -75 -49 -3
-3 -21 -18 -40 -33 -118 -89 -252 -244 -332 -386 -108 -192 -142 -482 -78
-668 l20 -58 -1092 -1093 -1093 -1093 150 -149 150 -150 810 805 810 804 170
-169 c93 -94 458 -456 810 -805 l640 -635 150 149 150 150 -810 810 -810 810
132 132 131 131 79 -23 c117 -36 306 -34 449 4 89 24 206 79 294 137 90 60
236 198 307 290 94 122 187 319 207 440 3 19 8 48 11 64 6 39 7 181 1 222 -23
157 -102 288 -245 405 -33 28 -132 75 -197 94 -73 21 -224 25 -319 8z"/>
<path d="M879 4433 c-93 -102 -192 -281 -214 -390 -65 -314 -20 -570 143 -803
25 -36 204 -225 399 -421 l354 -356 317 317 c174 175 328 329 341 344 l25 26
-311 313 c-172 171 -467 468 -656 660 -189 191 -348 347 -354 347 -5 0 -25
-17 -44 -37z"/>
</g>
</svg>
