<svg width="15" height="14" viewBox="0 0 15 14" fill="none" xmlns="http://www.w3.org/2000/svg">
<mask id="mask0_454_1561" style="mask-type:alpha" maskUnits="userSpaceOnUse" x="0" y="0" width="15" height="14">
<rect x="0.666687" width="14" height="14" fill="#D9D9D9"/>
</mask>
<g mask="url(#mask0_454_1561)">
<path d="M7.66667 6.99996C7.9875 6.99996 8.26215 6.88572 8.49062 6.65725C8.7191 6.42878 8.83333 6.15413 8.83333 5.83329C8.83333 5.51246 8.7191 5.23781 8.49062 5.00933C8.26215 4.78086 7.9875 4.66663 7.66667 4.66663C7.34583 4.66663 7.07118 4.78086 6.84271 5.00933C6.61424 5.23781 6.5 5.51246 6.5 5.83329C6.5 6.15413 6.61424 6.42878 6.84271 6.65725C7.07118 6.88572 7.34583 6.99996 7.66667 6.99996ZM7.66667 11.2875C8.85278 10.1986 9.73264 9.20933 10.3063 8.31975C10.8799 7.43017 11.1667 6.64024 11.1667 5.94996C11.1667 4.89024 10.8288 4.02253 10.1531 3.34683C9.47743 2.67114 8.64861 2.33329 7.66667 2.33329C6.68472 2.33329 5.8559 2.67114 5.18021 3.34683C4.50451 4.02253 4.16667 4.89024 4.16667 5.94996C4.16667 6.64024 4.45347 7.43017 5.02708 8.31975C5.60069 9.20933 6.48056 10.1986 7.66667 11.2875ZM7.66667 12.8333C6.10139 11.5013 4.93229 10.2642 4.15937 9.12183C3.38646 7.97947 3 6.92218 3 5.94996C3 4.49163 3.4691 3.32982 4.40729 2.46454C5.34549 1.59926 6.43194 1.16663 7.66667 1.16663C8.90139 1.16663 9.98785 1.59926 10.926 2.46454C11.8642 3.32982 12.3333 4.49163 12.3333 5.94996C12.3333 6.92218 11.9469 7.97947 11.174 9.12183C10.401 10.2642 9.23194 11.5013 7.66667 12.8333Z" fill="#191824"/>
</g>
</svg>
