<svg xmlns="http://www.w3.org/2000/svg" fill="none"><mask id="a" width="16" height="16" x="0" y="0" maskUnits="userSpaceOnUse" style="mask-type:alpha"><path fill="#D9D9D9" d="M0 0h16v16H0z"/></mask><g mask="url(#a)"><path fill="currentColor" d="M6 14H3.333c-.366 0-.68-.13-.941-.392A1.284 1.284 0 0 1 2 12.667V8c0-.833.158-1.614.475-2.342a6.099 6.099 0 0 1 1.283-1.9 6.099 6.099 0 0 1 1.9-1.283A5.805 5.805 0 0 1 8 2c.833 0 1.614.158 2.342.475a6.1 6.1 0 0 1 1.9 1.283 6.1 6.1 0 0 1 1.283 1.9C13.842 6.386 14 7.167 14 8v4.667c0 .366-.13.68-.392.941a1.284 1.284 0 0 1-.941.392H10V8.667h2.667V8c0-1.3-.453-2.403-1.359-3.308C10.403 3.786 9.3 3.333 8 3.333c-1.3 0-2.403.453-3.308 1.359C3.786 5.597 3.333 6.7 3.333 8v.667H6V14Zm-1.333-4H3.333v2.667h1.334V10Zm6.666 0v2.667h1.334V10h-1.334Z"/></g></svg>