<svg width="32" height="32" viewBox="0 0 32 32" fill="none" xmlns="http://www.w3.org/2000/svg">
  <circle cx="16" cy="16" r="14" fill="#FFFA37"></circle>
  <path fill-rule="evenodd" clip-rule="evenodd" d="M21.0255 8.18551C20.0601 6.96879 18.4673 6 16.0118 6C13.9091 6.02071 9.70378 7.18445 9.70378 11.6738C9.70378 12.3294 9.75568 13.2075 9.80103 13.8541C9.74758 13.8386 9.68188 13.8095 9.57775 13.7596L9.56328 13.7527C9.37915 13.6643 9.09918 13.5298 8.7098 13.5298C8.31645 13.5298 7.93611 13.6839 7.65375 13.9124C7.37309 14.1394 7.13333 14.4885 7.13333 14.9105C7.13333 15.4384 7.43041 15.7888 7.77778 16.0135C8.08632 16.2131 8.47538 16.3406 8.78337 16.4415L8.81382 16.4514C9.14349 16.5596 9.3851 16.642 9.55169 16.7458C9.68136 16.8267 9.70104 16.8778 9.70348 16.9264C9.70179 16.9333 9.69782 16.9482 9.68919 16.9724C9.67141 17.0224 9.64184 17.0899 9.59862 17.1743C9.5124 17.3427 9.38667 17.5498 9.23711 17.7706C8.93539 18.2161 8.56717 18.673 8.29212 18.9376C8.02082 19.1986 7.57562 19.5229 7.11016 19.7811C6.87933 19.9091 6.6536 20.0152 6.45167 20.0881C6.24322 20.1633 6.09047 20.192 5.99608 20.192C5.92136 20.192 5.85669 20.2073 5.82847 20.2144C5.7888 20.2243 5.74774 20.2374 5.70713 20.2527C5.62657 20.2829 5.53056 20.3283 5.43546 20.3923C5.25377 20.5146 5 20.7612 5 21.1502C5 21.3532 5.04766 21.5251 5.13005 21.6742C5.20217 21.8047 5.29487 21.9038 5.34823 21.9608L5.35615 21.9692L5.37091 21.9851C5.66435 22.3008 6.15008 22.5205 6.62162 22.6712C7.02679 22.8007 7.4798 22.8972 7.92122 22.9551C7.92745 22.9836 7.93397 23.0142 7.9411 23.0478L7.9434 23.0587C7.97119 23.1897 8.008 23.3633 8.06221 23.5234C8.11336 23.6744 8.20599 23.8977 8.39564 24.0568C8.63717 24.2593 8.95308 24.2798 9.1592 24.279C9.38047 24.2781 9.63881 24.2469 9.88394 24.2174L9.90481 24.2149C10.2497 24.1733 10.6106 24.1304 10.9843 24.1304C11.6663 24.1304 12.1035 24.4153 12.7894 24.8837L12.794 24.8869C13.0316 25.0492 13.2976 25.2308 13.6 25.4095C14.6122 26.0076 15.4346 26.0025 15.9007 25.9995C15.9315 25.9993 15.9606 25.9992 15.9882 25.9992C16.0158 25.9992 16.0452 25.9993 16.0761 25.9995C16.543 26.0025 17.3873 26.0079 18.4 25.4095C18.7024 25.2308 18.9684 25.0492 19.2059 24.8869L19.2106 24.8837C19.8965 24.4153 20.3337 24.1304 21.0157 24.1304C21.3894 24.1304 21.7503 24.1733 22.0952 24.2149L22.1161 24.2174C22.3612 24.2469 22.6195 24.2781 22.8408 24.279C23.0469 24.2798 23.3628 24.2593 23.6044 24.0568C23.794 23.8977 23.8866 23.6744 23.9378 23.5234C23.992 23.3634 24.0288 23.1898 24.0566 23.0587L24.0589 23.0478C24.066 23.0142 24.0725 22.9836 24.0788 22.9551C24.5202 22.8972 24.9732 22.8007 25.3784 22.6712C25.8499 22.5205 26.3357 22.3007 26.6291 21.985L26.6439 21.9692L26.6517 21.9608C26.7051 21.9038 26.7978 21.8047 26.8699 21.6742C26.9523 21.5251 27 21.3532 27 21.1502C27 20.7612 26.7462 20.5146 26.5645 20.3923C26.4694 20.3283 26.3734 20.2829 26.2929 20.2527C26.2523 20.2374 26.2112 20.2243 26.1715 20.2144C26.1433 20.2073 26.0786 20.192 26.0039 20.192C25.9095 20.192 25.7568 20.1633 25.5483 20.0881C25.3464 20.0152 25.1207 19.9091 24.8898 19.7811C24.4244 19.5229 23.9792 19.1986 23.7079 18.9376C23.4328 18.673 23.0646 18.2161 22.7629 17.7706C22.6133 17.5498 22.4876 17.3427 22.4014 17.1743C22.3582 17.0899 22.3286 17.0224 22.3108 16.9724C22.3022 16.9482 22.2982 16.9333 22.2965 16.9264C22.299 16.8778 22.3186 16.8267 22.4483 16.7458C22.6149 16.642 22.8565 16.5596 23.1862 16.4514L23.2166 16.4415C23.5246 16.3406 23.9137 16.2131 24.2222 16.0135C24.5696 15.7888 24.8667 15.4384 24.8667 14.9105C24.8667 14.4885 24.6269 14.1394 24.3462 13.9124C24.0639 13.6839 23.6835 13.5298 23.2902 13.5298C22.9008 13.5298 22.6209 13.6643 22.4367 13.7527L22.4223 13.7596C22.3181 13.8095 22.2524 13.8386 22.199 13.8541C22.2443 13.2075 22.2962 12.3294 22.2962 11.6738C22.2962 10.7837 21.9726 9.37904 21.0255 8.18551ZM11.7832 8.77274C10.9822 9.77549 10.7077 10.9662 10.7077 11.6738C10.7077 12.3299 10.7633 13.2413 10.8102 13.8949C10.8258 14.1119 10.7813 14.365 10.5917 14.5658C10.3998 14.7691 10.1388 14.8351 9.90561 14.8351C9.56889 14.8351 9.3128 14.7119 9.14898 14.6331L9.12996 14.624C8.94718 14.5363 8.85108 14.4956 8.7098 14.4956C8.58128 14.4956 8.42437 14.5508 8.29994 14.6515C8.17382 14.7535 8.13725 14.8534 8.13725 14.9105C8.13725 15.0269 8.18018 15.1101 8.33794 15.2121C8.52427 15.3326 8.78976 15.4232 9.13779 15.5374L9.16809 15.5473C9.45712 15.642 9.81511 15.7593 10.0976 15.9354C10.4147 16.133 10.7077 16.4507 10.7077 16.9401C10.7077 17.0684 10.6722 17.1919 10.6389 17.2854C10.6028 17.3869 10.554 17.4941 10.4992 17.601C10.3896 17.8152 10.2413 18.0571 10.0783 18.2978C9.75483 18.7754 9.3437 19.2918 9.002 19.6205C8.65655 19.9528 8.13703 20.3263 7.61159 20.6178C7.34696 20.7645 7.07068 20.8961 6.80428 20.9923C6.56581 21.0783 6.3088 21.1457 6.06224 21.1563C6.0561 21.1589 6.04931 21.162 6.0422 21.1655C6.03083 21.1713 6.0202 21.1774 6.01092 21.1837L6.00618 21.187C6.00711 21.1936 6.00817 21.1985 6.00906 21.202C6.01103 21.2097 6.01337 21.2152 6.01652 21.2209C6.02619 21.2384 6.04143 21.2579 6.1031 21.324L6.11928 21.3413C6.23038 21.4609 6.50416 21.616 6.93815 21.7547C7.35148 21.8868 7.84023 21.9822 8.30201 22.026C8.53305 22.0479 8.66621 22.1923 8.72257 22.2701C8.78059 22.3501 8.81377 22.4347 8.83316 22.4908C8.87067 22.5994 8.899 22.7332 8.92135 22.8387L8.92474 22.8547C8.95525 22.9985 8.98194 23.1215 9.01675 23.2242C9.02905 23.2606 9.0404 23.2882 9.05017 23.3085C9.0722 23.3111 9.10599 23.3135 9.15493 23.3133C9.36726 23.3124 9.57984 23.2808 9.79022 23.2554C10.1268 23.2148 10.5433 23.1646 10.9843 23.1646C12.0071 23.1646 12.682 23.6258 13.334 24.0713L13.3706 24.0963C13.6118 24.261 13.8536 24.4259 14.1255 24.5866C14.8917 25.0394 15.4747 25.0361 15.9007 25.0337C15.9306 25.0336 15.9598 25.0334 15.9882 25.0334C16.0164 25.0334 16.0454 25.0336 16.0753 25.0337C16.5059 25.036 17.1085 25.0393 17.8745 24.5866C18.1464 24.4259 18.3882 24.261 18.6294 24.0963L18.666 24.0713C19.318 23.6258 19.9929 23.1646 21.0157 23.1646C21.4567 23.1646 21.8732 23.2148 22.2098 23.2554L22.2199 23.2566C22.4921 23.2894 22.6913 23.3126 22.8451 23.3133C22.894 23.3135 22.9278 23.3111 22.9498 23.3085C22.9596 23.2882 22.9709 23.2606 22.9833 23.2242C23.0181 23.1215 23.0447 22.9985 23.0753 22.8547L23.0787 22.8387C23.101 22.7331 23.1293 22.5994 23.1668 22.4908C23.1862 22.4347 23.2194 22.3501 23.2774 22.2701C23.3338 22.1923 23.467 22.0479 23.698 22.026C24.1598 21.9822 24.6485 21.8868 25.0618 21.7547C25.4958 21.616 25.7696 21.4609 25.8807 21.3414L25.8969 21.324C25.9585 21.2579 25.9738 21.2384 25.9835 21.2209C25.9866 21.2152 25.989 21.2097 25.9909 21.202C25.9918 21.1985 25.9929 21.1936 25.9938 21.187L25.9891 21.1837C25.9798 21.1774 25.9692 21.1713 25.9578 21.1655C25.9507 21.1619 25.9439 21.1589 25.9378 21.1563C25.6912 21.1457 25.4342 21.0783 25.1957 20.9923C24.9293 20.8961 24.653 20.7645 24.3884 20.6178C23.863 20.3263 23.3435 19.9528 22.998 19.6205C22.6563 19.2918 22.2452 18.7754 21.9217 18.2978C21.7587 18.0571 21.6104 17.8152 21.5008 17.601C21.446 17.4941 21.3972 17.3869 21.3611 17.2854C21.3278 17.1919 21.2923 17.0684 21.2923 16.9401C21.2923 16.4507 21.5853 16.133 21.9024 15.9354C22.1849 15.7593 22.5429 15.642 22.8319 15.5473L22.8622 15.5374C23.2102 15.4232 23.4757 15.3326 23.6621 15.2121C23.8198 15.1101 23.8627 15.0269 23.8627 14.9105C23.8627 14.8534 23.8262 14.7535 23.7001 14.6515C23.5756 14.5508 23.4187 14.4956 23.2902 14.4956C23.1489 14.4956 23.0528 14.5363 22.87 14.624L22.851 14.6331C22.6872 14.7119 22.4311 14.8351 22.0944 14.8351C21.8612 14.8351 21.6002 14.7691 21.4083 14.5658C21.2187 14.365 21.1742 14.1119 21.1898 13.8949C21.2367 13.2413 21.2923 12.3299 21.2923 11.6738C21.2923 10.9643 21.0227 9.77352 20.2275 8.77149C19.4508 7.79264 18.1523 6.96575 16.0118 6.96575C13.871 6.96575 12.566 7.79288 11.7832 8.77274Z" fill="black"></path>
  <path fill-rule="evenodd" clip-rule="evenodd" d="M11.7832 8.77281C10.9821 9.77556 10.7077 10.9662 10.7077 11.6738C10.7077 12.3299 10.7633 13.2414 10.8102 13.895C10.8257 14.112 10.7812 14.365 10.5917 14.5659C10.3998 14.7692 10.1388 14.8352 9.90559 14.8352C9.56888 14.8352 9.31279 14.712 9.14897 14.6332L9.12995 14.624C8.94717 14.5364 8.85107 14.4956 8.70979 14.4956C8.58127 14.4956 8.42436 14.5509 8.29993 14.6515C8.17381 14.7536 8.13724 14.8535 8.13724 14.9106C8.13724 15.027 8.18017 15.1101 8.33793 15.2122C8.52426 15.3327 8.78975 15.4233 9.13778 15.5374L9.16808 15.5474C9.45711 15.6421 9.81509 15.7593 10.0976 15.9354C10.4147 16.1331 10.7077 16.4508 10.7077 16.9402C10.7077 17.0685 10.6722 17.192 10.6389 17.2855C10.6028 17.387 10.554 17.4942 10.4992 17.6011C10.3896 17.8153 10.2413 18.0572 10.0782 18.2979C9.75482 18.7754 9.34369 19.2918 9.00199 19.6206C8.65654 19.9529 8.13702 20.3264 7.61158 20.6178C7.34695 20.7646 7.07067 20.8962 6.80427 20.9923C6.5658 21.0784 6.30878 21.1458 6.06223 21.1563C6.05608 21.1589 6.0493 21.162 6.04218 21.1656C6.03082 21.1713 6.02019 21.1775 6.01091 21.1837L6.00616 21.187C6.00709 21.1937 6.00816 21.1986 6.00904 21.2021C6.01102 21.2098 6.01336 21.2153 6.01651 21.221C6.02618 21.2385 6.04142 21.258 6.10309 21.3241L6.11927 21.3414C6.23037 21.4609 6.50415 21.616 6.93814 21.7548C7.35146 21.8869 7.84022 21.9823 8.30199 22.0261C8.53303 22.048 8.6662 22.1924 8.72256 22.2701C8.78058 22.3502 8.81376 22.4348 8.83314 22.4909C8.87066 22.5995 8.89899 22.7332 8.92133 22.8387L8.92473 22.8548C8.95524 22.9986 8.98193 23.1215 9.01673 23.2243C9.02904 23.2606 9.04039 23.2883 9.05016 23.3086C9.07219 23.3111 9.10598 23.3135 9.15492 23.3133C9.36725 23.3125 9.57983 23.2808 9.79021 23.2555C10.1268 23.2149 10.5433 23.1647 10.9843 23.1647C12.0071 23.1647 12.682 23.6259 13.3339 24.0713L13.3705 24.0963C13.6118 24.2611 13.8536 24.426 14.1255 24.5867C14.8917 25.0395 15.4747 25.0362 15.9006 25.0338C15.9306 25.0336 15.9598 25.0335 15.9882 25.0335C16.0164 25.0335 16.0454 25.0336 16.0753 25.0338C16.5059 25.0361 17.1084 25.0394 17.8745 24.5867C18.1464 24.426 18.3882 24.2611 18.6294 24.0963L18.666 24.0713C19.318 23.6259 19.9929 23.1647 21.0157 23.1647C21.4567 23.1647 21.8732 23.2149 22.2098 23.2555L22.2199 23.2567C22.4921 23.2895 22.6913 23.3127 22.8451 23.3133C22.894 23.3135 22.9278 23.3111 22.9498 23.3086C22.9596 23.2883 22.9709 23.2606 22.9832 23.2243C23.018 23.1215 23.0447 22.9986 23.0752 22.8548L23.0786 22.8387C23.101 22.7332 23.1293 22.5995 23.1668 22.4909C23.1862 22.4347 23.2194 22.3502 23.2774 22.2701C23.3338 22.1923 23.4669 22.048 23.698 22.0261C24.1598 21.9823 24.6485 21.8869 25.0618 21.7548C25.4958 21.616 25.7696 21.461 25.8807 21.3414L25.8969 21.3241C25.9585 21.258 25.9738 21.2385 25.9835 21.221C25.9866 21.2153 25.989 21.2098 25.9909 21.2021C25.9918 21.1986 25.9929 21.1937 25.9938 21.187L25.9891 21.1837C25.9798 21.1775 25.9692 21.1713 25.9578 21.1656C25.9507 21.162 25.9439 21.1589 25.9377 21.1563C25.6912 21.1458 25.4342 21.0784 25.1957 20.9923C24.9293 20.8962 24.653 20.7646 24.3884 20.6178C23.863 20.3264 23.3434 19.9529 22.998 19.6206C22.6563 19.2918 22.2452 18.7754 21.9217 18.2979C21.7587 18.0572 21.6104 17.8153 21.5007 17.6011C21.446 17.4942 21.3972 17.387 21.3611 17.2855C21.3278 17.192 21.2923 17.0685 21.2923 16.9402C21.2923 16.4508 21.5853 16.1331 21.9024 15.9354C22.1849 15.7593 22.5429 15.6421 22.8319 15.5474L22.8622 15.5374C23.2102 15.4233 23.4757 15.3327 23.662 15.2122C23.8198 15.1101 23.8627 15.027 23.8627 14.9106C23.8627 14.8535 23.8262 14.7536 23.7 14.6515C23.5756 14.5509 23.4187 14.4956 23.2902 14.4956C23.1489 14.4956 23.0528 14.5364 22.87 14.624L22.851 14.6332C22.6872 14.712 22.4311 14.8352 22.0944 14.8352C21.8612 14.8352 21.6002 14.7692 21.4083 14.5659C21.2187 14.365 21.1742 14.112 21.1898 13.895C21.2367 13.2414 21.2923 12.3299 21.2923 11.6738C21.2923 10.9644 21.0227 9.7736 20.2275 8.77157C19.4508 7.79271 18.1523 6.96582 16.0118 6.96582C13.8709 6.96582 12.566 7.79296 11.7832 8.77281Z" fill="white"></path>
  </svg>