<svg width="15" height="14" viewBox="0 0 15 14" fill="none" xmlns="http://www.w3.org/2000/svg">
<mask id="mask0_454_1553" style="mask-type:alpha" maskUnits="userSpaceOnUse" x="0" y="0" width="15" height="14">
<rect x="0.333344" width="14" height="14" fill="#D9D9D9"/>
</mask>
<g mask="url(#mask0_454_1553)">
<path d="M2.66667 12.25C2.34583 12.25 2.07118 12.1357 1.84271 11.9073C1.61424 11.6788 1.5 11.4041 1.5 11.0833V4.66663C1.5 4.34579 1.61424 4.07114 1.84271 3.84267C2.07118 3.6142 2.34583 3.49996 2.66667 3.49996H5V2.33329C5 2.01246 5.11424 1.73781 5.34271 1.50933C5.57118 1.28086 5.84583 1.16663 6.16667 1.16663H8.5C8.82083 1.16663 9.09549 1.28086 9.32396 1.50933C9.55243 1.73781 9.66667 2.01246 9.66667 2.33329V3.49996H12C12.3208 3.49996 12.5955 3.6142 12.824 3.84267C13.0524 4.07114 13.1667 4.34579 13.1667 4.66663V11.0833C13.1667 11.4041 13.0524 11.6788 12.824 11.9073C12.5955 12.1357 12.3208 12.25 12 12.25H2.66667ZM6.16667 3.49996H8.5V2.33329H6.16667V3.49996ZM12 8.74996H9.08333V9.91663H5.58333V8.74996H2.66667V11.0833H12V8.74996ZM6.75 8.74996H7.91667V7.58329H6.75V8.74996ZM2.66667 7.58329H5.58333V6.41663H9.08333V7.58329H12V4.66663H2.66667V7.58329Z" fill="#191824"/>
</g>
</svg>
